<svg width="122" height="111" viewBox="0 0 122 111" fill="none" xmlns="http://www.w3.org/2000/svg">
<path d="M58.1085 2.59033C59.909 1.60006 62.091 1.60006 63.8915 2.59033L107.892 26.7903C109.809 27.8448 111 29.8595 111 32.0476V79.9524C111 82.1405 109.809 84.1552 107.892 85.2097L63.8915 109.41C62.091 110.4 59.909 110.4 58.1085 109.41L14.1085 85.2097C12.1912 84.1552 11 82.1405 11 79.9524V32.0476C11 29.8595 12.1912 27.8448 14.1085 26.7903L58.1085 2.59033Z" fill="#5F2EEA"/>
<path d="M51.115 73.0769H61.23V81.6923H51.115V73.0769ZM61.23 73.0769H71.345V81.6923H61.23V73.0769ZM41 64.4615H51.115V73.0769H41V64.4615ZM41 55.8462H51.115V64.4615H41V55.8462ZM41 47.2308H51.115V55.8462H41V47.2308ZM41 38.6154H51.115V47.2308H41V38.6154ZM51.115 30H61.23V38.6154H51.115V30ZM61.23 30H71.345V38.6154H61.23V30ZM71.345 38.6154H81.46V47.2308H71.345V38.6154ZM71.345 47.2308H81.46V55.8462H71.345V47.2308ZM61.23 47.2308H71.345V55.8462H61.23V47.2308ZM51.115 47.2308H61.23V55.8462H51.115V47.2308ZM71.345 64.4615H81.46V73.0769H71.345V64.4615Z" fill="white"/>
</svg>
