<svg width="500" height="327" viewBox="0 0 500 327" fill="none" xmlns="http://www.w3.org/2000/svg">
<g clip-path="url(#clip0_4944_17764)">
<path d="M154.04 26.6191L122.833 101.555H135.54V76.3281H174.97V101.555H189.919V132.389H174.97V157.804H135.54V132.389H79.665V104.358L113.303 26.6191H154.04Z" fill="#FF8A48"/>
<path d="M301.111 92.2121C301.111 135.193 282.237 158.926 248.226 158.926C213.841 158.926 195.153 135.194 195.153 92.2121C195.153 49.2311 213.841 25.498 248.226 25.498C282.237 25.498 301.111 49.2311 301.111 92.2121ZM236.078 92.2121C236.078 119.682 238.882 129.773 248.226 129.773C257.384 129.773 260.186 119.682 260.186 92.2121C260.186 64.5551 257.384 54.65 248.226 54.65C238.882 54.65 236.078 64.5551 236.078 92.2121Z" fill="#FF8A48"/>
<path d="M384.646 26.6191L353.439 101.555H366.145V76.3281H405.575V101.555H420.525V132.389H405.575V157.804H366.145V132.389H310.271V104.358L343.907 26.6191H384.646Z" fill="#FF8A48"/>
<path d="M221.512 307.843C236.371 307.843 248.416 303.314 248.416 297.727C248.416 292.14 236.371 287.611 221.512 287.611C206.653 287.611 194.608 292.14 194.608 297.727C194.608 303.314 206.653 307.843 221.512 307.843Z" fill="#080B25" fill-opacity="0.13"/>
<path d="M280.012 307.843C294.871 307.843 306.916 303.314 306.916 297.727C306.916 292.14 294.871 287.611 280.012 287.611C265.153 287.611 253.108 292.14 253.108 297.727C253.108 303.314 265.153 307.843 280.012 307.843Z" fill="#080B25" fill-opacity="0.13"/>
<path d="M500 237.311C500 237.311 388.205 254.657 371.552 207.475C355.486 161.954 355.041 126.323 344.748 117.327" stroke="#485F66" stroke-miterlimit="10"/>
<path d="M0 237.311C0 237.311 111.985 254.657 128.638 207.475C144.704 161.954 145.149 126.323 155.442 117.327" stroke="#485F66" stroke-miterlimit="10"/>
<path d="M277.747 253.816L273.124 284.735H262.892L258.261 253.816H277.747Z" fill="#364259"/>
<path d="M273.14 253.816L268.517 284.735H262.892L258.261 253.816H273.14Z" fill="#0A0B29" fill-opacity="0.87"/>
<path d="M271.785 303.131L289.183 298.756L273.774 284.043H262.937V289.113L271.785 303.131Z" fill="#364259"/>
<path d="M276.128 240.572L263.229 242.647L262.435 242.775L256.699 243.696L256.522 242.999L246.699 204.573L254.239 203.571L255.032 203.467L265.392 202.097L269.839 201.504L276.128 240.572Z" fill="#364259"/>
<path d="M271.585 240.572L258.686 242.647L257.892 242.775L256.522 242.999L246.699 204.573L254.239 203.571L255.032 203.467L265.392 202.097L271.585 240.572Z" fill="#0A0B29" fill-opacity="0.87"/>
<path d="M256.488 247.468L277.431 244.095L276.619 239.054L255.676 242.426L256.488 247.468Z" fill="#364259"/>
<path d="M278.436 248.976L275.247 249.321L257.348 251.26L256.795 246.18L274.694 244.241L277.883 243.897L278.436 248.976Z" fill="#364259"/>
<path d="M274.702 244.244L256.803 246.183L257.353 251.263L275.253 249.324L274.702 244.244Z" fill="#0A0B29" fill-opacity="0.87"/>
<path d="M257.379 255.857L278.522 254.124L278.105 249.035L256.962 250.768L257.379 255.857Z" fill="#364259"/>
<path d="M289.183 298.756V302.534L271.785 303.131L289.183 298.756Z" fill="#0A0B29" fill-opacity="0.87"/>
<path d="M268.18 289.141L267.379 289.214L263.91 249.818L262.435 242.775L254.239 203.571L255.032 203.467L263.229 242.647L264.703 249.697L268.18 289.141Z" fill="#364259"/>
<path d="M239.408 253.816L234.785 284.735H224.546L219.923 253.816H239.408Z" fill="#364259"/>
<path d="M235.667 253.816L231.044 284.735H224.546L219.923 253.816H235.667Z" fill="#0A0B29" fill-opacity="0.87"/>
<path d="M225.887 303.131L208.489 298.756L224.433 283.908L234.736 284.043V289.113L225.887 303.131Z" fill="#364259"/>
<path d="M251.274 204.573L241.275 243.696L237.485 243.087L236.244 242.887L235.458 242.759L221.838 240.572L228.047 202.017L228.127 201.504L243.647 203.563L244.448 203.667L251.274 204.573Z" fill="#364259"/>
<path d="M247.332 204.573L237.485 243.087L236.244 242.887L235.458 242.759L221.838 240.572L228.047 202.017L239.705 203.563L240.506 203.667L247.332 204.573Z" fill="#0A0B29" fill-opacity="0.87"/>
<path d="M241.98 242.422L241.171 247.462L220.227 244.089L221.036 239.049L235.739 241.421L236.524 241.541L241.98 242.422Z" fill="#364259"/>
<path d="M240.875 246.18L240.33 251.26L236.764 250.875L219.242 248.976L219.786 243.897L237.309 245.795L240.875 246.18Z" fill="#364259"/>
<path d="M237.309 245.795L236.764 250.875L219.242 248.976L219.786 243.897L237.309 245.795Z" fill="#0A0B29" fill-opacity="0.87"/>
<path d="M240.688 250.793L219.545 249.06L219.128 254.149L240.271 255.882L240.688 250.793Z" fill="#364259"/>
<path d="M208.489 298.756V302.501L225.887 303.131L208.489 298.756Z" fill="#0A0B29" fill-opacity="0.87"/>
<path d="M233.64 253.816H234.441L231.717 284.735H230.915L233.64 253.816Z" fill="#364259"/>
<path d="M244.448 203.667L236.524 241.541L235.739 241.421L243.647 203.563L244.448 203.667Z" fill="#364259"/>
<path d="M248.951 20.6172H247.699V40.0472H248.951V20.6172Z" fill="#434464"/>
<path d="M254.359 45.5892H243.092V44.5632C243.092 41.4522 245.614 38.9292 248.726 38.9292C251.837 38.9292 254.36 41.4512 254.36 44.5632V45.5892H254.359Z" fill="#0A0B29" fill-opacity="0.87"/>
<path d="M302.552 136.14L308.182 144.261L336.699 124.492L331.07 116.371L302.552 136.14Z" fill="#0A0B29" fill-opacity="0.87"/>
<path d="M269.378 139.023L301.469 146.826L304.336 136.357L267.527 120.786L269.378 139.023Z" fill="#0A0B29" fill-opacity="0.87"/>
<path d="M297.473 141.284C297.473 144.492 300.074 147.093 303.282 147.093C306.49 147.093 309.091 144.492 309.091 141.284C309.091 138.076 306.49 135.475 303.282 135.475C300.074 135.475 297.473 138.076 297.473 141.284Z" fill="#434464"/>
<path d="M299.843 141.284C299.843 143.183 301.382 144.723 303.281 144.723C305.18 144.723 306.72 143.183 306.72 141.284C306.72 139.385 305.181 137.845 303.281 137.845C301.383 137.846 299.843 139.385 299.843 141.284Z" fill="#0A0B29" fill-opacity="0.87"/>
<path d="M336.243 103.921L332.732 107.635C328.748 111.849 328.936 118.498 333.15 122.481C337.364 126.465 344.012 126.278 347.996 122.063L351.507 118.348L347.503 114.563L344.122 118.14C342.226 120.146 339.071 120.234 337.065 118.338C335.059 116.442 334.963 113.28 336.859 111.274L340.24 107.697L336.243 103.921Z" fill="#434464"/>
<path d="M165.778 116.348L160.148 124.469L188.665 144.238L194.295 136.117L165.778 116.348Z" fill="#0A0B29" fill-opacity="0.87"/>
<path d="M227.471 139.023L195.379 146.826L192.512 136.357L229.321 121.229L227.471 139.023Z" fill="#0A0B29" fill-opacity="0.87"/>
<path d="M268.38 50.7152V98.5722C268.38 103.796 264.142 108.034 258.918 108.034H238.783C233.559 108.034 229.321 103.796 229.321 98.5722V52.9902C229.321 48.1752 232.934 44.1282 237.718 43.5922L254.552 41.6932L257.861 41.3162C263.469 40.6832 268.38 45.0742 268.38 50.7152Z" fill="#292242"/>
<path d="M261.169 50.7149V98.5719C261.169 103.796 256.931 108.034 251.707 108.034H238.783C233.559 108.034 229.321 103.796 229.321 98.5719V52.9899C229.321 48.1749 232.934 44.1279 237.718 43.5919L254.552 41.6929C258.357 42.8869 261.169 46.4359 261.169 50.7149Z" fill="#434464"/>
<path d="M255.828 112.908H240.872C240.356 112.908 239.937 112.489 239.937 111.973V108.902C239.937 108.386 240.356 107.967 240.872 107.967H255.828C256.344 107.967 256.763 108.386 256.763 108.902V111.973C256.763 112.489 256.344 112.908 255.828 112.908Z" fill="#0A0B29" fill-opacity="0.87"/>
<path d="M254.758 117.515H241.941C241.461 117.515 241.072 117.126 241.072 116.646V113.444C241.072 112.964 241.461 112.575 241.941 112.575H254.758C255.238 112.575 255.628 112.964 255.628 113.444V116.646C255.628 117.126 255.238 117.515 254.758 117.515Z" fill="#364259"/>
<path d="M255.544 122.022H241.155C240.648 122.022 240.237 121.611 240.237 121.104V117.999C240.237 117.492 240.648 117.081 241.155 117.081H255.544C256.051 117.081 256.462 117.492 256.462 117.999V121.104C256.462 121.611 256.051 122.022 255.544 122.022Z" fill="#0A0B29" fill-opacity="0.87"/>
<path d="M276.008 132.735L274.093 173.269L274.053 174.07L272.931 197.77L272.618 204.476L272.121 214.932H225.98L225.483 204.476L225.17 197.77L223.856 169.992L223.816 169.191L222.093 132.736C221.773 126.062 226.54 120.453 232.533 120.453H265.567C271.561 120.453 276.329 126.061 276.008 132.735Z" fill="#292242"/>
<path d="M265.993 132.735L264.078 173.269L264.038 174.07L262.916 197.77L262.603 204.476L262.106 214.932H225.98L225.483 204.476L225.17 197.77L223.856 169.992L223.816 169.191L222.093 132.736C221.773 126.062 226.54 120.453 232.533 120.453H255.552C261.546 120.453 266.313 126.061 265.993 132.735Z" fill="#434464"/>
<path d="M199.375 141.284C199.375 144.492 196.774 147.093 193.566 147.093C190.358 147.093 187.757 144.492 187.757 141.284C187.757 138.076 190.358 135.475 193.566 135.475C196.775 135.475 199.375 138.076 199.375 141.284Z" fill="#434464"/>
<path d="M193.567 144.238C195.198 144.238 196.521 142.916 196.521 141.284C196.521 139.653 195.198 138.33 193.567 138.33C191.936 138.33 190.613 139.653 190.613 141.284C190.613 142.916 191.936 144.238 193.567 144.238Z" fill="#0A0B29" fill-opacity="0.87"/>
<path d="M160.605 103.921L164.116 107.635C168.1 111.849 167.912 118.498 163.698 122.481C159.484 126.465 152.836 126.278 148.852 122.063L145.341 118.348L149.345 114.563L152.726 118.14C154.622 120.146 157.777 120.234 159.783 118.338C161.789 116.442 161.885 113.28 159.989 111.274L156.608 107.697L160.605 103.921Z" fill="#434464"/>
<path d="M250.136 19.8501C250.136 20.8731 249.306 21.7031 248.283 21.7031C247.26 21.7031 246.43 20.8731 246.43 19.8501C246.43 18.8271 247.26 17.9971 248.283 17.9971C249.306 17.9971 250.136 18.8261 250.136 19.8501Z" fill="#FF8A48"/>
<path d="M261.47 91.0078C252.79 85.5998 244.11 96.4158 235.43 91.0078C235.43 90.1068 235.43 89.2048 235.43 88.3038C244.11 93.7118 252.79 82.8958 261.47 88.3038C261.47 89.2048 261.47 90.1068 261.47 91.0078Z" fill="#0A0B29" fill-opacity="0.87"/>
<path d="M246.183 77.293C249.781 73.6948 249.781 67.8609 246.183 64.2626C242.584 60.6643 236.75 60.6644 233.152 64.2626C229.554 67.8609 229.554 73.6948 233.152 77.293C236.75 80.8913 242.584 80.8913 246.183 77.293Z" fill="#292242"/>
<path d="M266.467 72.9175C267.641 67.9661 264.579 63.0006 259.627 61.8266C254.676 60.6526 249.71 63.7148 248.536 68.6661C247.362 73.6175 250.425 78.583 255.376 79.757C260.327 80.931 265.293 77.8688 266.467 72.9175Z" fill="#292242"/>
<path d="M257.89 61.5635H239.587V79.9795H257.89V61.5635Z" fill="#292242"/>
<path d="M241.94 65.9702H237.734V75.6852H241.94V65.9702Z" fill="#FF8A48"/>
<path d="M241.489 66.7212H238.184V74.9332H241.489V66.7212Z" fill="#FF8A48"/>
<path d="M260.269 65.9702H256.062V75.6852H260.269V65.9702Z" fill="#FF8A48"/>
<path d="M233.687 64.4573L232.426 62.7653L242.782 54.3633L244.882 58.0083L233.687 64.4573Z" fill="#0A0B29" fill-opacity="0.87"/>
<path d="M264.319 64.4573L265.58 62.7653L255.224 54.3633L253.124 58.0083L264.319 64.4573Z" fill="#0A0B29" fill-opacity="0.87"/>
<path d="M266.311 135.876H231.191V157.91H266.311V135.876Z" fill="#292242"/>
<path d="M262.905 138.013H234.596V155.773H262.905V138.013Z" fill="#0A0B29" fill-opacity="0.87"/>
<path d="M260.333 141.583H237.168V142.702H260.333V141.583Z" fill="#FF8A48"/>
<path d="M256.708 144.667H240.793V145.786H256.708V144.667Z" fill="#FF8A48"/>
<path d="M258.458 147.417H239.043V148.536H258.458V147.417Z" fill="#FF8A48"/>
<path d="M274.093 173.269L274.053 174.07H254.824V164.319H237.798V169.992H223.857L223.817 169.191H236.997V163.518H255.625V173.269H274.093Z" fill="#0A0B29" fill-opacity="0.87"/>
<path d="M237.4 170.863C238.211 170.863 238.869 170.206 238.869 169.394C238.869 168.583 238.211 167.925 237.4 167.925C236.589 167.925 235.931 168.583 235.931 169.394C235.931 170.206 236.589 170.863 237.4 170.863Z" fill="#0A0B29" fill-opacity="0.87"/>
<path d="M238.401 163.785C238.401 164.338 237.953 164.787 237.4 164.787C236.847 164.787 236.398 164.339 236.398 163.785C236.398 163.232 236.846 162.783 237.4 162.783C237.954 162.783 238.401 163.232 238.401 163.785Z" fill="#0A0B29" fill-opacity="0.87"/>
<path d="M256.229 163.785C256.229 164.338 255.781 164.787 255.227 164.787C254.674 164.787 254.225 164.339 254.225 163.785C254.225 163.232 254.673 162.783 255.227 162.783C255.78 162.784 256.229 163.232 256.229 163.785Z" fill="#0A0B29" fill-opacity="0.87"/>
<path d="M256.229 173.4C256.229 173.953 255.781 174.401 255.227 174.401C254.674 174.401 254.225 173.953 254.225 173.4C254.225 172.847 254.673 172.399 255.227 172.399C255.78 172.398 256.229 172.847 256.229 173.4Z" fill="#0A0B29" fill-opacity="0.87"/>
<path d="M259.784 66.7212H256.479V74.9332H259.784V66.7212Z" fill="#FF8A48"/>
<path d="M273.388 204.38H224.514V219.102H273.388V204.38Z" fill="#364259"/>
<path d="M256.786 204.38H224.514V219.102H256.786V204.38Z" fill="#0A0B29" fill-opacity="0.87"/>
<path d="M272.931 197.77L272.619 204.477H225.483L225.171 197.77H272.931Z" fill="#292242"/>
<path d="M155.442 117.327C155.818 116.999 156.206 116.706 156.609 116.449C168.058 109.163 167.797 137.004 167.797 137.004" stroke="#485F66" stroke-miterlimit="10"/>
<path d="M166.586 141.201H165.415V145.527H166.586V141.201Z" fill="#485F66"/>
<path d="M170.587 141.201H169.416V145.527H170.587V141.201Z" fill="#485F66"/>
<path d="M172.299 139.477V142.599H163.712V139.477C163.712 137.104 165.627 135.178 168 135.178C169.187 135.178 170.259 135.657 171.039 136.437C171.143 136.541 171.247 136.656 171.341 136.77C171.945 137.51 172.299 138.457 172.299 139.477Z" fill="#485F66"/>
<path d="M172.299 139.477V142.599H164.941V140.517C164.941 138.144 166.866 136.219 169.239 136.219C169.999 136.219 170.717 136.417 171.341 136.771C171.945 137.51 172.299 138.457 172.299 139.477Z" fill="#6D8189"/>
<path d="M344.749 117.327C344.373 116.999 343.985 116.706 343.582 116.449C332.133 109.163 332.393 137.004 332.393 137.004" stroke="#485F66" stroke-miterlimit="10"/>
<path d="M327.891 139.477V142.599H336.477V139.477C336.477 137.104 334.562 135.178 332.189 135.178C331.002 135.178 329.931 135.657 329.15 136.437C329.046 136.541 328.942 136.656 328.848 136.77C328.245 137.51 327.891 138.457 327.891 139.477Z" fill="#485F66"/>
<path d="M327.891 139.477V142.599H335.249V140.517C335.249 138.144 333.323 136.219 330.951 136.219C330.191 136.219 329.473 136.417 328.849 136.771C328.245 137.51 327.891 138.457 327.891 139.477Z" fill="#6D8189"/>
<path d="M164.003 160.43L162.96 160.502L162.762 158.208L161.711 161.605L162.755 161.533L162.952 163.827L164.003 160.43Z" fill="#FFC84D"/>
<path d="M182.516 149.963L181.488 151.169L178.796 148.953L181.36 153.688L182.388 152.483L185.081 154.699L182.516 149.963Z" fill="#FFC84D"/>
<path d="M178.099 161.334L176.372 162.292L174.197 158.53L175.123 165.178L176.849 164.219L179.025 167.981L178.099 161.334Z" fill="#FFC84D"/>
<path d="M322.637 148.151L321.75 147.598L322.933 145.623L320.092 147.761L320.98 148.314L319.797 150.288L322.637 148.151Z" fill="#FFC84D"/>
<path d="M343.774 150.508L342.235 150.883L341.35 147.51L340.655 152.85L342.194 152.475L343.079 155.848L343.774 150.508Z" fill="#FFC84D"/>
<path d="M333.534 157.138L331.574 156.904L332.013 152.58L328.871 158.511L330.831 158.745L330.392 163.069L333.534 157.138Z" fill="#FFC84D"/>
</g>
<defs>
<clipPath id="clip0_4944_17764">
<rect width="500" height="327" fill="white"/>
</clipPath>
</defs>
</svg>
