<svg width="500" height="383" viewBox="0 0 500 383" fill="none" xmlns="http://www.w3.org/2000/svg">
<g clip-path="url(#clip0_4949_2)">
<path d="M249.999 97.1582H276.48V85.9682H249.999V97.1582Z" stroke="#EBEBEB" stroke-width="0.75" stroke-miterlimit="10"/>
<path d="M264.771 83.0488H291.252V71.8588H264.771V83.0488Z" stroke="#EBEBEB" stroke-width="0.75" stroke-miterlimit="10"/>
<path d="M279.485 97.1582H305.966V85.9682H279.485V97.1582Z" stroke="#EBEBEB" stroke-width="0.75" stroke-miterlimit="10"/>
<path d="M56.1123 236.037H82.5933V224.847H56.1123V236.037Z" stroke="#EBEBEB" stroke-width="0.75" stroke-miterlimit="10"/>
<path d="M41.3409 221.928H67.8219V210.738H41.3409V221.928Z" stroke="#EBEBEB" stroke-width="0.75" stroke-miterlimit="10"/>
<path d="M417.407 236.037L443.888 236.037L443.888 224.847L417.407 224.847L417.407 236.037Z" stroke="#EBEBEB" stroke-width="0.75" stroke-miterlimit="10"/>
<path d="M208.821 336.54V210.877L235.552 174.395V106.059" stroke="#EBEBEB" stroke-miterlimit="10"/>
<path d="M233.177 103.725C233.177 105.037 234.24 106.1 235.552 106.1C236.864 106.1 237.927 105.037 237.927 103.725C237.927 102.413 236.864 101.35 235.552 101.35C234.24 101.35 233.177 102.414 233.177 103.725Z" stroke="#EBEBEB" stroke-miterlimit="10"/>
<path d="M215.706 336.54V215.285L242.436 178.802V131.057" stroke="#EBEBEB" stroke-miterlimit="10"/>
<path d="M240.061 128.723C240.061 130.035 241.124 131.098 242.436 131.098C243.748 131.098 244.811 130.035 244.811 128.723C244.811 127.411 243.748 126.348 242.436 126.348C241.125 126.348 240.061 127.411 240.061 128.723Z" stroke="#EBEBEB" stroke-miterlimit="10"/>
<path d="M202.188 336.54V170.13" stroke="#EBEBEB" stroke-miterlimit="10"/>
<path d="M199.813 167.755C199.813 169.067 200.876 170.13 202.188 170.13C203.5 170.13 204.563 169.067 204.563 167.755C204.563 166.443 203.5 165.38 202.188 165.38C200.877 165.38 199.813 166.443 199.813 167.755Z" stroke="#EBEBEB" stroke-miterlimit="10"/>
<path d="M195.803 336.54V251.965L177.655 217.735V156.372" stroke="#EBEBEB" stroke-miterlimit="10"/>
<path d="M175.28 153.997C175.28 155.309 176.343 156.372 177.655 156.372C178.967 156.372 180.03 155.309 180.03 153.997C180.03 152.685 178.967 151.622 177.655 151.622C176.343 151.622 175.28 152.685 175.28 153.997Z" stroke="#EBEBEB" stroke-miterlimit="10"/>
<path d="M189.454 336.539V255.621L168.059 217.78V177.365" stroke="#EBEBEB" stroke-miterlimit="10"/>
<path d="M165.684 174.99C165.684 176.302 166.747 177.365 168.059 177.365C169.371 177.365 170.434 176.302 170.434 174.99C170.434 173.678 169.371 172.615 168.059 172.615C166.748 172.615 165.684 173.678 165.684 174.99Z" stroke="#EBEBEB" stroke-miterlimit="10"/>
<path d="M183.794 375.398C242.564 375.398 290.207 367.793 290.207 358.412C290.207 349.031 242.564 341.426 183.794 341.426C125.024 341.426 77.3811 349.031 77.3811 358.412C77.3811 367.793 125.024 375.398 183.794 375.398Z" fill="#EBEBEB"/>
<path d="M332.395 91.4199H267.374V336.592H332.395V91.4199Z" fill="#37474F"/>
<path d="M452.057 91.4199H332.395V336.592H452.057V91.4199Z" fill="#455A64"/>
<path d="M444.579 304.794H341.367V328.63H444.579V304.794Z" fill="#37474F"/>
<path d="M404.462 308.73H345.712V310.742H404.462V308.73Z" fill="#455A64"/>
<path d="M404.462 312.218H345.712V314.23H404.462V312.218Z" fill="#455A64"/>
<path d="M404.462 315.705H345.712V317.717H404.462V315.705Z" fill="#455A64"/>
<path d="M404.462 319.192H345.712V321.204H404.462V319.192Z" fill="#455A64"/>
<path d="M404.462 322.681H345.712V324.693H404.462V322.681Z" fill="#455A64"/>
<path d="M415.172 310.725C415.172 311.827 414.279 312.72 413.177 312.72C412.075 312.72 411.182 311.827 411.182 310.725C411.182 309.623 412.075 308.73 413.177 308.73C414.279 308.73 415.172 309.623 415.172 310.725Z" fill="#FFC727"/>
<path d="M421.749 310.725C421.749 311.827 420.856 312.72 419.754 312.72C418.652 312.72 417.759 311.827 417.759 310.725C417.759 309.623 418.652 308.73 419.754 308.73C420.856 308.73 421.749 309.623 421.749 310.725Z" fill="#FFC727"/>
<path d="M428.327 310.725C428.327 311.827 427.434 312.72 426.332 312.72C425.23 312.72 424.337 311.827 424.337 310.725C424.337 309.623 425.23 308.73 426.332 308.73C427.434 308.73 428.327 309.623 428.327 310.725Z" fill="#FFC727"/>
<path d="M434.904 310.725C434.904 311.827 434.011 312.72 432.909 312.72C431.807 312.72 430.914 311.827 430.914 310.725C430.914 309.623 431.807 308.73 432.909 308.73C434.011 308.73 434.904 309.623 434.904 310.725Z" fill="#FFC727"/>
<path d="M441.481 310.725C441.481 311.827 440.588 312.72 439.486 312.72C438.384 312.72 437.491 311.827 437.491 310.725C437.491 309.623 438.384 308.73 439.486 308.73C440.588 308.73 441.481 309.623 441.481 310.725Z" fill="#FFC727"/>
<path d="M415.172 316.712C415.172 317.814 414.279 318.707 413.177 318.707C412.075 318.707 411.182 317.814 411.182 316.712C411.182 315.61 412.075 314.717 413.177 314.717C414.279 314.717 415.172 315.61 415.172 316.712Z" fill="#FFC727"/>
<path d="M421.749 316.712C421.749 317.814 420.856 318.707 419.754 318.707C418.652 318.707 417.759 317.814 417.759 316.712C417.759 315.61 418.652 314.717 419.754 314.717C420.856 314.716 421.749 315.61 421.749 316.712Z" fill="#FFC727"/>
<path d="M428.327 316.712C428.327 317.814 427.434 318.707 426.332 318.707C425.23 318.707 424.337 317.814 424.337 316.712C424.337 315.61 425.23 314.717 426.332 314.717C427.434 314.717 428.327 315.61 428.327 316.712Z" fill="#FFC727"/>
<path d="M434.904 316.712C434.904 317.814 434.011 318.707 432.909 318.707C431.807 318.707 430.914 317.814 430.914 316.712C430.914 315.61 431.807 314.717 432.909 314.717C434.011 314.717 434.904 315.61 434.904 316.712Z" fill="#FFC727"/>
<path d="M441.481 316.712C441.481 317.814 440.588 318.707 439.486 318.707C438.384 318.707 437.491 317.814 437.491 316.712C437.491 315.61 438.384 314.717 439.486 314.717C440.588 314.716 441.481 315.61 441.481 316.712Z" fill="#FFC727"/>
<path d="M413.177 324.691C414.279 324.691 415.172 323.798 415.172 322.696C415.172 321.594 414.279 320.701 413.177 320.701C412.075 320.701 411.182 321.594 411.182 322.696C411.182 323.798 412.075 324.691 413.177 324.691Z" fill="#FFC727"/>
<path d="M421.749 322.696C421.749 323.798 420.856 324.691 419.754 324.691C418.652 324.691 417.759 323.798 417.759 322.696C417.759 321.594 418.652 320.701 419.754 320.701C420.856 320.701 421.749 321.594 421.749 322.696Z" fill="#FFC727"/>
<path d="M426.331 324.691C427.433 324.691 428.326 323.798 428.326 322.696C428.326 321.594 427.433 320.701 426.331 320.701C425.229 320.701 424.336 321.594 424.336 322.696C424.336 323.798 425.229 324.691 426.331 324.691Z" fill="#FFC727"/>
<path d="M434.904 322.696C434.904 323.798 434.011 324.691 432.909 324.691C431.807 324.691 430.914 323.798 430.914 322.696C430.914 321.594 431.807 320.701 432.909 320.701C434.011 320.701 434.904 321.594 434.904 322.696Z" fill="#FFC727"/>
<path d="M441.481 322.696C441.481 323.798 440.588 324.691 439.486 324.691C438.384 324.691 437.491 323.798 437.491 322.696C437.491 321.594 438.384 320.701 439.486 320.701C440.588 320.701 441.481 321.594 441.481 322.696Z" fill="#FFC727"/>
<path d="M408.546 308.73H407.397V324.692H408.546V308.73Z" fill="#263238"/>
<path d="M444.579 276.066H341.367V299.902H444.579V276.066Z" fill="#37474F"/>
<path d="M404.462 280.003H345.712V282.015H404.462V280.003Z" fill="#455A64"/>
<path d="M404.462 283.491H345.712V285.503H404.462V283.491Z" fill="#455A64"/>
<path d="M404.462 286.978H345.712V288.99H404.462V286.978Z" fill="#455A64"/>
<path d="M404.462 290.466H345.712V292.478H404.462V290.466Z" fill="#455A64"/>
<path d="M404.462 293.953H345.712V295.965H404.462V293.953Z" fill="#455A64"/>
<path d="M415.172 281.998C415.172 283.1 414.279 283.993 413.177 283.993C412.075 283.993 411.182 283.1 411.182 281.998C411.182 280.896 412.075 280.003 413.177 280.003C414.279 280.003 415.172 280.896 415.172 281.998Z" fill="#FFC727"/>
<path d="M421.749 281.998C421.749 283.1 420.856 283.993 419.754 283.993C418.652 283.993 417.759 283.1 417.759 281.998C417.759 280.896 418.652 280.003 419.754 280.003C420.856 280.003 421.749 280.896 421.749 281.998Z" fill="#FFC727"/>
<path d="M428.327 281.998C428.327 283.1 427.434 283.993 426.332 283.993C425.23 283.993 424.337 283.1 424.337 281.998C424.337 280.896 425.23 280.003 426.332 280.003C427.434 280.003 428.327 280.896 428.327 281.998Z" fill="#FFC727"/>
<path d="M434.904 281.998C434.904 283.1 434.011 283.993 432.909 283.993C431.807 283.993 430.914 283.1 430.914 281.998C430.914 280.896 431.807 280.003 432.909 280.003C434.011 280.003 434.904 280.896 434.904 281.998Z" fill="#FFC727"/>
<path d="M441.481 281.998C441.481 283.1 440.588 283.993 439.486 283.993C438.384 283.993 437.491 283.1 437.491 281.998C437.491 280.896 438.384 280.003 439.486 280.003C440.588 280.003 441.481 280.896 441.481 281.998Z" fill="#FFC727"/>
<path d="M415.172 287.984C415.172 289.086 414.279 289.979 413.177 289.979C412.075 289.979 411.182 289.086 411.182 287.984C411.182 286.882 412.075 285.989 413.177 285.989C414.279 285.989 415.172 286.882 415.172 287.984Z" fill="#FFC727"/>
<path d="M421.749 287.984C421.749 289.086 420.856 289.979 419.754 289.979C418.652 289.979 417.759 289.086 417.759 287.984C417.759 286.882 418.652 285.989 419.754 285.989C420.856 285.989 421.749 286.882 421.749 287.984Z" fill="#FFC727"/>
<path d="M428.327 287.984C428.327 289.086 427.434 289.979 426.332 289.979C425.23 289.979 424.337 289.086 424.337 287.984C424.337 286.882 425.23 285.989 426.332 285.989C427.434 285.989 428.327 286.882 428.327 287.984Z" fill="#FFC727"/>
<path d="M434.904 287.984C434.904 289.086 434.011 289.979 432.909 289.979C431.807 289.979 430.914 289.086 430.914 287.984C430.914 286.882 431.807 285.989 432.909 285.989C434.011 285.989 434.904 286.882 434.904 287.984Z" fill="#FFC727"/>
<path d="M441.481 287.984C441.481 289.086 440.588 289.979 439.486 289.979C438.384 289.979 437.491 289.086 437.491 287.984C437.491 286.882 438.384 285.989 439.486 285.989C440.588 285.989 441.481 286.882 441.481 287.984Z" fill="#FFC727"/>
<path d="M415.172 293.97C415.172 295.072 414.279 295.965 413.177 295.965C412.075 295.965 411.182 295.072 411.182 293.97C411.182 292.868 412.075 291.975 413.177 291.975C414.279 291.975 415.172 292.868 415.172 293.97Z" fill="#FFC727"/>
<path d="M421.749 293.97C421.749 295.072 420.856 295.965 419.754 295.965C418.652 295.965 417.759 295.072 417.759 293.97C417.759 292.868 418.652 291.975 419.754 291.975C420.856 291.974 421.749 292.868 421.749 293.97Z" fill="#FFC727"/>
<path d="M428.327 293.97C428.327 295.072 427.434 295.965 426.332 295.965C425.23 295.965 424.337 295.072 424.337 293.97C424.337 292.868 425.23 291.975 426.332 291.975C427.434 291.975 428.327 292.868 428.327 293.97Z" fill="#FFC727"/>
<path d="M434.904 293.97C434.904 295.072 434.011 295.965 432.909 295.965C431.807 295.965 430.914 295.072 430.914 293.97C430.914 292.868 431.807 291.975 432.909 291.975C434.011 291.975 434.904 292.868 434.904 293.97Z" fill="#FFC727"/>
<path d="M441.481 293.97C441.481 295.072 440.588 295.965 439.486 295.965C438.384 295.965 437.491 295.072 437.491 293.97C437.491 292.868 438.384 291.975 439.486 291.975C440.588 291.974 441.481 292.868 441.481 293.97Z" fill="#FFC727"/>
<path d="M408.546 280.003H407.397V295.965H408.546V280.003Z" fill="#263238"/>
<path d="M444.579 247.338H341.367V271.174H444.579V247.338Z" fill="#37474F"/>
<path d="M404.462 251.274H345.712V253.286H404.462V251.274Z" fill="#455A64"/>
<path d="M404.462 254.763H345.712V256.775H404.462V254.763Z" fill="#455A64"/>
<path d="M404.462 258.249H345.712V260.261H404.462V258.249Z" fill="#455A64"/>
<path d="M404.462 261.737H345.712V263.749H404.462V261.737Z" fill="#455A64"/>
<path d="M404.462 265.225H345.712V267.237H404.462V265.225Z" fill="#455A64"/>
<path d="M413.177 255.265C414.279 255.265 415.172 254.372 415.172 253.27C415.172 252.169 414.279 251.275 413.177 251.275C412.075 251.275 411.182 252.169 411.182 253.27C411.182 254.372 412.075 255.265 413.177 255.265Z" fill="#FFC727"/>
<path d="M421.749 253.27C421.749 254.372 420.856 255.265 419.754 255.265C418.652 255.265 417.759 254.372 417.759 253.27C417.759 252.168 418.652 251.275 419.754 251.275C420.856 251.274 421.749 252.168 421.749 253.27Z" fill="#FFC727"/>
<path d="M426.331 255.265C427.433 255.265 428.326 254.372 428.326 253.27C428.326 252.169 427.433 251.275 426.331 251.275C425.229 251.275 424.336 252.169 424.336 253.27C424.336 254.372 425.229 255.265 426.331 255.265Z" fill="#FFC727"/>
<path d="M434.904 253.27C434.904 254.372 434.011 255.265 432.909 255.265C431.807 255.265 430.914 254.372 430.914 253.27C430.914 252.168 431.807 251.275 432.909 251.275C434.011 251.275 434.904 252.168 434.904 253.27Z" fill="#FFC727"/>
<path d="M441.481 253.27C441.481 254.372 440.588 255.265 439.486 255.265C438.384 255.265 437.491 254.372 437.491 253.27C437.491 252.168 438.384 251.275 439.486 251.275C440.588 251.274 441.481 252.168 441.481 253.27Z" fill="#FFC727"/>
<path d="M415.172 259.256C415.172 260.358 414.279 261.251 413.177 261.251C412.075 261.251 411.182 260.358 411.182 259.256C411.182 258.154 412.075 257.261 413.177 257.261C414.279 257.261 415.172 258.154 415.172 259.256Z" fill="#FFC727"/>
<path d="M421.749 259.256C421.749 260.358 420.856 261.251 419.754 261.251C418.652 261.251 417.759 260.358 417.759 259.256C417.759 258.154 418.652 257.261 419.754 257.261C420.856 257.261 421.749 258.154 421.749 259.256Z" fill="#FFC727"/>
<path d="M428.327 259.256C428.327 260.358 427.434 261.251 426.332 261.251C425.23 261.251 424.337 260.358 424.337 259.256C424.337 258.154 425.23 257.261 426.332 257.261C427.434 257.261 428.327 258.154 428.327 259.256Z" fill="#FFC727"/>
<path d="M434.904 259.256C434.904 260.358 434.011 261.251 432.909 261.251C431.807 261.251 430.914 260.358 430.914 259.256C430.914 258.154 431.807 257.261 432.909 257.261C434.011 257.261 434.904 258.154 434.904 259.256Z" fill="#FFC727"/>
<path d="M441.481 259.256C441.481 260.358 440.588 261.251 439.486 261.251C438.384 261.251 437.491 260.358 437.491 259.256C437.491 258.154 438.384 257.261 439.486 257.261C440.588 257.261 441.481 258.154 441.481 259.256Z" fill="#FFC727"/>
<path d="M415.172 265.241C415.172 266.343 414.279 267.236 413.177 267.236C412.075 267.236 411.182 266.343 411.182 265.241C411.182 264.139 412.075 263.246 413.177 263.246C414.279 263.246 415.172 264.139 415.172 265.241Z" fill="#FFC727"/>
<path d="M421.749 265.241C421.749 266.343 420.856 267.236 419.754 267.236C418.652 267.236 417.759 266.343 417.759 265.241C417.759 264.139 418.652 263.246 419.754 263.246C420.856 263.245 421.749 264.139 421.749 265.241Z" fill="#FFC727"/>
<path d="M428.327 265.241C428.327 266.343 427.434 267.236 426.332 267.236C425.23 267.236 424.337 266.343 424.337 265.241C424.337 264.139 425.23 263.246 426.332 263.246C427.434 263.246 428.327 264.139 428.327 265.241Z" fill="#FFC727"/>
<path d="M434.904 265.241C434.904 266.343 434.011 267.236 432.909 267.236C431.807 267.236 430.914 266.343 430.914 265.241C430.914 264.139 431.807 263.246 432.909 263.246C434.011 263.246 434.904 264.139 434.904 265.241Z" fill="#FFC727"/>
<path d="M441.481 265.241C441.481 266.343 440.588 267.236 439.486 267.236C438.384 267.236 437.491 266.343 437.491 265.241C437.491 264.139 438.384 263.246 439.486 263.246C440.588 263.245 441.481 264.139 441.481 265.241Z" fill="#FFC727"/>
<path d="M408.546 251.274H407.397V267.236H408.546V251.274Z" fill="#263238"/>
<path d="M444.579 218.61H341.367V242.446H444.579V218.61Z" fill="#37474F"/>
<path d="M404.462 222.549H345.712V224.561H404.462V222.549Z" fill="#455A64"/>
<path d="M404.462 226.036H345.712V228.048H404.462V226.036Z" fill="#455A64"/>
<path d="M404.462 229.523H345.712V231.535H404.462V229.523Z" fill="#455A64"/>
<path d="M404.462 233.011H345.712V235.023H404.462V233.011Z" fill="#455A64"/>
<path d="M404.462 236.498H345.712V238.51H404.462V236.498Z" fill="#455A64"/>
<path d="M415.172 224.544C415.172 225.646 414.279 226.539 413.177 226.539C412.075 226.539 411.182 225.646 411.182 224.544C411.182 223.442 412.075 222.549 413.177 222.549C414.279 222.549 415.172 223.442 415.172 224.544Z" fill="#FFC727"/>
<path d="M421.749 224.544C421.749 225.646 420.856 226.539 419.754 226.539C418.652 226.539 417.759 225.646 417.759 224.544C417.759 223.442 418.652 222.549 419.754 222.549C420.856 222.549 421.749 223.442 421.749 224.544Z" fill="#FFC727"/>
<path d="M428.327 224.544C428.327 225.646 427.434 226.539 426.332 226.539C425.23 226.539 424.337 225.646 424.337 224.544C424.337 223.442 425.23 222.549 426.332 222.549C427.434 222.549 428.327 223.442 428.327 224.544Z" fill="#FFC727"/>
<path d="M434.904 224.544C434.904 225.646 434.011 226.539 432.909 226.539C431.807 226.539 430.914 225.646 430.914 224.544C430.914 223.442 431.807 222.549 432.909 222.549C434.011 222.549 434.904 223.442 434.904 224.544Z" fill="#FFC727"/>
<path d="M441.481 224.544C441.481 225.646 440.588 226.539 439.486 226.539C438.384 226.539 437.491 225.646 437.491 224.544C437.491 223.442 438.384 222.549 439.486 222.549C440.588 222.549 441.481 223.442 441.481 224.544Z" fill="#FFC727"/>
<path d="M413.177 232.524C414.279 232.524 415.172 231.631 415.172 230.529C415.172 229.427 414.279 228.534 413.177 228.534C412.075 228.534 411.182 229.427 411.182 230.529C411.182 231.631 412.075 232.524 413.177 232.524Z" fill="#FFC727"/>
<path d="M421.749 230.529C421.749 231.631 420.856 232.524 419.754 232.524C418.652 232.524 417.759 231.631 417.759 230.529C417.759 229.427 418.652 228.534 419.754 228.534C420.856 228.534 421.749 229.428 421.749 230.529Z" fill="#FFC727"/>
<path d="M426.331 232.524C427.433 232.524 428.326 231.631 428.326 230.529C428.326 229.427 427.433 228.534 426.331 228.534C425.229 228.534 424.336 229.427 424.336 230.529C424.336 231.631 425.229 232.524 426.331 232.524Z" fill="#FFC727"/>
<path d="M434.904 230.529C434.904 231.631 434.011 232.524 432.909 232.524C431.807 232.524 430.914 231.631 430.914 230.529C430.914 229.427 431.807 228.534 432.909 228.534C434.011 228.534 434.904 229.428 434.904 230.529Z" fill="#FFC727"/>
<path d="M441.481 230.529C441.481 231.631 440.588 232.524 439.486 232.524C438.384 232.524 437.491 231.631 437.491 230.529C437.491 229.427 438.384 228.534 439.486 228.534C440.588 228.534 441.481 229.428 441.481 230.529Z" fill="#FFC727"/>
<path d="M413.177 238.51C414.279 238.51 415.172 237.616 415.172 236.515C415.172 235.413 414.279 234.52 413.177 234.52C412.075 234.52 411.182 235.413 411.182 236.515C411.182 237.616 412.075 238.51 413.177 238.51Z" fill="#FFC727"/>
<path d="M421.749 236.515C421.749 237.617 420.856 238.51 419.754 238.51C418.652 238.51 417.759 237.617 417.759 236.515C417.759 235.413 418.652 234.52 419.754 234.52C420.856 234.52 421.749 235.413 421.749 236.515Z" fill="#FFC727"/>
<path d="M426.331 238.51C427.433 238.51 428.326 237.616 428.326 236.515C428.326 235.413 427.433 234.52 426.331 234.52C425.229 234.52 424.336 235.413 424.336 236.515C424.336 237.616 425.229 238.51 426.331 238.51Z" fill="#FFC727"/>
<path d="M434.904 236.515C434.904 237.617 434.011 238.51 432.909 238.51C431.807 238.51 430.914 237.617 430.914 236.515C430.914 235.413 431.807 234.52 432.909 234.52C434.011 234.52 434.904 235.413 434.904 236.515Z" fill="#FFC727"/>
<path d="M441.481 236.515C441.481 237.617 440.588 238.51 439.486 238.51C438.384 238.51 437.491 237.617 437.491 236.515C437.491 235.413 438.384 234.52 439.486 234.52C440.588 234.52 441.481 235.413 441.481 236.515Z" fill="#FFC727"/>
<path d="M408.546 222.549H407.397V238.511H408.546V222.549Z" fill="#263238"/>
<path d="M444.579 189.884H341.367V213.72H444.579V189.884Z" fill="#37474F"/>
<path d="M404.462 193.82H345.712V195.832H404.462V193.82Z" fill="#455A64"/>
<path d="M404.462 197.308H345.712V199.32H404.462V197.308Z" fill="#455A64"/>
<path d="M404.462 200.795H345.712V202.807H404.462V200.795Z" fill="#455A64"/>
<path d="M404.462 204.282H345.712V206.294H404.462V204.282Z" fill="#455A64"/>
<path d="M404.462 207.771H345.712V209.783H404.462V207.771Z" fill="#455A64"/>
<path d="M413.177 197.81C414.279 197.81 415.172 196.917 415.172 195.815C415.172 194.713 414.279 193.82 413.177 193.82C412.075 193.82 411.182 194.713 411.182 195.815C411.182 196.917 412.075 197.81 413.177 197.81Z" fill="#FFC727"/>
<path d="M421.749 195.815C421.749 196.917 420.856 197.81 419.754 197.81C418.652 197.81 417.759 196.917 417.759 195.815C417.759 194.713 418.652 193.82 419.754 193.82C420.856 193.82 421.749 194.713 421.749 195.815Z" fill="#FFC727"/>
<path d="M426.331 197.81C427.433 197.81 428.326 196.917 428.326 195.815C428.326 194.713 427.433 193.82 426.331 193.82C425.229 193.82 424.336 194.713 424.336 195.815C424.336 196.917 425.229 197.81 426.331 197.81Z" fill="#FFC727"/>
<path d="M434.904 195.815C434.904 196.917 434.011 197.81 432.909 197.81C431.807 197.81 430.914 196.917 430.914 195.815C430.914 194.713 431.807 193.82 432.909 193.82C434.011 193.82 434.904 194.713 434.904 195.815Z" fill="#FFC727"/>
<path d="M441.481 195.815C441.481 196.917 440.588 197.81 439.486 197.81C438.384 197.81 437.491 196.917 437.491 195.815C437.491 194.713 438.384 193.82 439.486 193.82C440.588 193.82 441.481 194.713 441.481 195.815Z" fill="#FFC727"/>
<path d="M413.177 203.797C414.279 203.797 415.172 202.903 415.172 201.802C415.172 200.7 414.279 199.807 413.177 199.807C412.075 199.807 411.182 200.7 411.182 201.802C411.182 202.903 412.075 203.797 413.177 203.797Z" fill="#FFC727"/>
<path d="M421.749 201.802C421.749 202.904 420.856 203.797 419.754 203.797C418.652 203.797 417.759 202.904 417.759 201.802C417.759 200.7 418.652 199.807 419.754 199.807C420.856 199.806 421.749 200.7 421.749 201.802Z" fill="#FFC727"/>
<path d="M426.331 203.797C427.433 203.797 428.326 202.903 428.326 201.802C428.326 200.7 427.433 199.807 426.331 199.807C425.229 199.807 424.336 200.7 424.336 201.802C424.336 202.903 425.229 203.797 426.331 203.797Z" fill="#FFC727"/>
<path d="M434.904 201.802C434.904 202.904 434.011 203.797 432.909 203.797C431.807 203.797 430.914 202.904 430.914 201.802C430.914 200.7 431.807 199.807 432.909 199.807C434.011 199.807 434.904 200.7 434.904 201.802Z" fill="#FFC727"/>
<path d="M441.481 201.802C441.481 202.904 440.588 203.797 439.486 203.797C438.384 203.797 437.491 202.904 437.491 201.802C437.491 200.7 438.384 199.807 439.486 199.807C440.588 199.806 441.481 200.7 441.481 201.802Z" fill="#FFC727"/>
<path d="M415.172 207.786C415.172 208.888 414.279 209.781 413.177 209.781C412.075 209.781 411.182 208.888 411.182 207.786C411.182 206.684 412.075 205.791 413.177 205.791C414.279 205.791 415.172 206.684 415.172 207.786Z" fill="#FFC727"/>
<path d="M421.749 207.786C421.749 208.888 420.856 209.781 419.754 209.781C418.652 209.781 417.759 208.888 417.759 207.786C417.759 206.684 418.652 205.791 419.754 205.791C420.856 205.791 421.749 206.684 421.749 207.786Z" fill="#FFC727"/>
<path d="M428.327 207.786C428.327 208.888 427.434 209.781 426.332 209.781C425.23 209.781 424.337 208.888 424.337 207.786C424.337 206.684 425.23 205.791 426.332 205.791C427.434 205.791 428.327 206.684 428.327 207.786Z" fill="#FFC727"/>
<path d="M434.904 207.786C434.904 208.888 434.011 209.781 432.909 209.781C431.807 209.781 430.914 208.888 430.914 207.786C430.914 206.684 431.807 205.791 432.909 205.791C434.011 205.791 434.904 206.684 434.904 207.786Z" fill="#FFC727"/>
<path d="M441.481 207.786C441.481 208.888 440.588 209.781 439.486 209.781C438.384 209.781 437.491 208.888 437.491 207.786C437.491 206.684 438.384 205.791 439.486 205.791C440.588 205.791 441.481 206.684 441.481 207.786Z" fill="#FFC727"/>
<path d="M408.546 193.82H407.397V209.782H408.546V193.82Z" fill="#263238"/>
<path d="M444.579 161.155H341.367V184.991H444.579V161.155Z" fill="#37474F"/>
<path d="M404.462 165.092H345.712V167.104H404.462V165.092Z" fill="#455A64"/>
<path d="M404.462 168.579H345.712V170.591H404.462V168.579Z" fill="#455A64"/>
<path d="M404.462 172.066H345.712V174.078H404.462V172.066Z" fill="#455A64"/>
<path d="M404.462 175.554H345.712V177.566H404.462V175.554Z" fill="#455A64"/>
<path d="M404.462 179.042H345.712V181.054H404.462V179.042Z" fill="#455A64"/>
<path d="M415.172 167.087C415.172 168.189 414.279 169.082 413.177 169.082C412.075 169.082 411.182 168.189 411.182 167.087C411.182 165.985 412.075 165.092 413.177 165.092C414.279 165.092 415.172 165.985 415.172 167.087Z" fill="#FFC727"/>
<path d="M421.749 167.087C421.749 168.189 420.856 169.082 419.754 169.082C418.652 169.082 417.759 168.189 417.759 167.087C417.759 165.985 418.652 165.092 419.754 165.092C420.856 165.092 421.749 165.985 421.749 167.087Z" fill="#FFC727"/>
<path d="M428.327 167.087C428.327 168.189 427.434 169.082 426.332 169.082C425.23 169.082 424.337 168.189 424.337 167.087C424.337 165.985 425.23 165.092 426.332 165.092C427.434 165.092 428.327 165.985 428.327 167.087Z" fill="#FFC727"/>
<path d="M434.904 167.087C434.904 168.189 434.011 169.082 432.909 169.082C431.807 169.082 430.914 168.189 430.914 167.087C430.914 165.985 431.807 165.092 432.909 165.092C434.011 165.092 434.904 165.985 434.904 167.087Z" fill="#FFC727"/>
<path d="M441.481 167.087C441.481 168.189 440.588 169.082 439.486 169.082C438.384 169.082 437.491 168.189 437.491 167.087C437.491 165.985 438.384 165.092 439.486 165.092C440.588 165.092 441.481 165.985 441.481 167.087Z" fill="#FFC727"/>
<path d="M415.172 173.073C415.172 174.175 414.279 175.068 413.177 175.068C412.075 175.068 411.182 174.175 411.182 173.073C411.182 171.971 412.075 171.078 413.177 171.078C414.279 171.078 415.172 171.971 415.172 173.073Z" fill="#FFC727"/>
<path d="M421.749 173.073C421.749 174.175 420.856 175.068 419.754 175.068C418.652 175.068 417.759 174.175 417.759 173.073C417.759 171.971 418.652 171.078 419.754 171.078C420.856 171.078 421.749 171.971 421.749 173.073Z" fill="#FFC727"/>
<path d="M428.327 173.073C428.327 174.175 427.434 175.068 426.332 175.068C425.23 175.068 424.337 174.175 424.337 173.073C424.337 171.971 425.23 171.078 426.332 171.078C427.434 171.078 428.327 171.971 428.327 173.073Z" fill="#FFC727"/>
<path d="M434.904 173.073C434.904 174.175 434.011 175.068 432.909 175.068C431.807 175.068 430.914 174.175 430.914 173.073C430.914 171.971 431.807 171.078 432.909 171.078C434.011 171.078 434.904 171.971 434.904 173.073Z" fill="#FFC727"/>
<path d="M441.481 173.073C441.481 174.175 440.588 175.068 439.486 175.068C438.384 175.068 437.491 174.175 437.491 173.073C437.491 171.971 438.384 171.078 439.486 171.078C440.588 171.078 441.481 171.971 441.481 173.073Z" fill="#FFC727"/>
<path d="M415.172 179.058C415.172 180.16 414.279 181.053 413.177 181.053C412.075 181.053 411.182 180.16 411.182 179.058C411.182 177.956 412.075 177.062 413.177 177.062C414.279 177.062 415.172 177.957 415.172 179.058Z" fill="#FFC727"/>
<path d="M421.749 179.058C421.749 180.16 420.856 181.053 419.754 181.053C418.652 181.053 417.759 180.16 417.759 179.058C417.759 177.956 418.652 177.062 419.754 177.062C420.856 177.062 421.749 177.957 421.749 179.058Z" fill="#FFC727"/>
<path d="M428.327 179.058C428.327 180.16 427.434 181.053 426.332 181.053C425.23 181.053 424.337 180.16 424.337 179.058C424.337 177.956 425.23 177.062 426.332 177.062C427.434 177.062 428.327 177.957 428.327 179.058Z" fill="#FFC727"/>
<path d="M434.904 179.058C434.904 180.16 434.011 181.053 432.909 181.053C431.807 181.053 430.914 180.16 430.914 179.058C430.914 177.956 431.807 177.062 432.909 177.062C434.011 177.062 434.904 177.957 434.904 179.058Z" fill="#FFC727"/>
<path d="M441.481 179.058C441.481 180.16 440.588 181.053 439.486 181.053C438.384 181.053 437.491 180.16 437.491 179.058C437.491 177.956 438.384 177.062 439.486 177.062C440.588 177.062 441.481 177.957 441.481 179.058Z" fill="#FFC727"/>
<path d="M408.546 165.092H407.397V181.054H408.546V165.092Z" fill="#263238"/>
<path d="M444.579 132.428H341.367V156.264H444.579V132.428Z" fill="#37474F"/>
<path d="M404.462 136.364H345.712V138.376H404.462V136.364Z" fill="#455A64"/>
<path d="M404.462 139.853H345.712V141.865H404.462V139.853Z" fill="#455A64"/>
<path d="M404.462 143.339H345.712V145.351H404.462V143.339Z" fill="#455A64"/>
<path d="M404.462 146.827H345.712V148.839H404.462V146.827Z" fill="#455A64"/>
<path d="M404.462 150.314H345.712V152.326H404.462V150.314Z" fill="#455A64"/>
<path d="M415.172 138.359C415.172 139.461 414.279 140.354 413.177 140.354C412.075 140.354 411.182 139.461 411.182 138.359C411.182 137.257 412.075 136.364 413.177 136.364C414.279 136.364 415.172 137.258 415.172 138.359Z" fill="#FFC727"/>
<path d="M421.749 138.359C421.749 139.461 420.856 140.354 419.754 140.354C418.652 140.354 417.759 139.461 417.759 138.359C417.759 137.257 418.652 136.364 419.754 136.364C420.856 136.364 421.749 137.258 421.749 138.359Z" fill="#FFC727"/>
<path d="M428.327 138.359C428.327 139.461 427.434 140.354 426.332 140.354C425.23 140.354 424.337 139.461 424.337 138.359C424.337 137.257 425.23 136.364 426.332 136.364C427.434 136.364 428.327 137.258 428.327 138.359Z" fill="#FFC727"/>
<path d="M434.904 138.359C434.904 139.461 434.011 140.354 432.909 140.354C431.807 140.354 430.914 139.461 430.914 138.359C430.914 137.257 431.807 136.364 432.909 136.364C434.011 136.364 434.904 137.258 434.904 138.359Z" fill="#FFC727"/>
<path d="M441.481 138.359C441.481 139.461 440.588 140.354 439.486 140.354C438.384 140.354 437.491 139.461 437.491 138.359C437.491 137.257 438.384 136.364 439.486 136.364C440.588 136.364 441.481 137.258 441.481 138.359Z" fill="#FFC727"/>
<path d="M415.172 144.346C415.172 145.448 414.279 146.341 413.177 146.341C412.075 146.341 411.182 145.448 411.182 144.346C411.182 143.244 412.075 142.351 413.177 142.351C414.279 142.351 415.172 143.244 415.172 144.346Z" fill="#FFC727"/>
<path d="M421.749 144.346C421.749 145.448 420.856 146.341 419.754 146.341C418.652 146.341 417.759 145.448 417.759 144.346C417.759 143.244 418.652 142.351 419.754 142.351C420.856 142.351 421.749 143.244 421.749 144.346Z" fill="#FFC727"/>
<path d="M428.327 144.346C428.327 145.448 427.434 146.341 426.332 146.341C425.23 146.341 424.337 145.448 424.337 144.346C424.337 143.244 425.23 142.351 426.332 142.351C427.434 142.351 428.327 143.244 428.327 144.346Z" fill="#FFC727"/>
<path d="M434.904 144.346C434.904 145.448 434.011 146.341 432.909 146.341C431.807 146.341 430.914 145.448 430.914 144.346C430.914 143.244 431.807 142.351 432.909 142.351C434.011 142.351 434.904 143.244 434.904 144.346Z" fill="#FFC727"/>
<path d="M441.481 144.346C441.481 145.448 440.588 146.341 439.486 146.341C438.384 146.341 437.491 145.448 437.491 144.346C437.491 143.244 438.384 142.351 439.486 142.351C440.588 142.351 441.481 143.244 441.481 144.346Z" fill="#FFC727"/>
<path d="M415.172 150.331C415.172 151.433 414.279 152.326 413.177 152.326C412.075 152.326 411.182 151.433 411.182 150.331C411.182 149.229 412.075 148.336 413.177 148.336C414.279 148.336 415.172 149.229 415.172 150.331Z" fill="#FFC727"/>
<path d="M421.749 150.331C421.749 151.433 420.856 152.326 419.754 152.326C418.652 152.326 417.759 151.433 417.759 150.331C417.759 149.229 418.652 148.336 419.754 148.336C420.856 148.335 421.749 149.229 421.749 150.331Z" fill="#FFC727"/>
<path d="M428.327 150.331C428.327 151.433 427.434 152.326 426.332 152.326C425.23 152.326 424.337 151.433 424.337 150.331C424.337 149.229 425.23 148.336 426.332 148.336C427.434 148.336 428.327 149.229 428.327 150.331Z" fill="#FFC727"/>
<path d="M434.904 150.331C434.904 151.433 434.011 152.326 432.909 152.326C431.807 152.326 430.914 151.433 430.914 150.331C430.914 149.229 431.807 148.336 432.909 148.336C434.011 148.336 434.904 149.229 434.904 150.331Z" fill="#FFC727"/>
<path d="M441.481 150.331C441.481 151.433 440.588 152.326 439.486 152.326C438.384 152.326 437.491 151.433 437.491 150.331C437.491 149.229 438.384 148.336 439.486 148.336C440.588 148.335 441.481 149.229 441.481 150.331Z" fill="#FFC727"/>
<path d="M408.546 136.364H407.397V152.326H408.546V136.364Z" fill="#263238"/>
<path d="M444.579 103.699H341.367V127.535H444.579V103.699Z" fill="#37474F"/>
<path d="M404.462 107.637H345.712V109.649H404.462V107.637Z" fill="#455A64"/>
<path d="M404.462 111.124H345.712V113.136H404.462V111.124Z" fill="#455A64"/>
<path d="M404.462 114.61H345.712V116.622H404.462V114.61Z" fill="#455A64"/>
<path d="M404.462 118.099H345.712V120.111H404.462V118.099Z" fill="#455A64"/>
<path d="M404.462 121.586H345.712V123.598H404.462V121.586Z" fill="#455A64"/>
<path d="M415.172 109.632C415.172 110.734 414.279 111.627 413.177 111.627C412.075 111.627 411.182 110.734 411.182 109.632C411.182 108.53 412.075 107.637 413.177 107.637C414.279 107.637 415.172 108.53 415.172 109.632Z" fill="#FFC727"/>
<path d="M421.749 109.632C421.749 110.734 420.856 111.627 419.754 111.627C418.652 111.627 417.759 110.734 417.759 109.632C417.759 108.53 418.652 107.637 419.754 107.637C420.856 107.637 421.749 108.53 421.749 109.632Z" fill="#FFC727"/>
<path d="M428.327 109.632C428.327 110.734 427.434 111.627 426.332 111.627C425.23 111.627 424.337 110.734 424.337 109.632C424.337 108.53 425.23 107.637 426.332 107.637C427.434 107.637 428.327 108.53 428.327 109.632Z" fill="#FFC727"/>
<path d="M434.904 109.632C434.904 110.734 434.011 111.627 432.909 111.627C431.807 111.627 430.914 110.734 430.914 109.632C430.914 108.53 431.807 107.637 432.909 107.637C434.011 107.637 434.904 108.53 434.904 109.632Z" fill="#FFC727"/>
<path d="M441.481 109.632C441.481 110.734 440.588 111.627 439.486 111.627C438.384 111.627 437.491 110.734 437.491 109.632C437.491 108.53 438.384 107.637 439.486 107.637C440.588 107.637 441.481 108.53 441.481 109.632Z" fill="#FFC727"/>
<path d="M413.177 117.612C414.279 117.612 415.172 116.719 415.172 115.617C415.172 114.515 414.279 113.622 413.177 113.622C412.075 113.622 411.182 114.515 411.182 115.617C411.182 116.719 412.075 117.612 413.177 117.612Z" fill="#FFC727"/>
<path d="M421.749 115.617C421.749 116.719 420.856 117.612 419.754 117.612C418.652 117.612 417.759 116.719 417.759 115.617C417.759 114.515 418.652 113.622 419.754 113.622C420.856 113.622 421.749 114.515 421.749 115.617Z" fill="#FFC727"/>
<path d="M426.331 117.612C427.433 117.612 428.326 116.719 428.326 115.617C428.326 114.515 427.433 113.622 426.331 113.622C425.229 113.622 424.336 114.515 424.336 115.617C424.336 116.719 425.229 117.612 426.331 117.612Z" fill="#FFC727"/>
<path d="M434.904 115.617C434.904 116.719 434.011 117.612 432.909 117.612C431.807 117.612 430.914 116.719 430.914 115.617C430.914 114.515 431.807 113.622 432.909 113.622C434.011 113.622 434.904 114.515 434.904 115.617Z" fill="#FFC727"/>
<path d="M441.481 115.617C441.481 116.719 440.588 117.612 439.486 117.612C438.384 117.612 437.491 116.719 437.491 115.617C437.491 114.515 438.384 113.622 439.486 113.622C440.588 113.622 441.481 114.515 441.481 115.617Z" fill="#FFC727"/>
<path d="M415.172 121.602C415.172 122.704 414.279 123.597 413.177 123.597C412.075 123.597 411.182 122.704 411.182 121.602C411.182 120.5 412.075 119.607 413.177 119.607C414.279 119.607 415.172 120.5 415.172 121.602Z" fill="#FFC727"/>
<path d="M421.749 121.602C421.749 122.704 420.856 123.597 419.754 123.597C418.652 123.597 417.759 122.704 417.759 121.602C417.759 120.5 418.652 119.607 419.754 119.607C420.856 119.607 421.749 120.5 421.749 121.602Z" fill="#FFC727"/>
<path d="M428.327 121.602C428.327 122.704 427.434 123.597 426.332 123.597C425.23 123.597 424.337 122.704 424.337 121.602C424.337 120.5 425.23 119.607 426.332 119.607C427.434 119.607 428.327 120.5 428.327 121.602Z" fill="#FFC727"/>
<path d="M434.904 121.602C434.904 122.704 434.011 123.597 432.909 123.597C431.807 123.597 430.914 122.704 430.914 121.602C430.914 120.5 431.807 119.607 432.909 119.607C434.011 119.607 434.904 120.5 434.904 121.602Z" fill="#FFC727"/>
<path d="M441.481 121.602C441.481 122.704 440.588 123.597 439.486 123.597C438.384 123.597 437.491 122.704 437.491 121.602C437.491 120.5 438.384 119.607 439.486 119.607C440.588 119.607 441.481 120.5 441.481 121.602Z" fill="#FFC727"/>
<path d="M408.546 107.637H407.397V123.599H408.546V107.637Z" fill="#263238"/>
<path d="M427.741 83.8613H291.69V91.4203H427.741V83.8613Z" fill="#37474F"/>
<path d="M293.055 299.068H277.862V314.261H293.055V299.068Z" fill="#263238"/>
<path d="M70.013 268.737H43.458V295.292H70.013V268.737Z" fill="#37474F"/>
<path d="M56.735 290.886C61.6338 290.886 65.605 286.914 65.605 282.016C65.605 277.117 61.6338 273.146 56.735 273.146C51.8362 273.146 47.865 277.117 47.865 282.016C47.865 286.914 51.8362 290.886 56.735 290.886Z" fill="#455A64"/>
<path d="M55.1121 278.433H53.1171V285.749H55.1121V278.433Z" fill="#263238"/>
<path d="M60.671 278.433H58.676V285.749H60.671V278.433Z" fill="#263238"/>
<path d="M36.8521 336.592L90.139 336.349L143.426 336.261L250 336.093L356.574 336.26L409.861 336.348L463.147 336.592L409.861 336.837L356.574 336.925L250 337.091L143.426 336.924L90.139 336.835L36.8521 336.592Z" fill="#263238"/>
<path d="M128.085 311.524C129.052 313.639 125.238 328.83 124.041 331.947C122.844 335.064 118.652 352.478 116.61 353.23C114.568 353.983 104.679 353.767 103.281 353.23C101.884 352.692 103.281 349.721 104.893 348.681C106.505 347.641 108.426 346.045 108.426 346.045C108.426 346.045 105.538 319.156 106.076 316.146C106.613 313.136 125.479 305.827 128.085 311.524Z" fill="#FFC727"/>
<path opacity="0.1" d="M128.085 311.524C129.052 313.639 125.238 328.83 124.041 331.947C122.844 335.064 118.652 352.478 116.61 353.23C114.568 353.983 104.679 353.767 103.281 353.23C101.884 352.692 103.281 349.721 104.893 348.681C106.505 347.641 108.426 346.045 108.426 346.045C108.426 346.045 105.538 319.156 106.076 316.146C106.613 313.136 125.479 305.827 128.085 311.524Z" fill="black"/>
<path opacity="0.1" d="M107.4 352.059C107.509 351.534 107.728 351.007 108.046 350.572C108.367 350.132 108.749 349.745 109.185 349.418C109.59 349.114 110.097 348.823 110.602 348.73C110.668 348.718 110.72 348.798 110.667 348.848C110.491 349.013 110.291 349.15 110.117 349.323C109.942 349.497 109.763 349.669 109.596 349.85C109.269 350.201 108.993 350.594 108.75 351.007C108.505 351.424 108.268 351.843 108.056 352.278C107.842 352.718 107.717 353.191 107.549 353.648C107.516 353.738 107.378 353.745 107.354 353.643C107.229 353.121 107.292 352.578 107.4 352.059Z" fill="black"/>
<path opacity="0.1" d="M104.508 350.474C105.029 349.504 105.937 348.812 106.923 348.367C106.985 348.339 107.055 348.418 106.997 348.468C106.268 349.101 105.549 349.778 105.082 350.635C104.618 351.487 104.376 352.547 104.701 353.487C104.716 353.531 104.654 353.547 104.631 353.514C104.004 352.618 103.997 351.428 104.508 350.474Z" fill="black"/>
<path opacity="0.1" d="M106.938 330.97L120.528 343.83C122.028 338.9 123.428 333.54 124.038 331.95C125.238 328.83 129.048 313.64 128.088 311.52C125.478 305.83 106.608 313.14 106.078 316.15C105.828 317.57 106.328 324.27 106.938 330.97Z" fill="black"/>
<path d="M179.406 326.722C179.958 327.244 185.305 322.183 186.127 319.812C186.949 317.441 183.525 310.75 184.159 309.613C184.792 308.476 187.707 307.56 189.218 309.311C190.728 311.062 194.605 320.654 193.797 324.754C192.989 328.854 184.737 338.016 183.875 337.969C183.013 337.922 179.406 326.722 179.406 326.722Z" fill="#FFC727"/>
<path opacity="0.1" d="M179.407 326.723C179.407 326.723 183.015 337.919 183.872 337.968C184.503 338 189.082 333.114 191.816 328.883L184.325 322.565C182.441 324.798 179.787 327.079 179.407 326.723Z" fill="black"/>
<path d="M149.189 280.46H104.786C104.786 280.46 101.49 309.697 101.848 313.567C102.206 317.437 121.722 346.109 127.774 349.808C133.915 353.562 168.603 353.688 177.064 351.826C183.642 350.379 189.134 341.982 186.402 329.045C185.208 323.391 169.795 309.912 167.645 307.332C165.495 304.753 149.189 280.46 149.189 280.46Z" fill="#C7C7C7"/>
<path d="M101.848 313.571C102.208 317.441 121.718 346.111 127.778 349.811C133.918 353.561 168.598 353.691 177.068 351.831C183.638 350.381 189.138 341.981 186.398 329.041C185.208 323.391 169.798 309.911 167.648 307.331C166.328 305.751 159.708 296.031 154.768 288.731C151.638 284.111 149.188 280.461 149.188 280.461H104.788C104.788 280.461 103.958 287.801 103.178 295.611C102.398 303.391 101.668 311.641 101.848 313.571Z" fill="#FFC727"/>
<path opacity="0.1" d="M103.178 295.611C127.038 302.971 148.258 292.501 154.768 288.731C151.638 284.111 149.188 280.461 149.188 280.461H104.788C104.788 280.461 103.958 287.801 103.178 295.611Z" fill="black"/>
<path d="M177.91 327.635C177.91 327.635 165.686 319.968 157.118 321.353C148.549 322.739 145.525 340.336 149.63 350.238C149.63 350.238 141.811 352.56 141.811 356.338C141.811 358.489 146.277 359.175 152.724 359.023C159.172 358.871 171.981 358.741 172.265 357.121C172.549 355.501 171.421 353.27 171.421 353.27C171.421 353.27 182.987 351.966 185.257 344.305C187.527 336.644 179.839 328.934 177.91 327.635Z" fill="#FFC727"/>
<path opacity="0.1" d="M161.224 351.106C164.462 352.498 168.003 353.167 171.509 353.392C171.576 353.396 171.597 353.508 171.523 353.517C167.891 353.929 164.337 353.014 161.185 351.192C161.14 351.166 161.174 351.084 161.224 351.106Z" fill="black"/>
<path opacity="0.1" d="M146.839 359.069C147.16 357.606 148.302 356.451 149.5 355.627C150.195 355.149 150.961 354.763 151.76 354.49C152.675 354.177 153.625 354.01 154.545 353.721C154.621 353.697 154.675 353.81 154.598 353.836C153.804 354.102 153.036 354.507 152.297 354.896C151.555 355.287 150.827 355.712 150.133 356.183C148.934 356.998 148.023 358.05 147.142 359.184C147.048 359.305 146.801 359.244 146.839 359.069Z" fill="black"/>
<path opacity="0.1" d="M148.422 353.002C148.503 352.99 148.529 353.097 148.453 353.125C146.09 353.995 144.207 356.078 143.19 358.344C143.147 358.44 142.971 358.44 142.986 358.311C143.301 355.501 145.689 353.401 148.422 353.002Z" fill="black"/>
<path opacity="0.1" d="M144.608 352.451C144.578 352.471 144.628 352.511 144.658 352.501C144.858 352.461 147.048 350.991 149.468 350.291C149.668 350.641 149.878 350.991 150.108 351.331C150.148 351.401 150.258 351.341 150.218 351.271C148.698 348.221 148.088 344.781 148.078 341.391C148.068 339.591 148.208 337.771 148.398 335.981C148.388 335.971 148.388 335.961 148.398 335.951C148.858 332.791 149.768 329.701 151.298 326.931C152.228 325.211 153.428 323.551 155.068 322.591C156.708 321.641 158.758 321.491 160.718 321.571C162.708 321.671 164.688 322.101 166.618 322.661C168.558 323.191 170.468 323.891 172.338 324.681C168.768 322.761 164.898 321.251 160.778 320.811C158.728 320.611 156.538 320.751 154.618 321.801C152.718 322.891 151.428 324.651 150.418 326.441C148.478 330.121 147.518 334.221 147.348 338.321C147.328 338.791 147.308 339.271 147.308 339.741C147.308 339.751 147.308 339.751 147.308 339.761C147.278 340.391 147.268 341.011 147.288 341.641C147.368 344.601 147.968 347.571 149.398 350.171C147.228 350.611 145.968 351.231 144.608 352.451Z" fill="black"/>
<path d="M142.433 315.287C143.4 317.402 139.586 332.593 138.389 335.71C137.192 338.827 133 356.241 130.958 356.993C128.916 357.745 119.026 357.53 117.629 356.993C116.232 356.455 117.629 353.484 119.241 352.444C120.853 351.404 122.774 349.808 122.774 349.808C122.774 349.808 119.886 322.919 120.424 319.909C120.961 316.899 139.827 309.59 142.433 315.287Z" fill="#FFC727"/>
<path opacity="0.1" d="M135.766 344.149C136.677 341.406 137.868 338.756 138.779 336.019C138.815 335.91 138.989 335.961 138.954 336.071C138.252 338.275 137.715 340.528 137.062 342.75C137.157 342.599 137.246 342.445 137.343 342.296C137.915 341.412 138.62 340.542 138.915 339.523C138.947 339.412 139.12 339.464 139.09 339.575C138.959 340.052 138.731 340.48 138.499 340.914C138.237 341.405 137.97 341.893 137.705 342.382C137.361 343.018 136.989 343.642 136.601 344.256C136.587 344.299 136.576 344.342 136.562 344.384C135.648 347.136 134.743 349.869 133.53 352.507C133.466 352.646 133.259 352.592 133.294 352.437C133.927 349.618 134.854 346.895 135.766 344.149Z" fill="black"/>
<path opacity="0.1" d="M120.046 324.204C120.049 324.146 120.158 324.129 120.167 324.192C120.455 326.231 120.579 328.293 120.785 330.34C120.999 332.469 121.259 334.593 121.494 336.72C121.96 340.953 122.668 345.167 123.006 349.409C123.02 349.589 122.698 349.613 122.652 349.443C121.535 345.352 121.041 341.144 120.6 336.96C120.381 334.884 120.249 332.8 120.149 330.717C120.044 328.556 119.92 326.365 120.046 324.204Z" fill="black"/>
<path opacity="0.1" d="M121.265 355.61C121.374 355.084 121.593 354.558 121.911 354.123C122.232 353.683 122.615 353.295 123.05 352.969C123.455 352.665 123.962 352.374 124.467 352.281C124.533 352.269 124.585 352.349 124.532 352.399C124.356 352.564 124.155 352.701 123.982 352.874C123.807 353.048 123.629 353.22 123.461 353.401C123.134 353.752 122.857 354.145 122.615 354.558C122.37 354.975 122.133 355.394 121.921 355.829C121.707 356.269 121.581 356.742 121.414 357.199C121.381 357.289 121.243 357.296 121.219 357.194C121.094 356.673 121.158 356.13 121.265 355.61Z" fill="black"/>
<path opacity="0.1" d="M118.374 354.026C118.895 353.056 119.803 352.364 120.789 351.919C120.851 351.891 120.921 351.97 120.863 352.02C120.134 352.653 119.414 353.331 118.948 354.187C118.484 355.039 118.242 356.099 118.567 357.039C118.582 357.083 118.52 357.099 118.497 357.066C117.869 356.17 117.862 354.98 118.374 354.026Z" fill="black"/>
<path d="M121.777 239.806C122.257 238.053 117.881 231.848 116.212 229.761C114.543 227.674 105.348 224.542 102.412 226.149C101.259 226.78 99.118 231.195 96.227 235.032C91.754 240.968 86.526 247.196 88.425 248.872C93.035 252.94 103.537 246.524 106.945 244.368C110.354 242.212 113.471 239.59 114.301 239.683C115.397 239.805 117.705 241.54 118.625 241.643C120.817 241.886 121.777 239.806 121.777 239.806Z" fill="#FFC727"/>
<path opacity="0.1" d="M121.777 239.806C122.257 238.053 117.881 231.848 116.212 229.761C114.543 227.674 105.348 224.542 102.412 226.149C101.259 226.78 99.118 231.195 96.227 235.032C91.754 240.968 86.526 247.196 88.425 248.872C93.035 252.94 103.537 246.524 106.945 244.368C110.354 242.212 113.471 239.59 114.301 239.683C115.397 239.805 117.705 241.54 118.625 241.643C120.817 241.886 121.777 239.806 121.777 239.806Z" fill="black"/>
<path d="M142.953 233.592C153.68 240.006 158.442 257.074 158.732 259.798C158.968 262.023 164.084 269.895 163.17 278.366C162.582 283.813 152.804 291.043 144.843 290.971C143.378 290.958 130.986 295.452 120.525 294.729C110.064 294.006 102.13 286.583 101.821 285.952C101.513 285.321 93.031 284.096 92.498 275.349C91.647 261.385 105.897 237.592 109.974 234.341C116.721 228.959 135.665 229.234 142.953 233.592Z" fill="#FFC727"/>
<path d="M137.903 240.952C137.696 239.053 143.268 233.342 145.347 231.453C147.426 229.565 157.488 227.843 160.268 229.998C161.359 230.844 162.848 235.782 165.21 240.243C168.865 247.146 173.256 254.478 171.006 255.902C165.546 259.358 155.715 250.954 152.536 248.15C149.357 245.346 146.558 242.108 145.682 242.065C144.525 242.009 141.841 243.427 140.869 243.38C138.553 243.27 137.903 240.952 137.903 240.952Z" fill="#FFC727"/>
<path opacity="0.1" d="M137.903 240.952C137.696 239.053 143.268 233.342 145.347 231.453C147.426 229.565 157.488 227.843 160.268 229.998C161.359 230.844 162.848 235.782 165.21 240.243C168.865 247.146 173.256 254.478 171.006 255.902C165.546 259.358 155.715 250.954 152.536 248.15C149.357 245.346 146.558 242.108 145.682 242.065C144.525 242.009 141.841 243.427 140.869 243.38C138.553 243.27 137.903 240.952 137.903 240.952Z" fill="black"/>
<path opacity="0.1" d="M118.302 264.929C124.884 264.988 127.879 272.037 128.673 273.872C129.468 275.708 133.525 279.913 133.632 284.302C133.739 288.691 125.4 293.597 116.594 292.047C107.831 290.505 103.185 285.563 103.235 281.102C103.275 277.512 106.66 274.404 107.034 273.457C107.409 272.51 112.305 264.875 118.302 264.929Z" fill="black"/>
<path opacity="0.1" d="M134.48 277.311C135.356 278.308 136.096 279.424 136.688 280.621C137.283 281.816 137.749 283.092 137.978 284.443C138.187 285.782 138.174 287.25 137.549 288.541C137.249 289.182 136.8 289.746 136.271 290.188C135.717 290.604 135.115 290.919 134.48 291.111C135.585 290.374 136.449 289.397 136.828 288.243C137.223 287.097 137.199 285.834 136.993 284.603C136.803 283.363 136.406 282.142 135.976 280.928C135.521 279.722 135.03 278.515 134.48 277.311Z" fill="black"/>
<path opacity="0.1" d="M104.332 274.681C103.761 275.387 103.222 276.076 102.724 276.779C102.24 277.488 101.769 278.198 101.454 278.963C101.118 279.717 100.919 280.506 100.874 281.321C100.839 282.146 101.065 282.956 101.339 283.832C100.716 283.187 100.212 282.333 100.095 281.367C99.9711 280.408 100.169 279.429 100.54 278.559C100.923 277.689 101.485 276.931 102.129 276.278C102.773 275.629 103.502 275.063 104.332 274.681Z" fill="black"/>
<path d="M207.142 368.856C196.366 368.856 184.478 368.673 172.532 368.451C166.372 368.337 161.506 368.246 158.469 368.246C142.944 368.246 138.476 348.29 134.155 328.991C133.552 326.302 132.949 323.609 132.318 320.965C131.085 315.804 130.067 310.586 129.082 305.54C126.037 289.934 123.407 276.455 116.531 275.718C107.445 274.751 99.3539 288.34 96.3999 309.551L94.4199 309.276C97.5339 286.919 106.499 272.62 116.744 273.73C125.088 274.625 127.848 288.774 131.045 305.158C132.026 310.183 133.04 315.381 134.264 320.501C134.898 323.154 135.503 325.856 136.108 328.556C140.448 347.939 144.547 366.247 158.47 366.247C161.526 366.247 166.4 366.338 172.57 366.452C186.088 366.705 204.601 367.049 220.274 366.741C245.691 366.244 248.699 364.237 249.016 363.634C249.002 359.473 222.174 354.466 212.075 352.581C201.866 350.676 201.468 350.601 201.583 349.348C201.687 348.224 202.936 348.224 204.827 348.224H246.77C259.926 348.224 264.165 329.298 266.698 317.991C267.425 314.747 267.999 312.183 268.633 310.863C271.572 304.739 279.009 305.634 279.323 305.674L279.065 307.656C278.806 307.626 272.743 306.918 270.435 311.728C269.9 312.843 269.32 315.431 268.649 318.428C265.985 330.32 261.527 350.224 246.77 350.224H210.351C211.033 350.352 211.734 350.483 212.442 350.615C236.863 355.174 251.002 358.777 251.002 363.707C251.002 364.069 250.89 364.61 250.356 365.134C247.378 368.054 229.709 368.856 207.142 368.856Z" fill="#263238"/>
<path d="M101.758 308.098L89.4968 307.363L89.0563 314.716L101.317 315.451L101.758 308.098Z" fill="#455A64"/>
<path d="M99.5894 305.628L91.9402 305.17L91.8005 307.502L99.4497 307.96L99.5894 305.628Z" fill="#37474F"/>
<path d="M93.1148 314.96L91.6724 314.874L91.3362 320.485L92.7786 320.571L93.1148 314.96Z" fill="#FFC727"/>
<path d="M98.6638 315.292L97.2214 315.206L96.8853 320.817L98.3277 320.903L98.6638 315.292Z" fill="#FFC727"/>
<path d="M283.053 300.523V312.806H288.419V300.523H283.053Z" fill="#455A64"/>
<path d="M278.716 302.832V310.495H283.052V302.832H278.716Z" fill="#37474F"/>
<path d="M109.952 275.601C109.952 275.601 112.562 278.62 113.573 277.983C114.584 277.346 117.113 271.394 117.113 271.394C117.113 271.394 117.716 278.959 119.669 279.167C121.623 279.375 124.956 276.39 124.956 276.39L117.071 270.916L109.952 275.601Z" fill="#FFC727"/>
<path opacity="0.1" d="M109.952 275.601C109.952 275.601 112.562 278.62 113.573 277.983C114.584 277.346 117.113 271.394 117.113 271.394C117.113 271.394 117.716 278.959 119.669 279.167C121.623 279.375 124.956 276.39 124.956 276.39L117.071 270.916L109.952 275.601Z" fill="black"/>
<path opacity="0.1" d="M148.65 266.211C149.423 263.811 149.699 261.244 149.455 258.669C149.342 257.379 149.038 256.089 148.541 254.841C148.295 254.217 147.967 253.617 147.583 253.049C147.205 252.477 146.754 251.943 146.241 251.47C145.989 251.228 145.707 251.022 145.426 250.814C145.141 250.619 144.841 250.458 144.547 250.282L144.101 250.031L143.627 249.836C143.307 249.718 143.003 249.555 142.67 249.481C141.364 249.09 140.001 248.983 138.69 249.103C136.061 249.334 133.61 250.357 131.613 251.89C133.972 251.052 136.391 250.518 138.74 250.576C139.905 250.636 141.059 250.762 142.112 251.18C142.382 251.262 142.627 251.405 142.886 251.511L143.27 251.682L143.627 251.905C143.862 252.055 144.114 252.187 144.339 252.345C144.556 252.51 144.774 252.673 144.97 252.864C145.794 253.581 146.426 254.526 146.911 255.56C147.424 256.587 147.737 257.73 148.006 258.893C148.494 261.239 148.65 263.703 148.65 266.211Z" fill="black"/>
<path opacity="0.1" d="M99.873 261.103C100.033 258.967 100.329 256.885 100.924 254.95C101.528 253.029 102.489 251.266 103.974 250.189C104.336 249.912 104.746 249.693 105.153 249.497C105.538 249.329 105.964 249.209 106.418 249.146C107.327 249.016 108.315 249.077 109.31 249.209C111.305 249.515 113.322 250.117 115.368 250.776C114.552 250.061 113.632 249.487 112.68 248.962C112.198 248.711 111.706 248.475 111.2 248.259C110.69 248.057 110.169 247.871 109.632 247.717C108.559 247.411 107.414 247.234 106.211 247.336C105.612 247.392 104.997 247.522 104.409 247.776C103.857 248.025 103.325 248.307 102.85 248.682C101.877 249.399 101.124 250.367 100.587 251.393C100.047 252.424 99.721 253.523 99.536 254.62C99.173 256.815 99.289 259.028 99.873 261.103Z" fill="black"/>
<path d="M132.364 263.07C132.395 262.956 132.616 263.224 132.607 263.348C132.37 266.36 132.656 269.851 135.606 270.984C135.697 271.019 135.681 271.17 135.571 271.151C131.939 270.523 131.611 265.886 132.364 263.07Z" fill="#263238"/>
<path d="M135.456 260.046C140.795 259.909 140.787 269.661 135.841 269.788C130.975 269.913 130.982 260.161 135.456 260.046Z" fill="#263238"/>
<path d="M111.734 260.704C111.72 260.587 111.463 260.821 111.455 260.945C111.27 263.961 110.5 267.378 107.421 268.088C107.326 268.11 107.321 268.262 107.432 268.258C111.117 268.144 112.088 263.598 111.734 260.704Z" fill="#263238"/>
<path d="M109.094 257.279C103.827 256.399 102.475 266.057 107.354 266.872C112.156 267.674 113.508 258.016 109.094 257.279Z" fill="#263238"/>
<path d="M116.914 271.121C117.86 271.429 124.448 269.345 123.947 267.349C123.404 265.189 114.14 264.68 112.976 266.083C111.812 267.485 115.923 270.798 116.914 271.121Z" fill="#263238"/>
<path d="M125.128 276.285C124.068 277.053 122.979 277.807 121.776 278.38C121.19 278.66 120.521 278.91 119.958 278.898C119.581 278.973 119.262 278.455 119.045 277.97C118.609 276.97 118.399 275.865 118.207 274.777C118.011 273.685 117.896 272.574 117.784 271.479L117.472 268.437L116.561 271.392C116.281 272.301 115.952 273.214 115.622 274.117C115.275 275.015 114.911 275.916 114.445 276.759C114.327 276.969 114.198 277.173 114.055 277.361C113.917 277.548 113.756 277.736 113.596 277.836C113.483 277.924 113.279 277.928 113.04 277.895C112.807 277.83 112.556 277.739 112.326 277.599C111.395 277.046 110.645 276.254 109.948 275.469C110.434 276.351 111.018 277.214 111.955 277.934C112.186 278.117 112.48 278.27 112.821 278.387C113.011 278.424 113.195 278.482 113.412 278.465C113.606 278.48 113.887 278.41 114.048 278.319C114.392 278.138 114.592 277.927 114.788 277.717C114.977 277.505 115.139 277.289 115.288 277.07C115.887 276.197 116.319 275.292 116.719 274.381C117.126 273.47 117.457 272.552 117.768 271.615L116.545 271.528C116.62 272.665 116.793 273.78 117.005 274.904C117.109 275.465 117.256 276.023 117.423 276.581C117.599 277.138 117.78 277.697 118.087 278.247C118.243 278.522 118.409 278.799 118.676 279.068C118.817 279.201 118.973 279.337 119.214 279.444C119.333 279.499 119.467 279.541 119.624 279.559C119.786 279.588 119.867 279.561 119.992 279.562C120.906 279.491 121.546 279.129 122.15 278.788C123.326 278.063 124.29 277.206 125.128 276.285Z" fill="#263238"/>
<path d="M74.9019 310.894C76.8989 310.734 78.8799 310.801 80.8579 310.924C82.8339 311.069 84.8059 311.271 86.7629 311.702C84.7659 311.863 82.7849 311.796 80.8069 311.672C78.8309 311.526 76.8579 311.323 74.9019 310.894Z" fill="#263238"/>
<path d="M103.685 317.219C105.585 317.847 107.383 318.677 109.155 319.558C110.917 320.458 112.654 321.41 114.288 322.566C112.387 321.94 110.59 321.109 108.818 320.227C107.056 319.325 105.32 318.374 103.685 317.219Z" fill="#263238"/>
<path d="M81.25 330.969C82.205 329.208 83.342 327.584 84.523 325.993C85.722 324.416 86.967 322.873 88.395 321.468C87.441 323.23 86.305 324.854 85.122 326.444C83.922 328.02 82.677 329.563 81.25 330.969Z" fill="#263238"/>
<path d="M70.0129 299.064C71.5559 299.556 73.0659 300.124 74.5719 300.702C76.0809 301.273 77.5669 301.898 79.0519 302.524C80.5309 303.166 82.0089 303.809 83.4639 304.506C84.9219 305.196 86.3759 305.896 87.7959 306.674C86.2529 306.183 84.7419 305.615 83.2369 305.037C81.7279 304.465 80.2419 303.84 78.7569 303.214C77.2789 302.571 75.8009 301.928 74.3459 301.231C72.8879 300.542 71.4339 299.841 70.0129 299.064Z" fill="#263238"/>
<path d="M105.128 307.935C106.524 307.198 107.986 306.678 109.465 306.211C110.95 305.766 112.453 305.375 114.022 305.203C112.627 305.942 111.164 306.462 109.685 306.927C108.199 307.371 106.697 307.761 105.128 307.935Z" fill="#263238"/>
<path d="M90.753 302.87C89.935 301.572 89.19 300.237 88.456 298.897C87.715 297.56 87.026 296.197 86.338 294.835C85.666 293.464 84.995 292.093 84.375 290.695C83.749 289.301 83.134 287.902 82.593 286.465C83.413 287.763 84.157 289.098 84.891 290.438C85.632 291.775 86.321 293.137 87.008 294.501C87.679 295.872 88.351 297.244 88.969 298.641C89.596 300.035 90.211 301.434 90.753 302.87Z" fill="#263238"/>
<path d="M111.002 334.503C110.109 333.481 109.285 332.412 108.47 331.337C107.648 330.266 106.875 329.162 106.102 328.058C105.344 326.944 104.587 325.828 103.878 324.68C103.163 323.536 102.457 322.385 101.82 321.187C102.714 322.208 103.538 323.277 104.353 324.352C105.174 325.423 105.947 326.527 106.72 327.632C107.477 328.747 108.235 329.861 108.943 331.01C109.659 332.153 110.364 333.305 111.002 334.503Z" fill="#263238"/>
<path d="M379.942 83.8607H297.283L290.883 27.7207H373.543L379.942 83.8607Z" fill="#A6A6A6"/>
<path d="M375.438 80.0953H300.928L295.387 31.4863H369.897L375.438 80.0953Z" fill="white"/>
<path d="M329.421 57.0643L328.231 58.4793L316.509 48.3593L317.699 46.9443L329.421 57.0643Z" fill="#FFC727"/>
<path d="M326.404 46.9443L328.043 48.3593L319.526 58.4793L317.887 57.0643L326.404 46.9443Z" fill="#FFC727"/>
<path d="M354.481 57.0643L353.29 58.4793L341.568 48.3593L342.759 46.9443L354.481 57.0643Z" fill="#FFC727"/>
<path d="M351.464 46.9443L353.102 48.3593L344.586 58.4793L342.947 57.0643L351.464 46.9443Z" fill="#FFC727"/>
<path d="M315.01 66.7901L314.694 64.7891H360.122L360.439 66.7901H315.01Z" fill="#FFC727"/>
<path d="M404.2 80.0957H297.862V83.8617H404.2V80.0957Z" fill="#A6A6A6"/>
<path d="M413.177 80.0957H320.956V83.8617H413.177V80.0957Z" fill="#C7C7C7"/>
<path d="M370.166 33.8453L369.897 31.4863H295.387L295.656 33.8453H370.166Z" fill="#263238"/>
<path d="M301.659 32.6661C301.695 32.9901 301.96 33.2521 302.252 33.2521C302.543 33.2521 302.751 32.9901 302.715 32.6661C302.679 32.3421 302.414 32.0801 302.122 32.0801C301.83 32.0801 301.623 32.3431 301.659 32.6661Z" fill="#C7C7C7"/>
<path d="M299.504 32.6661C299.54 32.9901 299.805 33.2521 300.097 33.2521C300.389 33.2521 300.596 32.9901 300.56 32.6661C300.524 32.3421 300.259 32.0801 299.967 32.0801C299.675 32.0801 299.468 32.3431 299.504 32.6661Z" fill="white"/>
<path d="M297.348 32.6661C297.384 32.9901 297.649 33.2521 297.941 33.2521C298.233 33.2521 298.44 32.9901 298.404 32.6661C298.368 32.3421 298.103 32.0801 297.811 32.0801C297.52 32.0801 297.312 32.3431 297.348 32.6661Z" fill="#FFC727"/>
</g>
<defs>
<clipPath id="clip0_4949_2">
<rect width="500" height="383" fill="white"/>
</clipPath>
</defs>
</svg>
