<svg width="413" height="404" viewBox="0 0 413 404" fill="none" xmlns="http://www.w3.org/2000/svg">
<path d="M204 378.561C311.082 378.561 397.889 373.492 397.889 367.238C397.889 360.985 311.082 355.915 204 355.915C96.918 355.915 10.111 360.985 10.111 367.238C10.111 373.492 96.918 378.561 204 378.561Z" fill="#030409" fill-opacity="0.04"/>
<path d="M203.96 312.048H61.96L54.188 83.6812H196.188L203.96 312.048Z" fill="#407BFF"/>
<path d="M211.047 304.961H69.0469L61.2739 76.5942H203.274L211.047 304.961Z" fill="#407BFF"/>
<path opacity="0.3" d="M211.047 304.961H69.0469L61.2739 76.5942H203.274L211.047 304.961Z" fill="white"/>
<path d="M163.482 170.581C178.688 155.115 178.042 129.825 162.041 114.093C146.04 98.361 120.743 98.1451 105.537 113.611C90.3321 129.076 90.9773 154.366 106.978 170.098C122.979 185.83 148.277 186.046 163.482 170.581Z" fill="#407BFF"/>
<path d="M167.469 142.09C167.663 147.783 166.401 153.128 164.02 157.793C158.809 168.068 148.158 175.056 135.625 175.056C123.093 175.056 111.966 168.068 106.055 157.793C103.357 153.129 101.731 147.784 101.537 142.09C100.917 123.88 115.172 109.124 133.381 109.124C151.59 109.124 166.849 123.88 167.469 142.09Z" fill="white"/>
<path opacity="0.6" d="M164.019 157.792C158.808 168.067 148.157 175.055 135.624 175.055C123.092 175.055 111.965 168.067 106.054 157.792C114.165 152.248 124.014 149.011 134.737 149.011C145.462 149.011 155.531 152.247 164.019 157.792Z" fill="#407BFF"/>
<path opacity="0.6" d="M144.777 141.283C150.368 135.598 150.13 126.3 144.248 120.516C138.365 114.732 129.064 114.653 123.474 120.339C117.884 126.025 118.121 135.322 124.004 141.106C129.887 146.89 139.187 146.969 144.777 141.283Z" fill="#407BFF"/>
<path d="M182.524 222.261H91.9399L91.3269 204.261H181.912L182.524 222.261Z" fill="white"/>
<path d="M183.62 254.434H93.0349L92.4219 236.434H183.007L183.62 254.434Z" fill="white"/>
<path d="M148.658 238.908L126.829 241.876C125.932 241.998 125.342 242.815 125.512 243.683L128.378 258.311C128.549 259.185 129.42 259.797 130.317 259.676L152.146 256.708C153.043 256.586 153.634 255.775 153.463 254.901L150.597 240.273C150.427 239.404 149.555 238.786 148.658 238.908ZM142.386 253.727L138.434 254.265L138.036 249.544C137.195 249.173 136.586 248.427 136.414 247.548C136.134 246.118 137.1 244.793 138.567 244.593C140.029 244.394 141.45 245.395 141.731 246.825C141.903 247.704 141.61 248.572 140.955 249.147L142.386 253.727Z" fill="#407BFF"/>
<path d="M146.504 238.124C145.706 238.232 144.936 237.69 144.784 236.913L144.503 235.481C143.731 231.54 139.963 228.565 135.884 228.92C131.524 229.3 128.601 233.15 129.417 237.314L129.739 238.959C129.891 239.736 129.368 240.454 128.57 240.562C127.772 240.67 127.002 240.128 126.85 239.351L126.577 237.955C125.501 232.463 128.958 227.183 134.551 226.21C140.431 225.186 146.229 229.152 147.35 234.875L147.672 236.52C147.824 237.297 147.301 238.015 146.504 238.124Z" fill="#407BFF"/>
<path d="M168.667 279.639H109.703L109.305 267.922H168.268L168.667 279.639Z" fill="#407BFF"/>
<path d="M140.218 213.261C140.28 215.079 138.856 216.553 137.038 216.553C135.22 216.553 133.696 215.079 133.634 213.261C133.572 211.443 134.996 209.969 136.814 209.969C138.632 209.969 140.156 211.443 140.218 213.261Z" fill="#263238"/>
<path d="M126.045 213.261C126.107 215.079 124.683 216.553 122.865 216.553C121.047 216.553 119.523 215.079 119.461 213.261C119.399 211.443 120.823 209.969 122.641 209.969C124.459 209.969 125.983 211.443 126.045 213.261Z" fill="#263238"/>
<path d="M111.872 213.261C111.934 215.079 110.51 216.553 108.692 216.553C106.874 216.553 105.35 215.079 105.288 213.261C105.226 211.443 106.65 209.969 108.468 209.969C110.286 209.969 111.81 211.443 111.872 213.261Z" fill="#263238"/>
<path d="M154.391 213.261C154.453 215.079 153.029 216.553 151.211 216.553C149.393 216.553 147.869 215.079 147.807 213.261C147.745 211.443 149.169 209.969 150.987 209.969C152.805 209.969 154.329 211.443 154.391 213.261Z" fill="#263238"/>
<path d="M168.564 213.261C168.626 215.079 167.202 216.553 165.384 216.553C163.566 216.553 162.042 215.079 161.98 213.261C161.918 211.443 163.342 209.969 165.16 209.969C166.978 209.969 168.503 211.443 168.564 213.261Z" fill="#263238"/>
<path d="M287.91 125.281C289.243 127.416 290.345 129.465 291.489 131.592C292.628 133.698 293.658 135.865 294.669 138.048C296.658 142.431 298.438 146.953 299.768 151.779C299.946 152.371 300.082 152.999 300.23 153.614L300.449 154.539L300.558 155.001L300.688 155.763C300.974 157.795 300.723 159.452 300.376 160.914C299.659 163.828 298.503 166.152 297.264 168.37C294.735 172.761 291.783 176.501 288.378 180.043L284.167 176.855C286.243 172.915 288.295 168.787 289.804 164.818C290.535 162.844 291.15 160.835 291.33 159.186C291.417 158.375 291.359 157.678 291.247 157.419L290.852 156.197C290.688 155.695 290.542 155.196 290.344 154.69C288.903 150.655 287.07 146.602 285.075 142.606C283.108 138.625 280.928 134.572 278.782 130.789L287.91 125.281Z" fill="#FF8B7B"/>
<path d="M285.236 175.425L280.645 177.862L285.923 184.042C285.923 184.042 289.218 181.813 289.367 178.409L285.236 175.425Z" fill="#FF8B7B"/>
<path d="M274.466 181.673L280.122 186.16L285.923 184.043L280.644 177.863L274.466 181.673Z" fill="#FF8B7B"/>
<path d="M255.151 92.5635C255.038 93.1195 254.652 93.5105 254.288 93.4365C253.925 93.3625 253.722 92.8525 253.835 92.2965C253.948 91.7405 254.334 91.3495 254.698 91.4235C255.061 91.4975 255.264 92.0085 255.151 92.5635Z" fill="#263238"/>
<path d="M254.703 93.522C254.703 93.522 252.787 96.472 251.081 97.737C251.878 98.855 253.636 98.775 253.636 98.775L254.703 93.522Z" fill="#FF5652"/>
<path d="M252.901 113.138L252.944 106.584L261.624 107.633C261.624 107.633 261.475 113.269 256.628 114.926L252.901 113.138Z" fill="#FF8B7B"/>
<path d="M255.396 101.864L261.508 103.62L261.625 107.633L252.944 106.584L255.396 101.864Z" fill="#FF8B7B"/>
<path opacity="0.2" d="M261.51 103.62L255.4 101.86L254.21 104.14C254.36 108.01 256.72 111.19 259.85 112.62C261.55 110.39 261.62 107.63 261.62 107.63L261.51 103.62Z" fill="black"/>
<path d="M257.814 89.8909C257.895 89.8909 257.976 89.8619 258.04 89.8019C258.175 89.6769 258.183 89.4659 258.058 89.3309C256.807 87.9769 255.289 88.2179 255.223 88.2289C255.042 88.2599 254.92 88.4319 254.951 88.6129C254.982 88.7939 255.156 88.9149 255.334 88.8859C255.384 88.8779 256.571 88.7039 257.569 89.7839C257.635 89.8549 257.724 89.8909 257.814 89.8909Z" fill="#263238"/>
<path d="M270.591 102.683C269.582 107.829 268.973 114.958 272.573 118.392C272.573 118.392 271.166 123.612 261.605 123.612C251.091 123.612 256.547 119.031 256.547 119.031C260.917 117.675 260.879 112.697 259.879 108.698L270.591 102.683Z" fill="#FF8B7B"/>
<path d="M274.542 121.833C275.478 120.507 275.441 116.318 274.441 115.579C272.827 114.386 265.924 114.112 256.625 116.25C257.626 120.308 255.482 122.435 255.482 122.435L274.542 121.833Z" fill="#407BFF"/>
<path d="M305.795 359.237C305.089 359.39 304.384 359.43 304.044 359.141C303.901 359.019 303.758 358.787 303.883 358.367C303.949 358.146 304.093 357.981 304.312 357.877C305.262 357.424 307.444 358.313 307.537 358.351C307.598 358.376 307.638 358.434 307.64 358.5C307.642 358.566 307.605 358.626 307.546 358.655C307.212 358.816 306.504 359.084 305.795 359.237ZM304.651 358.113C304.579 358.129 304.514 358.15 304.456 358.178C304.324 358.241 304.241 358.334 304.203 358.462C304.114 358.762 304.225 358.856 304.262 358.887C304.64 359.209 306.045 358.912 307.034 358.516C306.362 358.28 305.276 357.978 304.651 358.113Z" fill="#407BFF"/>
<path d="M307.509 358.668C307.482 358.674 307.454 358.673 307.427 358.665C306.632 358.433 304.931 357.224 304.91 356.427C304.906 356.282 304.957 356.02 305.336 355.888C305.582 355.802 305.83 355.822 306.074 355.947C307.014 356.427 307.608 358.375 307.633 358.458C307.651 358.517 307.635 358.58 307.592 358.623C307.568 358.646 307.54 358.661 307.509 358.668ZM305.518 356.182C305.494 356.187 305.469 356.194 305.445 356.202C305.239 356.274 305.242 356.375 305.243 356.418C305.255 356.89 306.378 357.838 307.201 358.222C306.995 357.66 306.525 356.551 305.923 356.244C305.785 356.173 305.652 356.153 305.518 356.182Z" fill="#407BFF"/>
<path d="M253.865 360.417C252.962 360.417 252.09 360.293 251.798 359.887C251.696 359.745 251.615 359.503 251.812 359.159C251.922 358.966 252.1 358.835 252.34 358.769C253.511 358.451 255.969 359.851 256.073 359.911C256.133 359.946 256.165 360.014 256.154 360.082C256.143 360.15 256.09 360.205 256.022 360.219C255.573 360.309 254.706 360.417 253.865 360.417ZM252.749 359.053C252.632 359.053 252.523 359.065 252.427 359.091C252.273 359.133 252.167 359.209 252.101 359.324C251.983 359.531 252.026 359.634 252.069 359.692C252.396 360.147 254.174 360.157 255.482 359.972C254.829 359.638 253.571 359.053 252.749 359.053Z" fill="#407BFF"/>
<path d="M255.989 360.223C255.966 360.223 255.943 360.218 255.921 360.208C255.072 359.827 253.39 358.306 253.519 357.51C253.549 357.323 253.682 357.091 254.139 357.044C254.481 357.009 254.79 357.106 255.063 357.33C255.958 358.065 256.147 359.959 256.155 360.04C256.161 360.099 256.134 360.157 256.086 360.191C256.058 360.212 256.023 360.223 255.989 360.223ZM254.273 357.371C254.24 357.371 254.207 357.373 254.173 357.376C253.873 357.406 253.854 357.524 253.848 357.563C253.771 358.04 254.913 359.236 255.78 359.756C255.69 359.203 255.439 358.069 254.852 357.587C254.675 357.443 254.484 357.371 254.273 357.371Z" fill="#407BFF"/>
<path d="M263.724 360.056H256.69L255.99 343.768H263.023L263.724 360.056Z" fill="#FF8B7B"/>
<path d="M315.349 356.8L308.475 358.288L301.573 343.117L308.447 341.628L315.349 356.8Z" fill="#FF8B7B"/>
<path d="M307.814 357.598L315.537 355.926C315.818 355.865 316.104 356.008 316.224 356.269L318.905 362.086C319.183 362.689 318.815 363.397 318.163 363.526C315.457 364.063 314.113 364.189 310.716 364.924C308.626 365.376 303.909 366.526 301.024 367.15C298.202 367.761 297.144 365.003 298.269 364.489C303.315 362.184 305.423 360.154 306.789 358.262C307.036 357.921 307.403 357.687 307.814 357.598Z" fill="#263238"/>
<path d="M256.736 359.242H264.417C264.705 359.242 264.953 359.442 265.016 359.722L266.405 365.974C266.549 366.622 266.057 367.236 265.393 367.225C262.622 367.178 258.618 367.015 255.136 367.015C251.064 367.015 247.547 367.237 242.771 367.237C239.883 367.237 239.082 364.318 240.291 364.053C245.794 362.849 250.286 362.72 255.041 359.789C255.559 359.471 256.129 359.242 256.736 359.242Z" fill="#263238"/>
<path d="M285.167 119.982C291.759 121.493 297.195 138.323 297.195 138.323L283.957 148.413C283.957 148.413 279.098 143.832 276.936 135.414C274.669 126.593 278.426 118.437 285.167 119.982Z" fill="#407BFF"/>
<path opacity="0.4" d="M285.167 119.982C291.759 121.493 297.195 138.323 297.195 138.323L283.957 148.413C283.957 148.413 279.098 143.832 276.936 135.414C274.669 126.593 278.426 118.437 285.167 119.982Z" fill="black"/>
<path d="M250.502 140.067C248.857 141.842 247.217 143.421 245.518 145.046C244.675 145.854 243.813 146.646 242.932 147.423L241.604 148.586L241.27 148.875C241.108 149.014 240.911 149.179 240.7 149.34C240.26 149.665 239.778 150.044 238.768 150.481C238.233 150.687 237.545 150.96 236.336 150.984C235.761 150.993 234.981 150.893 234.236 150.611C233.475 150.329 232.739 149.841 232.235 149.339C231.189 148.288 230.873 147.366 230.667 146.749C230.476 146.113 230.421 145.659 230.382 145.262C230.319 144.486 230.359 143.961 230.402 143.475C230.449 142.995 230.515 142.58 230.588 142.188C230.882 140.646 231.298 139.402 231.749 138.156C232.206 136.923 232.712 135.739 233.303 134.542C233.938 133.268 234.551 132.344 235.162 131.279C237.633 127.149 240.533 123.377 243.614 119.822C246.762 116.291 250.066 113.063 253.865 110.105L257.546 113.892C254.96 117.351 252.418 121.058 250.069 124.714C247.722 128.397 245.545 132.147 243.671 135.96C243.239 136.902 242.706 137.934 242.406 138.722C242.055 139.583 241.733 140.508 241.468 141.419C241.206 142.319 240.995 143.257 240.9 143.945C240.878 144.111 240.867 144.256 240.867 144.34C240.864 144.417 240.884 144.46 240.874 144.247C240.864 144.131 240.853 143.958 240.745 143.592C240.623 143.244 240.433 142.585 239.591 141.733C239.185 141.334 238.575 140.916 237.943 140.69C237.332 140.451 236.693 140.381 236.259 140.383C235.334 140.404 234.921 140.593 234.647 140.691C234.157 140.903 234.147 140.96 234.152 140.938L234.536 140.588L235.737 139.488L238.128 137.249C239.71 135.758 241.302 134.168 242.805 132.692L250.502 140.067Z" fill="#FF8B7B"/>
<path opacity="0.2" d="M279.517 132.358C283.098 135.901 284.266 142.354 284.544 147.964L283.96 148.414C283.96 148.414 279.096 143.828 276.932 135.412C276.798 134.886 276.683 134.359 276.587 133.842L279.517 132.358Z" fill="black"/>
<path d="M243.508 127.035C242.07 134.634 241.17 150.238 245.345 181.14H282.966C283.225 175.365 279.596 147.193 285.167 119.982C285.167 119.982 278.718 118.688 272.573 118.392C267.766 118.16 260.806 118.007 256.58 118.393C254.816 118.554 253.085 118.809 251.542 119.082C247.474 119.801 244.276 122.976 243.508 127.035Z" fill="#407BFF"/>
<path opacity="0.4" d="M243.508 127.035C242.07 134.634 241.17 150.238 245.345 181.14H282.966C283.225 175.365 279.596 147.193 285.167 119.982C285.167 119.982 278.718 118.688 272.573 118.392C267.766 118.16 260.806 118.007 256.58 118.393C254.816 118.554 253.085 118.809 251.542 119.082C247.474 119.801 244.276 122.976 243.508 127.035Z" fill="black"/>
<path opacity="0.2" d="M249.265 138.266L242.467 136.638C242.256 140.755 242.237 145.858 242.544 152.168C245.675 148.606 249.667 143.053 249.265 138.266Z" fill="black"/>
<path opacity="0.2" d="M255.991 343.772L256.351 352.168H263.388L263.028 343.772H255.991Z" fill="black"/>
<path opacity="0.2" d="M308.451 341.632L301.573 343.121L305.134 350.941L312.012 349.452L308.451 341.632Z" fill="black"/>
<path d="M273.934 95.1546C272.127 101.898 271.412 105.936 267.251 108.74C260.992 112.957 253.2 108.117 252.956 100.97C252.737 94.5366 255.729 84.5906 262.964 83.2316C270.093 81.8936 275.741 88.4116 273.934 95.1546Z" fill="#FF8B7B"/>
<path d="M258.147 95.4138C257.813 94.5098 256.255 87.5418 257.717 85.7328C259.18 83.9238 275.828 85.2248 278.29 87.6478C282.374 91.6668 279.541 95.2538 275.07 99.8818C271.707 103.362 271.578 107.285 269.882 107.86C266.91 108.869 262.301 107.921 261.377 104.748C260.453 101.576 258.147 95.4138 258.147 95.4138Z" fill="#263238"/>
<path d="M276.274 79.7218C270.389 77.2158 259.357 79.9878 253.399 78.5518C253.186 81.6368 255.048 86.5838 261.005 87.9138C261.005 87.9138 269.462 89.5628 276.005 89.2968C282.548 89.0308 281.271 81.8498 276.274 79.7218Z" fill="#263238"/>
<path d="M277.194 87.861C277.194 87.861 280.833 88.271 283.416 86.667C284.521 89.326 278.472 90.056 277.194 87.861Z" fill="#263238"/>
<path d="M261.354 95.6909C261.245 97.5159 260.398 99.2329 259.378 100.357C257.845 102.046 256.245 100.995 255.973 98.9369C255.728 97.0849 256.231 93.9739 258.106 93.0429C259.953 92.1239 261.478 93.6039 261.354 95.6909Z" fill="#FF8B7B"/>
<path d="M258.69 181.14C258.69 181.14 266.672 234.893 271.055 255.031C275.854 277.084 301.586 350.045 301.586 350.045L314.177 347.319C314.177 347.319 296.184 287.861 292.156 257.03C289.062 233.348 282.966 181.14 282.966 181.14H258.69Z" fill="#407BFF"/>
<path d="M298.571 345.842C298.517 345.854 300.918 350.395 300.918 350.395L315.084 347.328L313.89 343.069L298.571 345.842Z" fill="#263238"/>
<path opacity="0.3" d="M263.735 200.292C272.965 202.102 271.988 236.522 270.878 254.225C268.216 241.711 264.32 217.631 261.658 200.541C262.27 200.235 262.96 200.139 263.735 200.292Z" fill="black"/>
<path d="M245.345 181.14C245.345 181.14 244.376 233.73 245.141 255.179C245.937 277.49 253.73 350.542 253.73 350.542H265.645C265.645 350.542 266.082 278.794 266.612 256.882C267.19 232.995 270.074 181.14 270.074 181.14H245.345Z" fill="#407BFF"/>
<path d="M251.437 345.796C251.382 345.796 252.109 350.743 252.109 350.743H266.603L266.995 346.328L251.437 345.796Z" fill="#263238"/>
<path d="M258.252 129.342C261.625 138.431 241.81 149.137 241.81 149.137L233.232 138.109C233.232 138.109 238.955 126.719 245.978 121.584C254.653 115.241 255.684 122.423 258.252 129.342Z" fill="#407BFF"/>
<path opacity="0.4" d="M258.252 129.342C261.625 138.431 241.81 149.137 241.81 149.137L233.232 138.109C233.232 138.109 238.955 126.719 245.978 121.584C254.653 115.241 255.684 122.423 258.252 129.342Z" fill="black"/>
<path d="M335.875 60.333C355.805 60.333 371.962 50.0356 371.962 37.333C371.962 24.6305 355.805 14.333 335.875 14.333C315.945 14.333 299.788 24.6305 299.788 37.333C299.788 50.0356 315.945 60.333 335.875 60.333Z" fill="#407BFF"/>
<path d="M322.846 48.9098C320.841 48.9098 318.884 48.3098 317.184 47.1508C314.904 45.5968 313.389 43.2408 312.918 40.5168C312.02 35.3098 315.478 30.1218 320.627 28.9518C324.867 27.9908 329.173 29.7978 331.45 33.4688L354.617 28.6878C356.494 28.3008 358.401 29.4198 358.863 31.1848C359.108 32.1228 358.963 33.0918 358.453 33.9138C357.942 34.7358 357.14 35.2948 356.193 35.4908L355.585 35.6168C355.403 35.6538 355.255 35.7638 355.167 35.9258C355.079 36.0858 355.066 36.2748 355.132 36.4448L355.54 37.5068C355.817 38.2258 355.559 39.0348 354.924 39.4298C354.43 39.7378 354.094 40.2658 354.027 40.8438C353.945 41.5518 353.472 42.0968 352.823 42.2308L352.346 42.3288C351.699 42.4608 351.049 42.1508 350.692 41.5328C350.274 40.8108 349.444 40.4388 348.624 40.6088C347.801 40.7788 347.182 41.4498 347.082 42.2788C346.997 42.9878 346.524 43.5318 345.877 43.6648L345.41 43.7608C344.769 43.8938 344.113 43.5818 343.756 42.9648C343.463 42.4608 342.943 42.1088 342.364 42.0228C341.625 41.9128 341.066 41.2728 341.035 40.5008L340.989 39.3638C340.982 39.1788 340.898 39.0148 340.753 38.9018C340.608 38.7878 340.434 38.7468 340.246 38.7828L332.864 40.3068C332.238 44.4898 329.085 47.8388 324.913 48.6998C324.224 48.8388 323.532 48.9098 322.846 48.9098ZM320.848 29.9268C316.209 30.9808 313.094 35.6558 313.905 40.3468C314.328 42.8018 315.693 44.9238 317.748 46.3248C319.803 47.7258 322.275 48.2208 324.712 47.7178C328.577 46.9198 331.474 43.7498 331.918 39.8298L331.959 39.4698L340.044 37.8008C340.511 37.7038 340.994 37.8178 341.369 38.1118C341.744 38.4048 341.969 38.8458 341.989 39.3218L342.035 40.4588C342.046 40.7468 342.251 40.9938 342.511 41.0318C343.402 41.1648 344.17 41.6858 344.621 42.4618C344.731 42.6518 344.94 42.8348 345.209 42.7798L345.676 42.6838C345.941 42.6288 346.064 42.3768 346.09 42.1588C346.239 40.9028 347.177 39.8858 348.423 39.6288C349.665 39.3728 350.924 39.9368 351.558 41.0308C351.668 41.2208 351.876 41.4058 352.145 41.3488L352.623 41.2508C352.888 41.1958 353.01 40.9448 353.034 40.7278C353.138 39.8358 353.636 39.0538 354.398 38.5808C354.622 38.4418 354.711 38.1348 354.608 37.8668L354.2 36.8038C354.029 36.3588 354.062 35.8648 354.291 35.4468C354.52 35.0298 354.918 34.7348 355.385 34.6388L355.993 34.5128C356.669 34.3738 357.241 33.9738 357.605 33.3888C357.969 32.8028 358.073 32.1108 357.898 31.4408C357.568 30.1828 356.185 29.3868 354.82 29.6708L330.951 34.5968L330.771 34.2828C328.768 30.7838 324.786 29.0318 320.848 29.9268ZM322.859 45.2128C321.621 45.2128 320.41 44.8528 319.351 44.1568C317.921 43.2158 316.944 41.7758 316.599 40.1008C316.252 38.4228 316.579 36.7118 317.52 35.2838C318.46 33.8568 319.901 32.8808 321.577 32.5348C323.255 32.1878 324.966 32.5138 326.393 33.4528C327.82 34.3908 328.796 35.8328 329.142 37.5118C329.489 39.1868 329.162 40.8968 328.224 42.3248C327.285 43.7548 325.843 44.7328 324.164 45.0788C323.73 45.1688 323.293 45.2128 322.859 45.2128ZM322.889 33.3998C322.52 33.3998 322.149 33.4378 321.779 33.5138C320.365 33.8058 319.149 34.6298 318.356 35.8338C317.563 37.0388 317.287 38.4818 317.579 39.8988C317.871 41.3118 318.695 42.5268 319.902 43.3208C321.108 44.1138 322.551 44.3908 323.965 44.0988C325.381 43.8068 326.597 42.9808 327.39 41.7748C328.182 40.5698 328.457 39.1278 328.165 37.7128C327.872 36.2958 327.049 35.0788 325.845 34.2868C324.954 33.7038 323.933 33.3998 322.889 33.3998Z" fill="white"/>
<path opacity="0.6" d="M306.495 73.8182C313.046 73.8182 318.356 70.4335 318.356 66.2582C318.356 62.083 313.046 58.6982 306.495 58.6982C299.944 58.6982 294.634 62.083 294.634 66.2582C294.634 70.4335 299.944 73.8182 306.495 73.8182Z" fill="#407BFF"/>
<path opacity="0.3" d="M287.629 76.9199C290.318 76.9199 292.498 75.5306 292.498 73.8169C292.498 72.1031 290.318 70.7139 287.629 70.7139C284.94 70.7139 282.76 72.1031 282.76 73.8169C282.76 75.5306 284.94 76.9199 287.629 76.9199Z" fill="#407BFF"/>
</svg>
