<svg version="1.1" xmlns="http://www.w3.org/2000/svg" style="display: block;" viewBox="0 0 2048 2048" width="1024" height="1024">
<path transform="translate(0,0)" fill="rgb(1,1,1)" d="M 0 0 L 2048 0 L 2048 560.486 L 2048 571.529 L 2048 689.734 L 2048 701.972 L 2048 1158.56 L 2048 1170.26 L 2048 2048 L 0 2048 L 0 1593.65 L 0 1582.61 L 0 1039.02 L 0 1028.61 L 0 0 z"/>
<path transform="translate(0,0)" fill="rgb(254,254,254)" d="M 1652.81 986.405 C 1653.87 986.528 1655.55 987.08 1656.6 987.35 C 1658.01 988.885 1659.4 989.812 1659.76 991.912 C 1649.49 994.282 1638.62 994.804 1628.15 996.041 L 1569.23 1003.17 L 1409.57 1022.01 C 1367.97 1026.59 1325.37 1030.05 1284.22 1037.56 C 1281.12 1034.2 1278.39 1030.29 1275.56 1026.69 C 1329.29 1019.36 1383.77 1015.98 1437.69 1009.78 L 1576.99 993.997 C 1602.18 991.256 1627.52 987.877 1652.81 986.405 z"/>
<path transform="translate(0,0)" fill="rgb(254,254,254)" d="M 1531.13 605.677 A 6861.8 6861.8 0 0 0 1681.78 635.995 C 1668.04 638.435 1654.43 641.75 1640.82 644.841 C 1600.86 655.499 1560.05 662.05 1520.17 673.312 C 1525.93 650.834 1528.95 628.751 1531.13 605.677 z"/>
<path transform="translate(0,0)" fill="rgb(254,254,254)" d="M 1266.55 1035.46 L 1276.86 1047.07 C 1271.67 1090.38 1261.29 1133.8 1253.08 1176.68 L 1222.48 1344.6 C 1127.47 1315.34 1040.39 1264.81 947.237 1230.87 C 945.724 1230.38 943.739 1229.94 942.38 1229.15 C 940.377 1227.98 939.96 1225.71 939.861 1223.53 C 939.748 1221.05 940.169 1219.5 941.724 1217.62 C 956.975 1219.36 990.331 1236.89 1005.82 1243.84 C 1043.05 1260.54 1080.79 1276.1 1117.99 1292.91 C 1146.46 1305.76 1181.58 1324.42 1211.12 1333.02 C 1214.82 1317.92 1217.11 1302.39 1219.86 1287.1 L 1233.05 1215.67 L 1251.47 1115.63 C 1256.55 1088.94 1262.36 1062.3 1266.55 1035.46 z"/>
<path transform="translate(0,0)" fill="rgb(254,254,254)" d="M 1223.37 1187.47 L 1224.38 1187.51 C 1227.16 1192.34 1204.68 1302.54 1202.25 1317.2 C 1148.3 1295.75 1096.08 1269.62 1042.75 1246.65 L 966.206 1213.94 L 1223.37 1187.47 z"/>
<path transform="translate(0,0)" fill="rgb(254,254,254)" d="M 1749.25 632.904 C 1784.49 627.653 1819.37 618.51 1854.23 611.124 A 19403.9 19403.9 0 0 1 2048 571.529 L 2048 689.734 C 2023.51 683.717 1998.76 679.164 1974.05 674.155 A 6215.2 6215.2 0 0 0 1826.96 646.292 C 1801.07 641.72 1774.97 638.411 1749.25 632.904 z"/>
<path transform="translate(0,0)" fill="rgb(254,254,254)" d="M 878.905 1253.49 L 935.249 1253.03 C 946.131 1252.96 957.87 1251.97 968.609 1253.76 C 983.668 1256.27 999.456 1264.88 1013.37 1271.04 L 1069.24 1295.94 L 1062.8 1362.55 C 1051.14 1363.33 1039.42 1365.34 1027.83 1366.89 C 973.555 1375.16 919.814 1385.69 865.896 1395.9 C 866.899 1376.42 873.497 1260.73 876.395 1254.39 L 878.905 1253.49 z"/>
<path transform="translate(0,0)" fill="rgb(244,244,244)" d="M 1657.9 1005.45 L 1659.33 1005.8 C 1659.89 1012.34 1656.68 1021.57 1655.46 1028.27 C 1650.01 1058.42 1643.9 1088.33 1637.77 1118.34 C 1625.98 1176.03 1615.5 1233.98 1603.06 1291.55 L 1402.67 1322.15 C 1347.56 1330.45 1292.2 1339.2 1236.81 1345.39 L 1235.26 1344.68 C 1233.46 1335.71 1244.8 1289.41 1246.87 1278 C 1260.71 1201.72 1276.03 1125.48 1288.07 1048.9 C 1341.1 1040.13 1395.47 1035.69 1448.86 1029.32 C 1518.39 1021.03 1588.12 1011.2 1657.9 1005.45 z"/>
<path transform="translate(0,0)" fill="rgb(254,254,254)" d="M 1513.54 687.984 C 1529.63 681.238 1547.37 677.397 1564.31 673.374 C 1594.06 666.308 1624.1 660.339 1653.98 653.803 C 1670.03 650.293 1699.66 641.16 1714.58 641.729 C 1727.25 642.211 1741.36 646.507 1753.97 648.864 L 1844.19 666.58 C 1881.81 674.353 1919.33 680.617 1957.15 687.115 C 1987.44 692.318 2017.52 697.928 2048 701.972 L 2048 1158.56 C 2015.72 1163.58 1983.4 1171.88 1951.38 1178.59 C 1906.55 1187.99 1861.47 1196.38 1816.54 1205.34 C 1814 1147.09 1799.61 736.681 1787.14 714.705 L 1786.03 715.208 C 1781.69 730.43 1785.43 805.29 1785.98 826.359 C 1789.34 953.851 1796.36 1081.14 1800.03 1208.6 C 1778.45 1215.42 1754.58 1218.48 1732.4 1223.11 C 1696.34 1230.65 1660.46 1239.2 1624.28 1246.13 C 1630.3 1222.11 1634.56 1197.74 1639.07 1173.4 C 1641.53 1160.1 1643.11 1144.71 1648.12 1132.16 C 1651.07 1124.76 1658.47 1118.37 1663.05 1111.74 C 1678.11 1089.95 1689.96 1064.3 1695.9 1038.47 A 276.881 276.881 0 0 0 1659.32 824.824 C 1631.36 780.414 1588.66 741.148 1539.37 721.775 C 1527.14 716.966 1514.43 713.954 1501.65 711.033 C 1505.93 703.457 1510.08 695.979 1513.54 687.984 z"/>
<path transform="translate(0,0)" fill="rgb(1,1,1)" d="M 1888.23 825.447 C 1890.16 826.156 1891.55 827.218 1893.19 828.439 C 1898.17 841.43 1905.7 963.133 1902.26 977.339 C 1901.59 980.092 1900.79 980.84 1898.44 982.257 C 1892.32 969.482 1884.98 897.868 1883.54 880.374 C 1882.31 865.444 1878.28 837.219 1888.23 825.447 z"/>
<path transform="translate(0,0)" fill="rgb(254,254,254)" d="M 0 1039.02 L 189.324 995.185 A 2817.08 2817.08 0 0 0 250.225 980.705 C 261.923 977.809 274.147 975.37 285.325 970.811 C 287.624 1051.34 315.529 1124.66 374.809 1180.57 C 393.613 1198.3 414.719 1210.74 436.916 1223.53 C 438.859 1268.12 439.273 1312.77 441.314 1357.38 C 443.161 1397.73 446.737 1438.06 447.571 1478.44 C 431.739 1480.08 415.698 1484.49 400.116 1487.86 A 5491.41 5491.41 0 0 0 306.579 1508.92 A 15826.3 15826.3 0 0 0 0 1582.61 L 0 1039.02 z"/>
<path transform="translate(0,0)" fill="rgb(1,1,1)" d="M 20.6658 1158.34 C 21.794 1158.91 23.2723 1159.56 24.1332 1160.5 C 30.6204 1167.62 35.8712 1295.88 33.0128 1311.49 C 32.3744 1314.98 31.5544 1315.5 28.6529 1317.43 C 24.6549 1310.59 24.2688 1300.85 23.3228 1293.03 C 20.104 1266.43 10.8811 1190.61 16.5394 1166.41 C 17.2889 1163.2 18.6588 1160.91 20.6658 1158.34 z"/>
<path transform="translate(0,0)" fill="rgb(1,1,1)" d="M 237.095 1272.49 C 237.968 1273.15 238.546 1273.51 239.251 1274.44 C 245.623 1282.81 251.684 1402.67 250.232 1417.49 C 249.97 1420.16 249.531 1421.06 247.446 1422.69 L 244.76 1422.08 C 235.297 1399.62 225.843 1306.12 230.841 1282.06 C 231.841 1277.24 232.931 1275.21 237.095 1272.49 z"/>
<path transform="translate(0,0)" fill="rgb(254,254,254)" d="M 800.916 271.413 A 279.39 279.39 0 0 1 881.944 277.061 C 954.061 293.408 1022.27 339.185 1060.51 403.14 C 1065.95 412.234 1071.04 421.725 1075.15 431.499 C 1079.7 442.335 1083.07 452.901 1089.36 462.92 C 1092.38 463.859 1094.79 464.578 1097.99 463.792 C 1104.61 462.168 1108.43 454.167 1111.49 448.746 C 1131.95 412.488 1180.49 384.963 1219.54 374.189 A 225.374 225.374 0 0 1 1391.3 397.564 A 224.783 224.783 0 0 1 1497.97 534.949 C 1510.78 583.076 1509.37 636.822 1488.36 682.428 C 1483.02 694.031 1475.68 704.019 1469.55 715.103 C 1467.2 719.342 1466.29 722.68 1467.85 727.397 C 1469 730.848 1472.77 733.686 1476.17 734.7 C 1483.5 736.881 1491.99 736.798 1499.58 737.67 C 1518.63 739.858 1535.64 746.02 1552.48 755.071 C 1608.76 785.318 1651.25 840.402 1669.42 901.38 C 1684.97 953.586 1686.39 1016.65 1659.72 1065.87 C 1664.97 1042.13 1670 1018.19 1674.11 994.231 C 1670.2 986.443 1664.68 979.902 1659.31 973.102 C 1631.76 974.708 1603.72 979.139 1576.24 982.097 A 10849.2 10849.2 0 0 0 1410.54 1001.13 C 1405.89 980.189 1386.28 893.181 1375.57 880.808 C 1373.41 878.321 1371.4 877.224 1368.07 877.006 C 1365.39 877.753 1363.28 878.974 1361.59 881.232 C 1359.55 883.952 1359.02 887.102 1359.45 890.416 C 1360.78 900.621 1366.22 910.942 1368.94 920.937 C 1376.3 947.935 1383.25 975.273 1388.27 1002.8 C 1368.38 1005.8 1348.13 1007.29 1328.12 1009.31 C 1314.67 1011.64 1269.54 1012.08 1260.49 1017.25 C 1253.22 1029.66 1233.86 1149.04 1228.49 1174.35 A 8882.44 8882.44 0 0 1 1010.63 1197.65 C 984.286 1200.23 957.801 1201.92 931.507 1204.8 C 930.22 1211.78 929.793 1218.97 929.155 1226.05 A 91.5805 91.5805 0 0 1 926.287 1226.35 C 897.247 1229.16 862.53 1226.88 833.207 1226.06 A 2659.26 2659.26 0 0 0 728.542 1225.18 A 2212.19 2212.19 0 0 0 633.207 1228.14 C 599.558 1229.97 564.752 1234.53 531.35 1228.68 C 483.567 1220.32 437.353 1201.29 399.971 1170.03 A 250.505 250.505 0 0 1 311.178 997.139 A 263.375 263.375 0 0 1 371.483 805.002 C 416.466 751.789 476.57 720.689 545.896 714.665 C 551.095 714.214 556.727 713.624 560.13 709.162 C 562.84 705.608 563.688 700.485 562.769 696.169 C 560.709 686.488 555.024 676.608 551.519 667.292 A 275.655 275.655 0 0 1 535.111 598.464 C 527.188 516.428 548.335 436.412 601.539 372.52 C 652.022 311.896 723.144 278.479 800.916 271.413 z"/>
<path transform="translate(0,0)" fill="rgb(1,1,1)" d="M 935.113 1034.95 C 943.796 1034.35 953.348 1041.78 961.132 1045.43 C 984.267 1056.27 989.445 1049.47 1009.8 1042.26 C 1013.57 1040.92 1016.59 1040.08 1020.36 1041.85 C 1021.72 1043.33 1022.61 1044.48 1023.09 1046.44 C 1024.01 1050.2 1023.02 1052.34 1021.07 1055.44 C 1015.74 1058.89 1010.03 1061.38 1003.96 1063.22 C 983.145 1069.53 963.046 1067.64 943.973 1057.13 C 938.89 1054.33 932.738 1050.39 931.528 1044.24 C 930.721 1040.13 932.689 1037.88 935.113 1034.95 z"/>
<path transform="translate(0,0)" fill="rgb(1,1,1)" d="M 1057.18 623.107 C 1061.36 622.914 1064.81 623.063 1068.62 624.973 C 1079.41 630.387 1085.29 642.265 1088.56 653.371 C 1094.51 673.574 1093.38 697.269 1082.95 715.886 C 1077.84 725.002 1071.81 730.004 1061.76 732.652 C 1058.72 732.833 1055.61 732.455 1052.75 731.373 C 1044.07 728.091 1037.94 720.959 1034.11 712.716 C 1025.38 693.911 1025.59 669.665 1032.85 650.452 C 1037.59 637.877 1044.72 628.644 1057.18 623.107 z"/>
<path transform="translate(0,0)" fill="rgb(1,1,1)" d="M 936.573 621.074 C 940.51 621.212 943.712 621.775 947.226 623.653 C 958.292 629.567 964.6 642.279 967.83 653.949 C 973.296 673.69 971.582 699.039 961.082 716.91 C 955.826 725.854 949.337 731.345 939.276 733.924 C 935.75 733.572 932.662 733.069 929.462 731.461 C 918.919 726.162 912.424 715.777 908.779 704.886 C 902.157 685.104 903.61 660.688 913.186 642.086 C 918.439 631.88 925.549 624.563 936.573 621.074 z"/>
<path transform="translate(0,0)" fill="rgb(1,1,1)" d="M 836.965 752.997 C 841.449 753.785 846.651 755.209 848.794 759.722 C 852.108 766.702 851.822 777.116 852.778 784.726 C 856.601 815.172 866.811 842.709 886.477 866.582 C 911.426 896.868 949.92 914.378 988.603 917.803 C 1028.24 921.312 1065.41 911.535 1096.04 885.449 A 168.202 168.202 0 0 0 1154.8 773.522 C 1155.27 768.392 1155.86 761.338 1160.37 757.971 C 1163.09 755.947 1167.51 754.301 1170.91 755.022 C 1173.08 755.481 1174.65 756.778 1175.88 758.563 C 1181.07 766.088 1178.96 776.111 1177.72 784.461 A 220.087 220.087 0 0 1 1172.91 807.2 C 1160.02 854.558 1127.67 897.771 1084.82 921.964 C 1045.79 943.997 996.48 947.728 953.643 935.614 A 167.3 167.3 0 0 1 851.6 855.788 C 840.667 836.178 821.667 782.751 828.77 761.234 C 830.251 756.747 832.915 755.068 836.965 752.997 z"/>
<path transform="translate(0,0)" fill="rgb(1,1,1)" d="M 634.834 857.012 C 636.035 856.883 637.317 856.699 638.533 856.716 C 642.393 856.772 644.937 858.102 646.968 861.47 C 653.579 872.435 652.896 893.132 655.093 905.881 C 656.364 913.254 658.623 920.549 660.658 927.75 C 677.802 988.428 708.592 1050.79 751.637 1097.38 C 781.035 1129.21 822.235 1158.94 866.392 1164.32 C 880.785 1166.07 895.232 1164.53 909.682 1165.08 C 912.578 1166.91 915.368 1168.66 917.399 1171.49 C 920.119 1175.27 921.23 1179.8 920.439 1184.41 C 918.627 1194.96 909.173 1203.25 901.021 1209.35 A 69.2556 69.2556 0 0 1 868.983 1220.8 C 836.533 1224.11 805.067 1210.01 780.514 1189.7 C 732.214 1149.75 698.545 1092.19 674.891 1034.83 C 666.091 1013.49 658.641 991.445 650.58 969.805 C 646.68 959.334 632 923.812 631.33 915.686 C 630.87 910.11 633.198 903.917 633.168 898.173 C 633.117 888.51 630.563 879.023 629.873 869.431 C 629.463 863.728 631.226 861.256 634.834 857.012 z"/>
<path transform="translate(0,0)" fill="rgb(254,254,254)" d="M 2048 1170.26 L 2048 2048 L 0 2048 L 0 1593.65 C 29.0219 1587.51 57.9012 1578.37 86.7618 1571.25 A 12473.8 12473.8 0 0 1 233.79 1537.15 A 5631.05 5631.05 0 0 1 367.889 1507.34 C 394.552 1501.71 421.319 1497.03 447.794 1490.49 C 450.545 1536.25 454.705 1582.18 458.724 1627.85 C 378.321 1634.11 117.19 1657.65 69.1037 1715.54 C 61.8504 1724.27 58.2 1734.23 59.3675 1745.64 C 60.6802 1758.48 68.3373 1768.61 78.0856 1776.51 C 135.519 1823.03 311.659 1821 383.968 1813.25 C 445.156 1847.8 514.391 1862.68 583.756 1869.86 C 721.59 1884.11 856.376 1867.4 991.668 1841.46 A 3989.69 3989.69 0 0 0 1130.56 1812.59 C 1158.51 1806.14 1186.66 1798.69 1214.05 1790.15 C 1228.12 1785.76 1262.18 1770.93 1273.86 1770.4 C 1286.92 1769.8 1306.97 1775.99 1320.37 1778.44 A 782.029 782.029 0 0 0 1382.75 1787.41 C 1438.18 1792.85 1494.62 1797.58 1550.35 1797.82 C 1637 1798.2 1730.02 1789.38 1815.82 1776.65 C 1843.16 1772.6 1870.93 1769.01 1897.75 1762.23 C 1922.69 1755.92 1951.01 1747.79 1971.03 1731.08 C 1981.31 1722.5 1988.11 1711.45 1988.98 1697.86 C 1989.61 1688.04 1987.21 1678.97 1980.31 1671.74 C 1949.49 1639.44 1748.49 1618.17 1697.27 1613.95 A 1521.97 1521.97 0 0 0 1597.56 1609.45 C 1569.96 1609.2 1541.94 1610.32 1514.38 1611.73 C 1499.79 1612.48 1484.31 1614.73 1469.78 1613.66 C 1459.26 1612.89 1448.4 1607.32 1438.11 1604.75 C 1412.85 1598.43 1386.68 1593.28 1360.85 1589.92 C 1276.96 1579.03 1191.42 1580.33 1106.99 1579.19 C 1106.06 1600.61 1105.19 1622.26 1105.5 1643.7 C 1136.29 1656.66 1194.34 1648.62 1216.34 1672.15 C 1221.26 1677.41 1224.78 1684.89 1224.13 1692.22 C 1223.45 1699.86 1218.31 1706.95 1212.44 1711.57 C 1189.83 1729.37 1137.97 1729.16 1109.83 1726.28 C 1084.19 1723.66 1050.92 1717.15 1034 1695.54 C 1013.4 1669.24 1029.93 1613.66 1033.45 1582.65 C 982.539 1585.62 911.538 1611.78 863.332 1629.5 C 861.626 1645.07 861.481 1682.3 856.841 1694.22 C 852.007 1706.64 835.695 1715.81 824.168 1721.17 C 791.161 1736.51 725.432 1747.55 690.662 1734.3 C 680.593 1730.46 669.543 1723.95 665.223 1713.61 C 661.995 1705.89 663.084 1697.64 666.139 1690.07 C 668.689 1683.74 671.792 1679.45 677.904 1676.21 C 688.171 1670.76 702.341 1671.03 713.709 1669.39 C 726.914 1667.49 740.568 1664.8 752.918 1659.61 C 769.662 1652.56 778.339 1642.12 784.945 1625.61 C 757.571 1621.6 729.712 1620.77 702.096 1619.81 C 624.838 1617.13 548.066 1620.46 471.039 1626.62 C 471.131 1580.21 465.298 1533.91 464.895 1487.54 C 545.731 1470.1 627.223 1454.73 708.278 1438.26 L 770.309 1426.13 C 782.906 1423.69 795.994 1421.69 808.234 1417.83 C 810.031 1414.72 809.778 1410.01 810.03 1406.47 C 771.232 1411.53 732.526 1420.78 694.161 1428.43 L 463.793 1474.84 C 460.253 1434.03 459.472 1393 457.266 1352.11 C 455.089 1311.76 451.46 1271.2 450.814 1230.8 C 478.54 1245.19 512.991 1253.46 543.971 1256.26 C 581.396 1259.64 630.73 1253.87 669.568 1252.6 C 725.895 1250.75 782.046 1251.82 838.364 1253.12 C 833.326 1291.59 830.407 1330.43 826.078 1369 C 820.794 1416.07 814.35 1463.02 809.478 1510.15 A 4258.01 4258.01 0 0 1 800.146 1597.61 C 798.854 1608.64 798.517 1620.88 795.89 1631.64 A 52.2891 52.2891 0 0 1 782.748 1655.78 C 754.597 1685.66 688.547 1681.71 680.323 1691.19 C 677.056 1694.96 676.349 1700.77 676.9 1705.56 C 677.438 1710.23 680.041 1714.04 683.804 1716.78 C 702.809 1730.62 748.864 1726.44 771.32 1722.82 C 798.131 1718.5 830.123 1708.97 846.723 1685.85 L 865.469 1403.58 C 888.023 1403.79 912.373 1398.26 934.52 1394.2 C 976.474 1386.49 1019.21 1377.04 1061.74 1373.67 L 1043.71 1590.54 C 1042.05 1612.69 1036.94 1645.44 1037.81 1666.17 C 1038.13 1673.62 1039.91 1680.62 1044.46 1686.62 C 1057.58 1703.94 1084.55 1709.78 1104.87 1712.44 C 1128.71 1715.55 1187.58 1716.24 1206.28 1700.8 C 1209.3 1698.31 1211.4 1695.03 1211.53 1691.05 C 1212.56 1659.39 1109.43 1671.09 1092.39 1654.23 C 1089.06 1644.64 1107.89 1351.42 1111.25 1314.02 C 1134.78 1323.67 1158 1333.54 1181.82 1342.51 C 1165.37 1345.62 1132.53 1346.85 1118.9 1352.38 C 1117.83 1355.36 1118.1 1358.49 1118.11 1361.61 C 1123.06 1364.77 1186.03 1352.68 1197.25 1351.79 C 1209.01 1350.84 1218.74 1358.77 1230.13 1357.94 C 1284.24 1353.95 1337.94 1340.41 1392.12 1336.88 C 1395.99 1341.82 1400.14 1345.66 1405.44 1349.01 C 1424.51 1361.04 1450.47 1364.91 1472.36 1359.69 C 1483.07 1357.14 1493.88 1351.79 1499.61 1341.96 C 1504.1 1334.27 1504.74 1326.65 1502.72 1318.14 C 1524.6 1315.31 1546.38 1311.97 1568.22 1308.94 C 1582.44 1306.98 1597.45 1305.85 1611.35 1302.29 C 1616.2 1288.83 1618.58 1273.87 1621.51 1259.87 C 1653.57 1251.64 1685.59 1245.2 1717.93 1238.37 C 1745.57 1232.53 1772.98 1226.16 1800.73 1220.84 C 1800.86 1250.24 1807.26 1463.74 1816.75 1473.38 L 1818.94 1473.01 C 1828.9 1458.52 1818.46 1248.05 1817.19 1217.61 C 1849.48 1209.55 1882.53 1203.99 1915.16 1197.43 L 2048 1170.26 z"/>
<path transform="translate(0,0)" fill="rgb(1,1,1)" d="M 1561.04 1394.47 C 1562.12 1394.77 1562.67 1394.89 1563.64 1395.27 C 1566.4 1396.33 1567.63 1398.79 1568.66 1401.39 C 1575.61 1418.93 1581.33 1492.21 1573.57 1509.41 C 1572.29 1508.05 1571.32 1506.61 1570.61 1504.87 C 1563.02 1486.22 1555.2 1426.17 1557.64 1405.45 C 1558.1 1401.5 1559.43 1398.08 1561.04 1394.47 z"/>
<path transform="translate(0,0)" fill="rgb(254,254,254)" d="M 0 0 L 2048 0 L 2048 560.486 L 1816.11 607.265 C 1782.88 614.238 1748.07 618.58 1715.68 628.725 C 1679.71 620.412 1642.84 615.073 1606.48 608.737 C 1581.44 604.373 1556.48 598.515 1531.2 595.796 C 1529.41 525.713 1503.12 461.043 1451.98 412.408 A 255.444 255.444 0 0 0 1268.5 341.985 C 1208.85 343.6 1149.88 368.283 1108.81 412.005 C 1105 416.062 1101.53 420.409 1098.1 424.787 C 1095.27 417.248 1092.51 409.695 1088.51 402.681 C 1081.85 391.006 1067.64 376.537 1065.06 363.551 C 1063.06 353.521 1063.13 342.539 1062.5 332.326 L 1059.24 276.316 A 7206.32 7206.32 0 0 0 1050.69 154.442 C 1048.83 128.208 1047.81 95.4907 1043.03 70.0004 C 1042.42 66.7349 1041.73 62.7745 1038.98 60.6498 C 1036.94 61.3479 1037.49 60.7277 1036.64 62.5957 C 1024.75 88.7614 1045.71 302.155 1047.79 347.396 C 1033.58 333.019 1019.28 319.197 1003.15 306.959 A 305.088 305.088 0 0 0 820.931 246.177 C 742.581 245.573 661.273 277.862 605.451 333.039 A 322.707 322.707 0 0 0 515.499 500.416 C 511.442 521.993 510.146 543.56 509.2 565.46 A 3113.98 3113.98 0 0 0 370.488 536.149 C 306.848 524.401 243.095 514.814 179.808 501.023 C 178.366 477.158 178.047 453.164 177.118 429.266 L 171.113 282.871 C 169.835 253.417 170.547 222.37 166.492 193.181 C 166.008 189.7 165.397 185.905 162.978 183.228 C 161.072 183.976 161.623 183.384 160.707 185.284 C 149.305 208.942 162.841 449.775 163.15 497.735 C 150.932 495.206 90.6751 479.254 82.7634 483.415 C 81.8648 483.888 81.4593 484.436 80.8211 485.142 C 80.7874 486.725 80.4327 487.076 81.5976 488.363 C 86.4942 493.772 151.783 508.819 163.917 511.573 C 167.983 605.931 169.89 700.334 175.686 794.626 C 176.823 813.126 176.113 850.438 182.9 866.49 L 184.558 867.9 C 186.559 866.5 186.837 864.826 187.304 862.502 C 189.728 850.441 189.066 836.966 189.147 824.694 A 1713.59 1713.59 0 0 0 187.789 744.812 L 183.971 601.371 C 183.068 572.621 181.016 543.791 180.943 515.039 A 3248.76 3248.76 0 0 0 509.804 573.26 C 511.252 599.902 514.498 626.235 521.499 652.041 C 525.077 665.227 529.782 678.144 533.728 691.234 A 280.336 280.336 0 0 0 348.656 794.687 C 310.374 843.252 290.097 898.706 286.29 960.283 C 235.987 973.66 184.689 984.162 133.926 995.638 C 89.211 1005.75 44.3219 1016.88 0 1028.61 L 0 0 z"/>
<path transform="translate(0,0)" fill="rgb(1,1,1)" d="M 298.746 602.374 C 303.825 605.132 305.717 608.985 307.496 614.329 C 313.707 632.99 321.179 696.746 312.774 713.715 L 310.875 712.675 C 305.24 703.564 301.167 671.578 299.289 659.534 C 297.172 645.963 290.911 613.101 298.746 602.374 z"/>
<path transform="translate(0,0)" fill="rgb(1,1,1)" d="M 1472.07 126.28 C 1473.32 126.722 1474.39 126.823 1475.24 127.923 C 1483.04 137.991 1489.19 245.338 1486.68 261.942 C 1486.22 264.987 1485.37 265.777 1483.01 267.633 C 1476.15 254.795 1473.27 222.281 1471.36 206.933 C 1469.25 189.907 1462.03 139.166 1472.07 126.28 z"/>
<path transform="translate(0,0)" fill="rgb(1,1,1)" d="M 1758.38 297.132 C 1759.6 297.475 1760.66 298.08 1761.79 298.642 C 1768.9 309.831 1768.83 332.488 1770.15 345.587 C 1772.12 365.1 1779 426.026 1774.19 441.998 C 1773.69 443.666 1772.6 444.936 1771.52 446.258 C 1770.12 444.746 1769.27 443.775 1768.48 441.826 C 1761.85 425.47 1754.27 342.521 1754.56 322.648 C 1754.69 313.73 1755 305.507 1758.38 297.132 z"/>
<path transform="translate(0,0)" fill="rgb(1,1,1)" d="M 539.344 131.254 C 540.301 131.377 542.134 131.576 543.012 131.853 C 544.773 132.408 545.462 132.985 546.228 134.588 C 553.737 150.293 567.782 260.952 562.418 275.665 C 560.904 275.454 559.801 275.092 558.376 274.575 C 549.986 262.666 540.011 182.993 538.797 164.031 C 538.086 152.942 537.888 142.286 539.344 131.254 z"/>
</svg>