<svg width="500" height="425" viewBox="0 0 500 425" fill="none" xmlns="http://www.w3.org/2000/svg">
<path d="M441.675 141.27C423.871 102.171 389.487 71.841 349.964 55.524C310.441 39.207 266.167 36.31 224.029 43.364C184.396 50 145.805 65.546 114.757 91.224C83.709 116.902 60.627 153.094 53.816 192.965C48.038 226.791 53.92 261.589 63.048 294.658C68.593 314.746 80.595 335.964 94.71 351.326C117.32 375.932 155.117 397.828 182.646 397.229L179.559 397.405C271.396 409.046 365.842 373.715 409.497 324.801C453.153 275.887 468.896 201.049 441.675 141.27Z" fill="#FFE6DE"/>
<path d="M353.845 317.974C353.845 317.974 366.839 298.66 348.957 290.411C348.957 290.411 360.551 293.712 365.926 285.841C371.3 277.97 372.166 269.117 372.166 269.117C372.166 269.117 376.542 283.491 386.093 284.563C399.219 286.037 404.403 280.981 404.403 280.981C404.403 280.981 400.323 291.372 403.076 299.225C405.829 307.078 414.119 308.16 414.119 308.16C414.119 308.16 399.043 307.227 393.59 315.903C388.137 324.578 388.56 334.1 388.56 334.1C388.56 334.1 385.043 320.214 370.419 317.429C355.796 314.643 353.845 317.974 353.845 317.974Z" fill="white"/>
<path d="M157.115 108.196C157.115 108.196 167.891 92.1802 153.062 85.3392C153.062 85.3392 162.677 88.0762 167.134 81.5492C171.591 75.0222 172.309 67.6802 172.309 67.6802C172.309 67.6802 175.938 79.6002 183.859 80.4892C194.744 81.7122 199.043 77.5192 199.043 77.5192C199.043 77.5192 195.66 86.1362 197.943 92.6482C200.226 99.1602 207.101 100.057 207.101 100.057C207.101 100.057 194.599 99.2832 190.076 106.478C185.554 113.672 185.905 121.568 185.905 121.568C185.905 121.568 182.988 110.052 170.861 107.743C158.732 105.434 157.115 108.196 157.115 108.196Z" fill="white"/>
<path d="M424.273 195.48C424.273 195.48 409.016 181.126 399.084 195.802C399.084 195.802 403.705 185.987 397.5 180.067C391.294 174.147 383.558 172.087 383.558 172.087C383.558 172.087 396.96 170.296 399.305 161.971C402.528 150.53 398.794 145.189 398.794 145.189C398.794 145.189 407.426 150.327 414.801 149.027C422.176 147.727 424.345 140.523 424.345 140.523C424.345 140.523 421.319 153.775 428.228 159.882C435.137 165.989 443.654 167.001 443.654 167.001C443.654 167.001 430.81 168.1 426.205 180.681C421.601 193.262 424.273 195.48 424.273 195.48Z" fill="white"/>
<path d="M75.0621 206.466L76.6591 201.604L78.4721 206.466C78.4721 206.466 82.0951 207.082 82.1371 207.42C82.1781 207.75 78.6701 208.785 78.6701 208.785C78.6701 208.785 77.1971 213.499 76.6591 212.432C76.1201 211.364 75.5981 209 75.5981 209C75.5981 209 71.0361 208.052 71.0361 207.587C71.0361 207.083 75.0621 206.466 75.0621 206.466Z" fill="white"/>
<path d="M435.492 232.082L437.089 227.22L438.902 232.082C438.902 232.082 442.525 232.698 442.567 233.036C442.608 233.366 439.1 234.401 439.1 234.401C439.1 234.401 437.627 239.116 437.089 238.048C436.551 236.98 436.028 234.617 436.028 234.617C436.028 234.617 431.466 233.669 431.466 233.204C431.466 232.699 435.492 232.082 435.492 232.082Z" fill="white"/>
<path d="M352.141 152.201L353.738 147.339L355.551 152.201C355.551 152.201 359.174 152.817 359.216 153.155C359.257 153.485 355.749 154.52 355.749 154.52C355.749 154.52 354.276 159.235 353.738 158.167C353.2 157.099 352.677 154.736 352.677 154.736C352.677 154.736 348.115 153.788 348.115 153.323C348.115 152.819 352.141 152.201 352.141 152.201Z" fill="white"/>
<path d="M374.769 104.003L378.826 91.647L383.434 104.003C383.434 104.003 392.64 105.569 392.747 106.427C392.852 107.266 383.936 109.894 383.936 109.894C383.936 109.894 380.194 121.874 378.826 119.161C377.458 116.448 376.131 110.441 376.131 110.441C376.131 110.441 364.539 108.033 364.539 106.851C364.539 105.572 374.769 104.003 374.769 104.003Z" fill="white"/>
<path d="M97.9321 313.964L101.99 301.608L106.598 313.964C106.598 313.964 115.804 315.53 115.911 316.388C116.016 317.227 107.1 319.855 107.1 319.855C107.1 319.855 103.358 331.835 101.99 329.122C100.622 326.409 99.2951 320.402 99.2951 320.402C99.2951 320.402 87.7031 317.994 87.7031 316.812C87.7021 315.533 97.9321 313.964 97.9321 313.964Z" fill="white"/>
<path d="M229.219 115.796L230.724 111.212L232.434 115.796C232.434 115.796 235.849 116.377 235.889 116.696C235.928 117.007 232.62 117.982 232.62 117.982C232.62 117.982 231.232 122.427 230.724 121.42C230.216 120.413 229.724 118.185 229.724 118.185C229.724 118.185 225.423 117.292 225.423 116.853C225.424 116.378 229.219 115.796 229.219 115.796Z" fill="white"/>
<path d="M289.128 57.5249L290.633 52.9409L292.343 57.5249C292.343 57.5249 295.758 58.1059 295.798 58.4239C295.837 58.7349 292.529 59.7099 292.529 59.7099C292.529 59.7099 291.141 64.1549 290.633 63.1479C290.125 62.1409 289.633 59.9129 289.633 59.9129C289.633 59.9129 285.332 59.0199 285.332 58.5809C285.332 58.1069 289.128 57.5249 289.128 57.5249Z" fill="white"/>
<path d="M123.697 116.467L125.202 111.883L126.912 116.467C126.912 116.467 130.327 117.048 130.367 117.366C130.406 117.677 127.098 118.652 127.098 118.652C127.098 118.652 125.71 123.097 125.202 122.09C124.694 121.083 124.202 118.855 124.202 118.855C124.202 118.855 119.901 117.962 119.901 117.523C119.902 117.049 123.697 116.467 123.697 116.467Z" fill="white"/>
<path d="M343.908 268.339L345.413 263.755L347.123 268.339C347.123 268.339 350.538 268.92 350.578 269.238C350.617 269.549 347.309 270.524 347.309 270.524C347.309 270.524 345.921 274.969 345.413 273.962C344.905 272.955 344.413 270.727 344.413 270.727C344.413 270.727 340.112 269.833 340.112 269.395C340.113 268.921 343.908 268.339 343.908 268.339Z" fill="white"/>
<path d="M152.287 189.88L155.431 180.305L159.002 189.88C159.002 189.88 166.136 191.093 166.219 191.759C166.3 192.409 159.391 194.446 159.391 194.446C159.391 194.446 156.491 203.73 155.431 201.628C154.371 199.525 153.342 194.871 153.342 194.871C153.342 194.871 144.358 193.005 144.358 192.089C144.359 191.096 152.287 189.88 152.287 189.88Z" fill="white"/>
<path d="M335.007 112.345L336.999 106.281L339.261 112.345C339.261 112.345 343.779 113.114 343.832 113.535C343.883 113.947 339.507 115.237 339.507 115.237C339.507 115.237 337.67 121.117 336.999 119.786C336.327 118.454 335.676 115.506 335.676 115.506C335.676 115.506 329.986 114.324 329.986 113.744C329.986 113.115 335.007 112.345 335.007 112.345Z" fill="white"/>
<path d="M226.663 168.131C243.101 182.473 257.794 199.264 268.467 218.362C272.821 226.152 276.517 234.372 278.892 242.99C280.814 249.964 281.908 257.317 281.082 264.547C280.384 270.657 278.123 276.642 273.907 281.199C269.51 285.953 263.475 288.639 257.173 289.768C249.432 291.155 241.372 290.364 233.744 288.688C224.194 286.59 214.996 283.013 206.255 278.67C196.033 273.591 186.365 267.416 177.273 260.525C168.612 253.961 160.433 246.803 153.378 238.516C141.498 224.562 132.569 208.168 126.182 191.037C121.479 178.422 117.769 165.069 116.553 151.62C116.264 148.422 115.828 144.741 116.687 141.588C116.915 140.751 117.266 140.293 118.113 139.759C119.448 138.918 121.011 138.442 122.524 138.042C127.602 136.7 132.956 136.352 138.187 136.278C145.784 136.171 153.397 136.828 160.891 138.066C179.765 141.183 198.118 148.004 214.096 158.58C218.49 161.487 222.683 164.68 226.663 168.131C227.362 168.737 228.388 167.72 227.684 167.11C212.079 153.58 193.207 144.229 173.226 139.169C158.784 135.512 143.216 133.575 128.353 135.492C124.686 135.965 120.323 136.521 117.174 138.648C115.016 140.106 114.917 142.671 114.847 145.074C114.709 149.874 115.351 154.719 116.124 159.445C117.266 166.431 118.941 173.332 120.982 180.108C126.153 197.276 133.739 213.87 143.973 228.62C156.566 246.771 173.687 261.158 192.442 272.654C201.633 278.287 211.35 283.155 221.542 286.703C229.887 289.609 238.674 291.679 247.54 291.884C254.466 292.044 261.616 291.002 267.786 287.701C273.282 284.761 277.579 280.027 280.031 274.302C285.94 260.502 281.713 244.088 276.199 230.895C268.094 211.505 255.129 194.191 240.519 179.225C236.407 175.013 232.119 170.978 227.684 167.109C226.987 166.502 225.961 167.519 226.663 168.131Z" fill="white"/>
<path d="M270.007 163.702C253.07 178.444 238.028 195.942 227.514 215.867C220.003 230.101 213.767 247.095 216.371 263.437C217.396 269.871 220.072 276.039 224.589 280.794C229.298 285.751 235.665 288.739 242.312 290.063C250.245 291.643 258.483 291.103 266.379 289.576C276.181 287.681 285.646 284.19 294.636 279.893C305.37 274.762 315.496 268.383 324.969 261.199C333.74 254.547 341.981 247.294 349.022 238.806C360.892 224.497 369.616 207.732 375.72 190.222C380.279 177.142 383.758 163.278 384.557 149.402C384.742 146.182 385.062 142.374 383.968 139.264C383.047 136.646 379.721 135.638 377.326 134.929C372.032 133.363 366.388 132.852 360.894 132.64C353.14 132.341 345.362 132.844 337.682 133.92C318.23 136.646 299.171 143.326 282.705 154.109C278.262 157.018 274.024 160.229 270.007 163.702C269.303 164.311 270.328 165.329 271.028 164.723C286.407 151.423 305.13 142.481 324.857 137.799C339.366 134.356 354.933 132.753 369.777 134.838C373.527 135.365 377.905 135.99 381.164 138.083C383.103 139.328 383.105 141.694 383.196 143.982C383.386 148.784 382.865 153.636 382.175 158.381C381.177 165.242 379.676 172.032 377.815 178.709C373.125 195.533 366.094 211.824 356.433 226.402C351.095 234.456 344.918 241.965 337.869 248.583C329.216 256.706 319.524 263.889 309.438 270.129C292.972 280.316 273.785 288.989 254.115 289.54C246.983 289.74 239.609 288.749 233.208 285.435C227.452 282.456 222.928 277.658 220.279 271.744C214.098 257.942 218.07 241.325 223.455 227.964C231.237 208.657 244.015 191.391 258.473 176.566C262.492 172.445 266.687 168.501 271.029 164.722C271.731 164.112 270.706 163.094 270.007 163.702Z" fill="white"/>
<path d="M313.898 178.655C313.87 201.354 310.378 224.477 301.619 245.523C295.308 260.689 285.552 276.688 270.37 284.304C264.227 287.386 257.256 288.712 250.43 287.691C243.398 286.639 236.928 283.271 231.479 278.783C217.355 267.151 209.049 249.27 203.866 232.112C200.56 221.169 198.446 209.871 197.327 198.499C196.203 187.07 195.824 175.434 197.337 164.024C199.97 144.159 207.715 125.177 218.276 108.241C225.983 95.883 235.275 83.883 246.51 74.51C248.107 73.178 249.762 71.897 251.535 70.805C252.546 70.183 253.73 69.427 254.94 69.284C255.767 69.186 257.146 69.72 258.101 70.19C259.922 71.086 261.61 72.256 263.223 73.48C268.156 77.223 272.547 81.716 276.631 86.353C282.158 92.627 287.127 99.392 291.568 106.474C302.244 123.502 309.965 142.613 312.77 162.577C313.518 167.903 313.888 173.277 313.898 178.655C313.9 179.584 315.344 179.586 315.342 178.655C315.299 157.239 309.23 136.231 299.417 117.296C291.789 102.578 281.914 88.501 269.755 77.156C266.336 73.966 262.565 70.599 258.248 68.671C257.106 68.161 255.825 67.686 254.555 67.892C253.26 68.102 252.027 68.815 250.923 69.487C246.626 72.102 242.838 75.65 239.293 79.186C233.875 84.59 228.943 90.483 224.407 96.641C212.812 112.382 203.693 130.226 198.782 149.196C192.962 171.68 194.188 195.67 198.87 218.262C202.862 237.527 210.007 257.318 222.99 272.431C232.526 283.53 246.222 291.676 261.287 288.904C276.981 286.016 288.617 272.81 296.262 259.651C307.246 240.741 312.552 218.674 314.515 197.049C315.07 190.934 315.334 184.797 315.341 178.657C315.344 177.726 313.9 177.724 313.898 178.655Z" fill="white"/>
<path d="M321.828 77.2302C316.111 70.3072 306.497 66.6232 297.191 67.1922L297.253 67.1792C290.469 67.1802 281.785 69.4422 277.24 74.2192C272.695 78.9962 270.239 85.3862 270.064 91.7632C269.807 101.132 274.826 110.451 282.841 115.817C281.449 118.408 279.395 120.645 276.903 122.21C281.065 122.841 285.457 121.51 288.64 118.77C288.743 118.808 288.841 118.856 288.945 118.893C300.453 122.972 314.69 118.993 322.078 109.633C329.466 100.273 329.359 86.3492 321.828 77.2302Z" fill="#8380FF"/>
<path d="M292.126 88.6181C292.126 88.6181 296.259 74.2401 298.528 77.4651C300.796 80.6901 301.359 89.0331 301.359 89.0331L309.279 89.5981C312.315 89.8471 317.53 90.5051 308.939 94.1241L304.568 96.0671C304.568 96.0671 306.875 108.141 305.338 109.342C303.897 110.469 298.092 101.364 298.092 101.364C298.092 101.364 289.464 113.598 288.731 109.342C287.998 105.085 289.824 95.5321 289.824 95.5321C289.824 95.5321 276.119 89.8711 281.105 88.5641C282.163 88.2861 292.126 88.6181 292.126 88.6181Z" fill="white"/>
<path d="M305.399 83.1103C306.362 81.4343 307.543 79.9613 308.94 78.6283C309.546 78.0493 308.6 77.1023 308.02 77.7083C306.6 79.1923 305.514 80.9323 304.761 82.8413C304.614 83.2153 305.206 83.4463 305.399 83.1103Z" fill="#A0D2F4"/>
<path d="M307.614 85.5941C309.677 85.0361 311.824 84.2951 313.762 83.3921C314.642 82.9821 313.876 81.7061 313.004 82.0961C311.101 82.9461 309.188 84.0661 307.459 85.2271C307.275 85.3501 307.385 85.6561 307.614 85.5941Z" fill="#A0D2F4"/>
<path d="M284.805 81.46C286.4 82.427 287.902 83.765 289.645 84.445C290.271 84.689 290.811 83.736 290.305 83.31C288.875 82.106 286.979 81.43 285.369 80.493C284.746 80.131 284.189 81.087 284.805 81.46Z" fill="#A0D2F4"/>
<path d="M278.914 103.303C280.697 102.556 282.539 101.854 284.215 100.876C284.964 100.439 284.308 99.3944 283.549 99.7374C281.821 100.516 280.213 101.582 278.608 102.578C278.245 102.803 278.483 103.483 278.914 103.303Z" fill="#A0D2F4"/>
<path d="M282.3 108.738C283.35 107.394 284.384 106.028 285.322 104.603C285.78 103.908 284.682 103.286 284.216 103.956C283.268 105.318 282.405 106.742 281.571 108.176C281.316 108.616 281.967 109.164 282.3 108.738Z" fill="#A0D2F4"/>
<path d="M298.637 109.439C298.265 110.302 298.184 111.222 298.436 112.132C298.64 112.866 299.789 112.409 299.406 111.723C299.023 111.037 298.88 110.311 298.976 109.531C298.998 109.356 298.707 109.277 298.637 109.439Z" fill="#A0D2F4"/>
<path d="M308.287 101.059C309.181 102.676 310.606 104.825 312.366 105.561C312.94 105.801 313.554 104.98 313.192 104.486C312.66 103.76 311.884 103.254 311.24 102.63C310.544 101.955 309.926 101.215 309.344 100.441C308.882 99.827 307.895 100.35 308.287 101.059Z" fill="#A0D2F4"/>
<path d="M310.914 100.187C313.307 100.965 315.687 101.779 318.081 102.552C319.163 102.901 319.653 101.147 318.551 100.846C316.127 100.183 313.692 99.563 311.267 98.906C310.437 98.681 310.104 99.924 310.914 100.187Z" fill="#A0D2F4"/>
<path d="M89.8621 238.239C89.8621 238.239 57.8821 242.429 56.0811 246.441C55.5591 247.604 56.7491 253.423 56.7491 253.423C58.3871 255.674 106.793 265.926 109.991 264.767C113.189 263.608 131.148 259.096 134.055 255.744C135.194 254.431 132.647 247.515 132.647 247.515L89.8621 238.239Z" fill="#421B36"/>
<path d="M64.953 249.589C64.953 249.589 39.973 313.076 41.362 315.713C42.752 318.351 47.372 319.654 47.648 318.648C47.924 317.642 72.467 258.233 73.322 254.58C74.247 250.634 64.953 249.589 64.953 249.589Z" fill="#421B36"/>
<path d="M83.0262 245.495C83.0262 245.495 66.5052 311.689 68.2252 314.124C69.9452 316.559 75.8592 315.024 76.0032 313.99C76.1462 312.956 91.6002 253.09 91.9742 249.357C92.3782 245.324 83.0262 245.495 83.0262 245.495Z" fill="#421B36"/>
<path d="M103.762 258.876C103.762 258.876 95.0432 326.541 92.5542 328.182C90.0652 329.823 85.3882 328.738 85.6312 327.723C85.8742 326.708 93.0112 262.826 94.0222 259.214C95.1152 255.311 103.762 258.876 103.762 258.876Z" fill="#421B36"/>
<path d="M130.278 252.651C130.278 252.651 139.57 320.24 137.597 322.475C135.624 324.71 130.827 324.887 130.796 323.844C130.765 322.801 120.936 259.278 120.967 255.527C120.999 251.473 130.278 252.651 130.278 252.651Z" fill="#421B36"/>
<path d="M56.9738 246.857C71.2208 250.104 85.6068 252.855 100.005 255.345C102.161 255.718 104.32 256.091 106.487 256.396C107.353 256.518 108.201 256.698 109.06 256.508C113.349 255.558 117.582 254.156 121.81 252.97C126.067 251.777 130.323 250.58 134.578 249.38C135.492 249.122 135.104 247.695 134.185 247.954C125.99 250.264 117.803 252.607 109.586 254.836C109.2 254.941 108.789 255.1 108.39 255.151C108.504 255.137 108.484 255.138 108.265 255.13C108.042 255.121 107.819 255.09 107.598 255.064C105.73 254.85 103.872 254.511 102.019 254.197C95.2768 253.056 88.5548 251.792 81.8408 250.494C73.6628 248.913 65.4888 247.283 57.3668 245.431C56.4398 245.22 56.0448 246.645 56.9738 246.857Z" fill="#8380FF"/>
<path d="M83.7001 183.559C83.7001 183.559 100.197 214.847 104.568 215.086C114.197 215.613 132.615 207.4 136.644 202.783C138.417 200.751 131.913 173.915 130.134 166.425C127.775 156.493 78.7981 176.571 83.7001 183.559Z" fill="#8380FF"/>
<path d="M91.2661 177.518C91.2661 177.518 91.2751 177.786 91.4131 178.161C91.9851 179.715 94.7711 183.109 108.324 176.928C125.149 169.254 118.488 166.783 118.488 166.783" fill="#A0D2F4"/>
<path d="M86.417 183.974C100.349 182.221 113.55 177.21 125.149 169.253C125.984 168.68 125.03 167.245 124.194 167.818C112.833 175.611 99.892 180.541 86.245 182.258C85.245 182.384 85.412 184.1 86.417 183.974Z" fill="#421B36"/>
<path d="M102.857 177.187C102.804 177.109 102.751 177.03 102.698 176.952L102.677 176.96C102.735 177.037 102.799 177.109 102.857 177.187Z" fill="white"/>
<path d="M122.369 152.023C120.021 150.645 117.497 152.921 116.056 155.16C112.711 160.36 110.481 166.436 109.575 172.827C107.955 163.422 104.993 154.198 100.83 145.588C99.9471 143.763 98.8561 141.814 97.0871 141.085C95.0491 140.246 92.7691 141.442 91.6731 143.346C90.5771 145.25 90.4431 147.676 90.6221 149.989C91.3871 159.88 97.1281 168.719 102.699 176.952L116.778 171.567C121.022 168.635 123.878 163.564 124.408 158.022C124.617 155.822 124.229 153.114 122.369 152.023Z" fill="#A0D2F4"/>
<path d="M81.1481 159.99C79.1591 159.165 76.6341 158.599 75.2931 160.233C73.8731 161.963 74.8681 164.83 76.1461 166.869C80.5951 173.969 88.0961 178.828 95.7911 179.594L102.677 176.96C97.0071 169.392 89.4641 163.439 81.1481 159.99Z" fill="#A0D2F4"/>
<path d="M95.3599 169.631C97.8339 171.687 99.9559 174.109 101.677 176.827C102.132 177.546 103.214 176.785 102.759 176.066C100.982 173.259 98.7649 170.742 96.2099 168.617C95.5559 168.074 94.7029 169.085 95.3599 169.631Z" fill="#421B36"/>
<path d="M82.6992 176.098C86.5182 178.946 91.0403 180.774 95.7733 181.339C96.6163 181.439 96.8632 180.14 96.0162 180.039C91.5082 179.501 87.1913 177.801 83.5493 175.085C82.8703 174.578 82.0142 175.587 82.6992 176.098Z" fill="#421B36"/>
<path d="M109.757 173.999C110.088 168.993 109.6 164 108.292 159.156C108.07 158.334 106.826 158.784 107.047 159.602C108.289 164.203 108.771 168.999 108.457 173.756C108.402 174.596 109.701 174.847 109.757 173.999Z" fill="#421B36"/>
<path d="M110.796 173.353C111.159 167.798 112.541 162.363 114.895 157.318C115.255 156.546 114.06 155.98 113.699 156.753C111.301 161.893 109.866 167.449 109.495 173.11C109.441 173.95 110.741 174.201 110.796 173.353Z" fill="#421B36"/>
<path d="M119.622 171.316C121.685 167.934 123.392 164.347 124.715 160.613C124.834 160.277 124.746 159.896 124.4 159.733C124.102 159.592 123.639 159.71 123.519 160.048C122.196 163.782 120.489 167.369 118.426 170.751C118.24 171.056 118.442 171.49 118.741 171.631C119.093 171.797 119.436 171.621 119.622 171.316Z" fill="#421B36"/>
<path d="M411.237 228.014C399.974 225.766 380.694 238.77 372.301 247.611C369.347 250.723 369.732 255.831 370.3 257.065C372.953 262.835 405.476 293.086 432.213 300.201C447.095 304.161 477.69 275.487 475.68 270.038C471.164 257.793 427.533 231.266 411.237 228.014Z" fill="#8380FF"/>
<path d="M373.865 249.079C382.178 255.388 389.951 262.372 398.111 268.873C405.871 275.055 414.149 280.839 422.825 285.671C427.631 288.348 432.753 290.509 438.231 291.285C439.125 291.412 439.511 290.043 438.609 289.915C428.629 288.501 420.23 282.57 411.98 277.206C403.381 271.614 395.544 265.018 387.687 258.448C383.377 254.844 379.058 251.249 374.582 247.852C373.854 247.299 373.145 248.533 373.865 249.079Z" fill="#421B36"/>
<path d="M438.609 291.285C451.062 287.384 463.08 279.362 470.943 268.89C471.492 268.159 470.259 267.45 469.716 268.173C462.088 278.332 450.303 286.134 438.231 289.915C437.362 290.187 437.733 291.559 438.609 291.285Z" fill="#421B36"/>
<path d="M405.878 252.036C419.59 252.7 432.99 256.7 444.831 263.644C445.621 264.107 446.337 262.88 445.548 262.417C433.491 255.345 419.839 251.291 405.878 250.615C404.964 250.571 404.966 251.992 405.878 252.036Z" fill="#421B36"/>
<g opacity="0.2">
<path d="M439.083 240.266C439.962 240.743 440.733 241.161 441.335 241.488C441.473 244.542 436.69 242.612 439.083 240.266ZM404.885 243.727C403.725 244.005 403.341 244.726 403.408 245.399C404.227 245.697 405.059 245.989 405.903 246.272C405.998 246.178 406.093 246.082 406.185 245.958C406.106 245.027 405.978 244.188 404.885 243.727ZM432.525 244.655C431.457 244.817 430.687 245.215 430.068 246.058C430.928 248.824 434.745 247.504 432.525 244.655ZM418.77 241.217C418.435 241.906 417.517 242.162 417.529 243.167C420.871 245.908 421.941 241.774 418.77 241.217ZM420.165 235.131C418.452 237.427 420.105 238.027 422.351 237.316C422.531 235.999 421.573 234.224 420.165 235.131ZM392.322 235.188C392.504 235.683 392.686 236.176 392.852 236.627C393.484 236.678 394.013 236.721 394.601 236.769C394.908 236.427 395.23 236.07 395.552 235.713C395.308 235.157 395.096 234.67 394.873 234.163C393.752 233.826 392.965 234.276 392.322 235.188ZM422.83 247.361C423.004 243.23 417.809 246.081 421.066 248.174C421.634 247.88 422.384 247.948 422.83 247.361ZM428.176 241.576C427.551 244.23 431.288 244.311 430.708 241.626C430.327 240.5 428.544 240.253 428.176 241.576ZM437.994 246.521C437.519 246.472 436.978 246.641 436.479 247.159C436.477 247.231 436.483 247.282 436.484 247.348C437.026 247.08 437.531 246.803 437.994 246.521ZM399.195 242.492C397.984 242.484 397.666 242.486 397.313 242.98C398.123 243.328 398.96 243.677 399.821 244.024C399.858 243.915 399.907 243.822 399.929 243.697C399.687 243.301 399.432 242.881 399.195 242.492ZM426.151 247.945C426.365 248.69 427.03 249.695 427.827 249.699C427.91 249.691 427.993 249.682 428.075 249.674C428.182 249.645 428.29 249.608 428.4 249.538C430.119 247.329 427.83 245.777 426.151 247.945ZM434.714 244.82C435.426 244.719 435.945 245.417 436.638 245.374C436.831 245.012 436.999 244.698 437.221 244.281C436.543 241.523 433.382 242.222 434.714 244.82ZM419.886 233.317C420.167 232.942 420.232 232.546 420.158 232.183C419.266 232.022 418.316 231.851 417.332 231.674C416.933 232.796 418.757 233.755 419.886 233.317ZM418.712 249.02C418.64 247.932 417.886 247.726 417.209 247.464C416.389 247.895 416.014 248.444 415.922 248.949C416.774 249.112 417.625 249.255 418.473 249.377C418.554 249.265 418.635 249.156 418.712 249.02ZM423.553 238.573C421.532 239.015 421.186 240.922 423.174 241.695C425.018 241.166 424.509 239.834 423.553 238.573ZM417.493 237.443C415.549 236.501 414.803 238.871 416.533 239.835C417.057 239.396 417.934 239.552 418.355 239.008C418.632 238.407 418.302 237.282 417.493 237.443ZM415.922 234.016C414.607 232.772 414.19 232.792 413.048 234.105C412.685 236.063 416.271 236.207 415.922 234.016ZM411.6 235.455C411.134 235.325 410.752 235.219 410.287 235.089C409.838 236.043 409.838 236.043 409.285 236.465C409.383 236.929 409.482 237.398 409.576 237.841C410.474 238.432 411.136 238.031 411.795 237.411C411.8 236.755 411.721 236.088 411.6 235.455ZM411.588 241.121C412.087 241.477 412.362 242.122 413.007 242.254C414.316 241.287 414.489 241.026 413.55 239.626C412.92 238.401 410.841 240.335 411.588 241.121ZM423.403 233.805C424.023 235.132 424.087 235.59 425.896 235.237C426.065 234.906 426.245 234.555 426.439 234.173C426.253 233.862 426.068 233.551 425.883 233.24C425.745 233.208 425.253 233.114 424.495 232.974C424.057 233.07 423.664 233.256 423.403 233.805ZM402.084 242.637C403.745 243.018 404.433 240.693 402.871 240.054C401.229 239.742 400.471 241.981 402.084 242.637ZM408.16 231.33C406.476 231.068 406.578 234.175 408.508 233.69C410.692 233.87 409.572 231.67 408.16 231.33ZM401.193 229.869C401.015 230.375 400.838 230.878 400.672 231.35C401.023 231.996 401.564 232.274 402.315 232.4C402.57 231.956 402.705 231.546 403.209 231.368C404.632 230.439 402.068 229.514 401.193 229.869ZM392.975 240.7C392.763 240.72 392.563 240.727 392.369 240.734C392.64 240.864 392.92 240.996 393.203 241.129C393.154 240.984 393.085 240.84 392.975 240.7ZM405.444 229.859C405.875 230.224 406.381 230.099 406.814 229.79C406.198 229.68 405.634 229.579 405.137 229.491C405.231 229.6 405.334 229.721 405.444 229.859ZM424.103 243.944C424.332 245.64 425.544 246.174 426.7 244.817C426.65 242.691 425.22 242.187 424.103 243.944ZM388.243 237.694C388.674 239.893 391.396 239.329 391.056 237.176C389.494 236.381 389.278 236.659 388.243 237.694ZM430.843 237.278C431.231 237.096 431.589 236.926 431.852 236.801C431.895 236.669 431.935 236.549 431.976 236.425C431.253 236.037 430.557 235.663 429.908 235.317C429.637 235.95 429.822 236.818 430.843 237.278ZM405.064 233.921C404.362 234.308 403.428 233.946 402.684 234.574C402.815 235.527 403.356 236.07 403.98 236.633C404.479 236.3 404.952 235.984 405.467 235.641C405.23 235.108 405.601 234.476 405.064 233.921ZM426.085 237.897C425.675 239.416 427.765 239.218 428.662 238.795C428.9 237.025 426.566 235.774 426.085 237.897ZM422.808 249.804C423.422 249.833 424.016 249.845 424.596 249.845C424.558 249.755 424.517 249.666 424.456 249.595C423.889 249.135 423.246 249.353 422.808 249.804ZM411.725 231.92C412.425 232.01 413.195 231.56 413.496 230.985C412.693 230.841 411.895 230.698 411.119 230.559C411.148 230.986 411.331 231.467 411.725 231.92ZM434.985 239.084C434.626 238.818 434.269 238.553 433.852 238.245C432.561 238.489 431.797 240.048 433.088 240.73C434.775 240.431 434.775 240.431 434.985 239.084ZM396.921 240.727C397.979 238.968 396.523 237.37 394.976 238.935C395.059 239.464 395.125 239.896 395.192 240.32C395.669 240.588 396.214 240.54 396.921 240.727ZM399.179 237.072C399.217 237.432 399.252 237.778 399.287 238.112C399.682 238.31 400.036 238.488 400.452 238.696C400.831 238.317 401.198 237.951 401.604 237.543C401.411 236.067 399.745 235.838 399.179 237.072ZM409.972 247.531C410.645 247.721 411.321 247.902 411.999 248.074C412.087 247.983 412.176 247.89 412.282 247.78C412.197 245.46 409.183 245.502 409.972 247.531ZM406.369 238.025C405.771 238.881 404.67 240.629 406.488 240.654C407.828 239.919 408.512 238.016 406.369 238.025ZM398.942 233.511C398.744 233.04 398.636 232.511 398.648 232.001C397.209 231.403 395.945 232.516 396.819 233.929C398.13 234.122 398.25 234.1 398.942 233.511ZM413.502 244.497C413.872 246.036 415.121 246.042 416.339 245.533C416.36 244.308 414.414 243.225 413.502 244.497ZM408.22 244.076C408.541 244.068 408.886 244.059 409.26 244.049C409.548 243.421 409.765 242.946 410 242.432C408.326 240.975 406.802 242.187 408.22 244.076Z" fill="#421B36"/>
</g>
<path d="M392.336 216.122C391.318 220.812 387.646 224.83 383.066 226.264C379.759 227.3 376.087 227.074 372.965 228.579C371.55 229.261 370.175 230.568 370.338 232.131C370.432 233.036 371.046 233.824 371.801 234.331C372.556 234.838 373.446 235.101 374.328 235.324C384.618 237.919 396.029 235.56 404.483 229.147" fill="#A0D2F4"/>
<path d="M391.871 215.993C390.775 220.63 387.285 224.52 382.676 225.875C378.908 226.983 372.469 226.316 370.26 230.359C367.95 234.587 374.499 235.978 377.216 236.404C381.616 237.094 386.12 236.951 390.474 236.025C395.633 234.928 400.503 232.718 404.728 229.563C405.22 229.196 404.739 228.357 404.241 228.729C399.869 231.994 394.825 234.224 389.464 235.247C386.651 235.784 383.773 235.978 380.913 235.828C378.251 235.688 374.903 235.478 372.515 234.19C370.062 232.867 370.695 230.471 372.789 229.219C373.963 228.517 375.393 228.19 376.724 227.936C379.381 227.43 382.107 227.298 384.614 226.193C388.735 224.377 391.772 220.612 392.803 216.249C392.944 215.646 392.014 215.388 391.871 215.993Z" fill="#421B36"/>
<path d="M444.866 222.241C449.442 224.113 454.567 224.621 459.421 223.684C459.274 226.852 459.694 230.046 460.656 233.068C461.008 234.175 461.492 235.335 462.477 235.952C464.006 236.91 466.15 236.079 467.202 234.613C468.253 233.147 468.475 231.257 468.581 229.456C468.921 223.674 468.414 217.861 467.356 212.167" fill="#421B36"/>
<path d="M440.64 217.002C448.636 220.198 458.062 219.581 465.573 215.369C467.2 214.457 469.009 213.345 470.796 213.878C472.055 214.253 472.929 215.356 473.854 216.288C475.521 217.967 476.794 220.29 479.047 221.013C480.16 221.37 482.34 220.483 483.157 219.647C484.188 218.592 483.566 216.839 482.876 215.534C481.553 213.031 480.175 210.558 478.743 208.116C477.581 206.135 476.366 204.152 474.722 202.548C471.484 199.39 466.951 198.027 462.606 196.771C463.365 196.526 464.151 196.264 464.728 195.714C465.305 195.163 465.603 194.233 465.192 193.55C464.214 191.921 461.164 193.609 459.947 192.15C460.62 192.329 461.258 191.594 461.24 190.899C461.221 190.203 460.763 189.602 460.287 189.095C456.702 185.284 451.015 183.999 445.829 184.699C440.643 185.399 435.858 187.833 431.382 190.543C426.906 193.253 422.596 196.29 417.807 198.399C413.018 200.508 407.589 201.644 402.525 200.326L379.908 223.226C381.221 227.385 383.782 231.14 387.173 233.882C387.741 234.341 388.401 234.795 389.13 234.747C389.859 234.7 390.539 233.869 390.168 233.239C392.043 235.967 395.106 237.648 398.219 238.775C408.589 242.53 420.308 241.042 430.483 236.788C440.658 232.534 449.531 225.711 457.986 218.63" fill="#A0D2F4"/>
<path d="M439.812 186.137C440.548 182.33 439.915 178.272 438.054 174.87C436.193 171.468 433.118 168.746 429.515 167.311C424.426 165.285 418.681 165.844 413.365 164.523C411.19 163.983 408.755 162.7 408.565 160.467C408.421 158.771 409.666 157.298 410.9 156.125C414.785 152.431 419.558 149.439 424.864 148.679C430.171 147.919 436.028 149.725 439.206 154.042C438.781 152.087 438.81 149.59 440.564 148.627C442.304 147.672 444.434 148.975 445.749 150.463C448.737 153.845 450.183 158.54 449.614 163.017C450.612 161.691 451.704 160.333 453.229 159.68C454.755 159.026 456.83 159.35 457.621 160.81C458.073 161.644 458.026 162.65 457.937 163.594C457.627 166.897 456.954 170.165 455.936 173.322C455.942 172.098 457.468 171.277 458.617 171.699C459.766 172.121 460.42 173.412 460.428 174.637C460.436 175.861 459.92 177.026 459.332 178.1C456.567 183.144 452.024 187.04 447.012 189.864" fill="#A0D2F4"/>
<path d="M477.565 216.139C477.714 217.339 478.298 218.431 479.263 219.171C480.263 219.938 481.552 220.207 482.783 219.979C483.04 219.932 483.185 219.621 483.12 219.385C483.046 219.115 482.783 219 482.526 219.048C480.65 219.395 478.765 218.042 478.53 216.138C478.498 215.879 478.331 215.655 478.047 215.655C477.811 215.657 477.532 215.879 477.565 216.139Z" fill="#421B36"/>
<path d="M437.159 188.035C441.152 185.504 445.822 184.259 450.545 184.464C451.166 184.491 451.165 183.525 450.545 183.498C445.664 183.286 440.798 184.585 436.671 187.201C436.148 187.533 436.632 188.369 437.159 188.035Z" fill="#421B36"/>
<path d="M438.234 153.053C439.657 154.669 440.546 156.736 440.733 158.882C440.786 159.496 441.753 159.502 441.698 158.882C441.488 156.467 440.518 154.191 438.916 152.37C438.505 151.903 437.825 152.588 438.234 153.053Z" fill="#421B36"/>
<path d="M456 172.055C455.848 172.347 455.681 172.632 455.498 172.905C455.301 173.199 455.168 173.376 454.947 173.635C454.739 173.879 454.517 174.112 454.283 174.332C454.16 174.448 454.034 174.56 453.904 174.668C453.846 174.717 453.787 174.765 453.727 174.812C453.712 174.824 453.637 174.882 453.685 174.845C453.645 174.876 453.604 174.906 453.563 174.936C453.361 175.086 453.238 175.361 453.39 175.596C453.519 175.797 453.833 175.93 454.051 175.769C455.208 174.914 456.169 173.82 456.834 172.541C456.95 172.317 456.899 172.006 456.661 171.881C456.439 171.765 456.124 171.816 456 172.055Z" fill="#421B36"/>
<path d="M449.443 160.946C449.073 162.738 448.176 164.372 446.854 165.638C446.404 166.069 447.088 166.751 447.537 166.321C448.97 164.949 449.973 163.147 450.374 161.203C450.427 160.948 450.3 160.681 450.037 160.609C449.798 160.544 449.496 160.69 449.443 160.946Z" fill="#421B36"/>
<path d="M445.14 217.159C448.683 218.903 452.483 219.681 456.799 218.517L457.983 218.628C449.528 225.709 440.655 232.532 430.48 236.786C420.305 241.04 408.586 242.528 398.216 238.773C395.103 237.646 392.041 235.966 390.165 233.237C390.536 233.867 389.856 234.697 389.127 234.745C388.398 234.793 387.738 234.339 387.17 233.88C383.871 231.213 381.367 227.582 380.024 223.558L388.162 220.192L394.623 220.929C394.824 221.15 399.126 227.745 403.098 228.62C407.07 229.495 409.91 237.115 423.707 231.958C437.505 226.801 444.686 217.458 445.14 217.159Z" fill="white"/>
<path d="M441.722 215.646C448.077 220.326 456.856 221.017 463.892 217.472C464.447 217.192 463.959 216.359 463.405 216.638C456.659 220.036 448.281 219.283 442.21 214.812C441.708 214.444 441.226 215.281 441.722 215.646Z" fill="#421B36"/>
<path d="M403.491 224.982C404.08 229.745 401.941 234.751 398.092 237.617C395.313 239.687 391.772 240.687 389.323 243.139C388.213 244.251 387.347 245.938 388.017 247.359C388.405 248.182 389.244 248.723 390.124 248.952C391.004 249.181 391.931 249.136 392.837 249.054C403.406 248.104 413.398 242.109 419.259 233.262" fill="#A0D2F4"/>
<path d="M403.008 224.982C403.535 230.005 401.28 234.981 397.035 237.765C393.939 239.796 387.715 241.513 387.319 245.967C386.895 250.74 393.748 249.555 396.488 249.014C400.95 248.133 405.243 246.37 409.066 243.911C413.278 241.202 416.881 237.66 419.675 233.507C420.023 232.99 419.187 232.506 418.841 233.02C414.168 239.967 407.056 245.131 398.997 247.419C396.987 247.989 394.919 248.396 392.836 248.573C391.349 248.7 389.429 248.756 388.603 247.273C387.764 245.768 388.901 244.163 390.02 243.141C393.052 240.373 397.306 239.461 400.157 236.416C403.019 233.359 404.409 229.137 403.973 224.983C403.909 224.37 402.943 224.364 403.008 224.982Z" fill="#421B36"/>
<path d="M391.234 187.85C391.234 187.85 394.069 182.134 399.261 180.807C404.453 179.48 405.798 191.584 405.798 191.584C405.798 191.584 411.446 191.642 412.529 194.826C413.612 198.01 409.562 198.983 409.562 198.983C412.063 201.347 415.995 207.453 413.086 211.468C410.177 215.483 405.476 210.632 405.476 210.632C407.662 215.352 401.208 215.327 401.208 215.327C401.208 215.327 400.695 216.662 394.029 220.942C387.363 225.222 377.007 223.112 377.007 223.112C374.03 232.992 370.383 222.102 370.383 222.102C370.383 222.102 368.616 229.16 364.525 223.236C360.434 217.312 364.276 207.492 364.276 207.492C364.276 207.492 356.235 202.06 357.612 197.741C358.989 193.422 370.518 195.708 370.518 195.708C370.518 195.708 375.611 192.556 380.673 190.305C385.735 188.054 391.234 187.85 391.234 187.85Z" fill="#A0D2F4"/>
<path d="M405.458 189.47C405.048 187.348 404.214 184.151 402.725 182.258C400.295 180.985 398.407 186.937 397.547 189.845C397.547 189.845 397.593 190.942 398.523 191.468C399.453 191.994 405.108 192.008 405.108 192.008C405.108 192.008 405.504 190.758 405.458 189.47Z" fill="#8380FF"/>
<path d="M369.149 201.505C367.981 199.818 366.256 198.523 364.309 197.873C362.362 197.223 360.206 197.222 358.258 197.869C358.258 197.869 357.751 198.262 357.5 199.361C358.083 203.305 364.275 207.491 364.275 207.491C365.027 205.087 368.73 201.959 368.714 201.686L369.149 201.505Z" fill="#8380FF"/>
<path d="M378.253 212.18C379.784 213.377 381.891 213.614 383.49 212.413C385.193 211.134 385.194 208.906 384.455 207.078C384.186 206.412 383.136 206.653 383.347 207.383C383.747 208.77 384.028 210.352 382.869 211.46C381.716 212.562 379.917 212.524 378.617 211.708C378.334 211.531 377.98 211.967 378.253 212.18Z" fill="#421B36"/>
<path d="M384.721 210.053C387.138 211.906 390.581 210.089 390.465 207.05C390.441 206.416 389.455 206.219 389.312 206.894C388.862 209.013 387.124 210.145 385.031 209.32C384.568 209.137 384.396 209.803 384.721 210.053Z" fill="#421B36"/>
<path d="M388.099 202.201C388.545 201.213 388.373 199.833 389.434 199.225C390.638 198.535 391.805 199.47 392.937 199.844C393.644 200.077 393.9 199.124 393.403 198.74C392.183 197.8 390.181 197.266 388.782 198.115C387.518 198.882 386.978 200.761 387.466 202.119C387.556 202.367 387.966 202.497 388.099 202.201Z" fill="#421B36"/>
<path d="M378.783 205.986C378.312 204.545 376.688 203.371 375.149 203.616C373.552 203.87 372.367 205.51 371.987 206.99C371.812 207.67 372.714 208.017 373.091 207.455C373.715 206.524 374.032 205.13 375.318 204.863C376.586 204.599 377.305 205.868 378.274 206.377C378.527 206.509 378.882 206.287 378.783 205.986Z" fill="#421B36"/>
<path d="M371.278 223.262C370.95 222.021 370.881 220.715 371.098 219.448C371.142 219.191 371.03 218.928 370.761 218.854C370.529 218.79 370.211 218.933 370.167 219.191C369.92 220.634 369.973 222.102 370.347 223.518C370.505 224.119 371.437 223.865 371.278 223.262Z" fill="#421B36"/>
<path d="M373.667 211.367C367.442 212.887 361.523 215.486 356.193 219.043C355.679 219.386 356.162 220.223 356.68 219.877C361.946 216.362 367.773 213.8 373.923 212.298C374.527 212.151 374.271 211.219 373.667 211.367Z" fill="#421B36"/>
<path d="M357.951 225.156C363.046 220.934 368.545 217.226 374.361 214.071C374.907 213.775 374.421 212.941 373.874 213.237C367.984 216.431 362.427 220.197 357.268 224.472C356.79 224.87 357.476 225.55 357.951 225.156Z" fill="#421B36"/>
<path d="M399.635 215.085C400.367 215.424 401.143 215.618 401.95 215.65C402.203 215.66 402.444 215.421 402.433 215.167C402.421 214.897 402.221 214.695 401.95 214.684C401.862 214.681 401.775 214.675 401.687 214.668C401.643 214.664 401.6 214.66 401.556 214.655C401.528 214.652 401.387 214.643 401.516 214.651C401.351 214.641 401.178 214.594 401.017 214.555C400.852 214.515 400.69 214.468 400.529 214.413C400.446 214.384 400.364 214.354 400.282 214.321C400.264 214.314 400.145 214.273 400.258 214.312C400.211 214.296 400.166 214.271 400.121 214.25C399.892 214.144 399.59 214.178 399.461 214.423C399.349 214.637 399.39 214.972 399.635 215.085Z" fill="#421B36"/>
<path d="M406.271 211.663C406.087 210.559 405.366 209.558 404.397 209.006C404.177 208.881 403.859 208.947 403.736 209.179C403.615 209.408 403.675 209.706 403.909 209.84C404.012 209.899 404.112 209.962 404.208 210.031C404.222 210.041 404.237 210.052 404.251 210.063C404.279 210.084 404.27 210.077 404.224 210.042C404.231 210.04 404.273 210.081 404.279 210.086C404.325 210.124 404.369 210.162 404.413 210.203C404.5 210.283 404.583 210.368 404.662 210.456C404.674 210.47 404.783 210.579 404.776 210.592C404.741 210.546 404.734 210.537 404.755 210.565C404.766 210.579 404.776 210.593 404.787 210.608C404.804 210.632 404.822 210.656 404.838 210.68C404.905 210.778 404.968 210.879 405.024 210.983C405.052 211.035 405.08 211.088 405.105 211.141C405.118 211.168 405.13 211.195 405.143 211.222C405.182 211.305 405.122 211.165 405.143 211.221C405.229 211.45 405.299 211.679 405.339 211.921C405.381 212.171 405.703 212.333 405.933 212.258C406.204 212.17 406.316 211.931 406.271 211.663Z" fill="#421B36"/>
<path d="M385.481 204.512C385.481 204.512 384.775 207.635 383.83 207.526C382.886 207.417 380.878 206.427 381.117 206.04C381.356 205.653 384.91 204.016 385.481 204.512Z" fill="#421B36"/>
<path d="M380.396 197.851C380.491 198.885 380.651 199.905 380.819 200.928C380.985 201.94 380.989 203.111 381.573 203.976C381.701 204.166 382.089 204.185 382.129 203.903C382.261 202.96 381.891 202.096 381.616 201.196C381.271 200.068 380.946 198.937 380.529 197.832C380.504 197.767 380.389 197.769 380.396 197.851Z" fill="#421B36"/>
<path d="M410.214 199.017C410.048 198.902 409.952 198.74 409.777 198.631C409.566 198.499 409.308 198.41 409.08 198.312C408.612 198.111 408.139 197.949 407.639 197.857C406.945 197.73 406.711 198.64 407.352 198.9C407.812 199.087 408.285 199.204 408.776 199.282C408.977 199.314 409.18 199.352 409.383 199.369C409.666 199.392 409.862 199.311 410.138 199.3C410.293 199.295 410.337 199.102 410.214 199.017Z" fill="#421B36"/>
<path d="M364.518 207.074C363.652 206.487 362.835 205.818 362.054 205.123C360.62 203.847 359.188 202.385 358.379 200.618C357.983 199.753 357.794 198.795 358.075 197.868C358.256 197.272 357.324 197.017 357.144 197.611C356.546 199.58 357.608 201.558 358.782 203.079C359.979 204.628 361.447 205.955 362.993 207.147C363.332 207.408 363.674 207.668 364.029 207.908C364.547 208.257 365.031 207.421 364.518 207.074Z" fill="#421B36"/>
<path d="M409.22 199.324C411.835 201.868 414.996 206.761 413.112 210.495C411.415 213.86 407.874 212.381 405.816 210.29C405.402 209.87 404.855 210.401 405.058 210.875C406.287 213.753 403.628 214.837 401.207 214.843C400.972 214.844 400.825 214.997 400.742 215.198C400.837 214.97 400.539 215.429 400.472 215.505C400.007 216.026 399.458 216.48 398.917 216.919C396.346 219.007 393.438 221.142 390.255 222.145C386.143 223.441 381.36 223.492 377.135 222.645C376.528 222.523 376.269 223.454 376.878 223.576C381.543 224.511 386.873 224.446 391.355 222.788C394.44 221.646 397.3 219.514 399.819 217.422C400.456 216.893 401.338 216.255 401.673 215.455C401.518 215.573 401.363 215.691 401.207 215.809C402.415 215.806 403.764 215.573 404.817 214.961C406.599 213.924 406.638 212.134 405.892 210.388C405.639 210.583 405.387 210.778 405.134 210.973C407.384 213.259 411.241 214.861 413.502 211.711C416.482 207.561 412.998 201.653 409.903 198.641C409.457 198.207 408.773 198.889 409.22 199.324Z" fill="#421B36"/>
<path d="M391.651 188.093C392.198 186.996 392.944 185.969 393.745 185.047C395.229 183.337 397.414 181.457 399.764 181.201C401.31 181.032 402.376 182.387 403.045 183.596C403.892 185.127 404.389 186.847 404.774 188.545C404.999 189.534 405.215 190.691 405.315 191.583C405.384 192.194 406.35 192.201 406.281 191.583C405.965 188.765 405.304 185.791 403.969 183.276C403.219 181.863 402.052 180.403 400.345 180.238C399.257 180.133 398.136 180.602 397.182 181.073C395.995 181.658 394.92 182.475 393.974 183.397C392.736 184.604 391.594 186.052 390.818 187.606C390.541 188.16 391.373 188.65 391.651 188.093Z" fill="#421B36"/>
<path d="M364.651 207.683C365.862 205.645 367.256 203.725 368.825 201.947C369.235 201.483 368.554 200.797 368.142 201.264C366.52 203.102 365.069 205.088 363.817 207.196C363.5 207.731 364.334 208.217 364.651 207.683Z" fill="#421B36"/>
<path d="M358.244 198.537C361.831 198.004 365.597 199.032 368.42 201.306C368.899 201.692 369.587 201.013 369.103 200.623C365.982 198.109 361.951 197.017 357.987 197.606C357.375 197.696 357.635 198.627 358.244 198.537Z" fill="#421B36"/>
<path d="M396.832 192.052C399.664 191.678 402.523 192.003 405.199 193.006C405.781 193.224 406.033 192.291 405.456 192.075C402.713 191.047 399.737 190.704 396.833 191.087C396.225 191.167 396.217 192.133 396.832 192.052Z" fill="#421B36"/>
<path d="M397.654 191C398.39 187.705 400.211 184.749 402.815 182.6C403.295 182.204 402.608 181.524 402.132 181.917C399.413 184.16 397.491 187.304 396.723 190.743C396.588 191.348 397.519 191.607 397.654 191Z" fill="#421B36"/>
<path d="M388.741 248.308C390.194 247.277 391.91 246.688 393.692 246.64C394.312 246.623 394.315 245.658 393.692 245.674C391.749 245.726 389.84 246.347 388.254 247.473C388.042 247.624 387.941 247.894 388.081 248.134C388.203 248.344 388.527 248.459 388.741 248.308Z" fill="#421B36"/>
<path d="M388.755 244.895C390.067 244.3 391.506 244.026 392.944 244.064C393.565 244.081 393.565 243.115 392.944 243.098C391.328 243.054 389.737 243.394 388.268 244.061C388.031 244.169 387.973 244.513 388.095 244.722C388.237 244.966 388.517 245.003 388.755 244.895Z" fill="#421B36"/>
<path d="M370.804 233.188C372.283 232.936 373.812 232.922 375.295 233.151C375.552 233.191 375.814 233.086 375.889 232.814C375.952 232.585 375.811 232.26 375.552 232.22C373.885 231.963 372.212 231.973 370.548 232.257C370.291 232.301 370.147 232.618 370.211 232.851C370.285 233.123 370.546 233.232 370.804 233.188Z" fill="#421B36"/>
<path d="M371.8 230.339C373.181 230.176 374.558 230.353 375.853 230.86C376.096 230.955 376.383 230.755 376.447 230.523C376.522 230.249 376.354 230.025 376.11 229.929C374.748 229.395 373.253 229.202 371.8 229.373C371.541 229.404 371.317 229.573 371.317 229.856C371.317 230.093 371.539 230.37 371.8 230.339Z" fill="#421B36"/>
<path d="M379.788 223.923C380.912 226.591 382.051 229.286 383.872 231.566C384.684 232.583 385.636 233.497 386.729 234.207C387.782 234.891 388.999 235.352 390.215 234.832C390.785 234.589 390.293 233.756 389.728 233.998C388.655 234.457 387.381 233.544 386.574 232.915C385.67 232.21 384.88 231.349 384.206 230.424C382.705 228.366 381.703 226 380.719 223.665C380.482 223.103 379.547 223.351 379.788 223.923Z" fill="#421B36"/>
<path d="M389.293 232.807C389.831 234.225 390.884 235.359 392.056 236.291C393.26 237.248 394.586 238.033 395.96 238.719C396.514 238.996 397.004 238.163 396.447 237.885C395.18 237.252 393.934 236.541 392.815 235.669C391.759 234.845 390.708 233.828 390.224 232.551C390.006 231.975 389.072 232.225 389.293 232.807Z" fill="#421B36"/>
<path d="M411.85 242.069C429.88 241.79 444.636 230.372 458.107 219.649C458.593 219.262 457.906 218.583 457.424 218.966C444.166 229.519 429.601 240.829 411.849 241.103C411.229 241.113 411.227 242.079 411.85 242.069Z" fill="#421B36"/>
<path d="M379.301 192.457C377.403 191.032 375.706 189.323 374.294 187.416C374.139 187.207 373.876 187.101 373.633 187.243C373.427 187.364 373.304 187.693 373.46 187.904C374.979 189.954 376.774 191.759 378.814 193.291C379.023 193.448 379.354 193.324 379.475 193.118C379.619 192.87 379.51 192.614 379.301 192.457Z" fill="#A0D2F4"/>
<path d="M381.167 191.5C379.098 189.701 377.611 187.324 376.912 184.672C376.754 184.072 375.822 184.326 375.981 184.929C376.719 187.73 378.298 190.282 380.484 192.183C380.952 192.589 381.637 191.909 381.167 191.5Z" fill="#A0D2F4"/>
<path d="M270.919 144.094C276.306 142.677 281.85 141.54 287.466 142.028C293.083 142.515 298.839 144.785 302.893 149.301C305.988 152.749 307.931 157.289 311.129 160.621C315.333 165.002 321.188 166.77 326.809 167.6C332.43 168.429 338.147 168.503 343.635 170.26C349.123 172.016 354.563 175.881 356.664 181.75C358.765 187.619 356.053 195.314 350.517 196.147C352.278 205.195 348.8 214.897 342.03 219.818C335.26 224.739 325.584 224.6 318.422 219.478C311.26 214.357 307.019 204.543 308.075 195.536C304.076 198.075 298.946 199.004 294.518 196.887C290.09 194.77 286.84 189.129 288.001 184.163C288.145 183.546 288.348 182.957 288.586 182.385C290.518 177.746 291.206 172.661 290.035 167.774C288.526 161.475 285.423 154.114 279.173 154.334" fill="#421B36"/>
<path d="M272.517 145.945C281.336 142.653 290.739 141.942 299.331 146.458C305.938 149.931 309.978 156.464 316.188 160.421C322.267 164.295 328.14 162.614 334.776 161.645C345.549 160.072 355.016 166.543 356.672 177.5C356.856 178.719 359.004 178.445 358.845 177.206C357.936 170.11 353.706 163.994 347.183 160.861C337.263 156.097 326.618 164.312 317.207 158.675C309.351 153.969 305.086 145.96 296.019 142.855C288.22 140.185 279.2 140.628 272.083 144.917C271.56 145.234 271.9 146.175 272.517 145.945Z" fill="#421B36"/>
<path d="M216.932 304.005C215.836 306.198 205.604 319.353 205.604 319.353C205.604 319.353 153.349 289.023 134.347 293.408C115.345 297.793 110.599 316.921 116.081 334.826C121.562 352.732 167.966 363.934 197.931 372.339C227.895 380.744 247.736 378.551 247.736 378.551L249.456 309.121L216.932 304.005Z" fill="#8380FF"/>
<path d="M276.166 304.005C277.262 306.198 287.494 319.353 287.494 319.353C287.494 319.353 339.749 289.023 358.751 293.408C377.753 297.793 383.6 318.622 378.118 336.528C372.637 354.434 325.132 363.935 295.167 372.339C265.202 380.744 245.362 378.551 245.362 378.551L243.642 309.121L276.166 304.005Z" fill="#8380FF"/>
<path d="M278.734 158.051C279.719 155.706 279.109 154.661 278.554 152.179C277.999 149.697 276.801 147.388 275.281 145.349C274.921 144.867 274.527 144.357 274.492 143.757C274.44 142.876 275.2 142.13 276.028 141.824C277.655 141.223 279.549 141.898 280.785 143.115C282.021 144.332 282.704 145.999 283.193 147.664C283.822 149.807 284.172 152.134 283.469 154.254C282.766 156.374 280.758 158.185 278.529 158.045" fill="#8380FF"/>
<path d="M216.638 138.546C219.843 134.579 224.401 131.84 229.255 130.278C234.424 128.614 239.998 128.223 245.349 129.148L239.966 182.61L221.59 167.91C220.231 162.892 213.105 156.95 212.466 152.809C211.688 147.769 213.433 142.513 216.638 138.546Z" fill="#421B36"/>
<path d="M262.91 142.105C254.358 128.04 233.403 128.238 225.076 142.438C222.443 146.929 220.983 153.04 220.543 161.312C219.315 184.391 238.816 185.851 238.816 185.851L239.449 200.892L257.396 200.481L261.803 176.801C261.803 176.801 265.762 159.851 265.129 148.877C264.988 146.435 264.163 144.165 262.91 142.105Z" fill="#FFBFBF"/>
<path d="M254.715 143.752C251.88 141.676 248.767 141.806 245.479 141.945C244.726 141.977 244.232 140.941 245.049 140.58C248.566 139.028 252.54 140.776 255.176 143.11C255.547 143.44 255.134 144.06 254.715 143.752Z" fill="#421B36"/>
<path d="M249.639 183.497C245.673 186.128 240.853 186.994 236.169 186.214C235.373 186.081 235.465 184.876 236.287 184.952C240.9 185.376 245.181 184.774 249.591 183.395C249.647 183.377 249.687 183.466 249.639 183.497Z" fill="#421B36"/>
<path d="M278.115 150.169C280.787 160.232 277.042 170.028 269.022 176.669L260.459 183.76C260.3 176.798 261.948 158.221 261.411 151.584C260.874 144.947 249.173 135.331 244.41 131.677L244.695 128.632C251.181 127.021 258.668 129.03 264.314 132.608C267.498 134.626 270.758 137.288 272.906 140.385C272.906 140.385 276.966 145.844 278.115 150.169Z" fill="#421B36"/>
<g opacity="0.3">
<path d="M246.903 157.11C246.786 158.36 248.649 159.557 251.064 159.783C253.479 160.009 255.532 159.179 255.649 157.928C255.766 156.678 253.903 155.481 251.488 155.255C249.072 155.029 247.02 155.86 246.903 157.11Z" fill="#421B36"/>
</g>
<g opacity="0.3">
<path d="M222.811 154.855C222.694 156.105 224.557 157.302 226.972 157.528C229.387 157.754 231.44 156.924 231.557 155.673C231.674 154.423 229.811 153.226 227.396 153C224.981 152.774 222.928 153.605 222.811 154.855Z" fill="#421B36"/>
</g>
<path d="M269.949 159.621C271.301 159.097 272.907 159.54 273.984 160.509C275.062 161.479 275.657 162.898 275.872 164.331C276.23 166.714 275.526 169.319 273.739 170.936C271.952 172.553 269.046 172.944 267.073 171.56L269.949 159.621Z" fill="#FFBFBF"/>
<path d="M272.196 166.486C271.788 166.135 270.841 165.861 270.316 165.832C269.571 165.791 269.056 166.127 268.504 166.575C267.934 167.038 267.087 166.292 267.549 165.684C268.18 164.854 269.283 164.424 270.315 164.543C270.803 164.6 271.338 164.792 271.719 165.107C272.153 165.466 272.186 165.847 272.378 166.334C272.418 166.439 272.296 166.572 272.196 166.486Z" fill="#421B36"/>
<path d="M230.354 140.334C233.19 137.799 237.517 138.653 239.084 142.08C241.307 146.945 238.369 154.119 235.262 157.96C234.645 158.722 233.536 157.911 234.034 157.079C235.912 153.938 237.755 150.7 238.182 146.985C238.739 142.134 235.345 138.833 230.676 140.84C230.357 140.978 230.096 140.564 230.354 140.334Z" fill="#421B36"/>
<path d="M243.023 161.525C243.18 163.089 241.614 164.517 240.353 165.192C238.806 166.019 236.927 166.275 235.356 165.372C234.946 165.137 235.018 164.462 235.49 164.347C236.821 164.023 238.207 163.863 239.419 163.169C240.435 162.587 241.132 161.536 242.171 161.036C242.58 160.839 242.979 161.083 243.023 161.525Z" fill="#421B36"/>
<path d="M135.033 294.205L175.463 275.939C175.463 275.939 206.398 219.624 209.96 213.021C213.521 206.418 239.516 211.823 239.516 211.823C239.516 211.823 197.656 281.135 192.816 288.51C184.558 301.093 149.051 304.228 143.592 305.346C138.133 306.465 135.033 294.205 135.033 294.205Z" fill="#FFBFBF"/>
<path d="M220.81 290.5C222.342 288.065 197.233 314.529 196.704 320.092C196.335 323.968 235.773 348.243 245.923 356.477C248.082 358.229 253.231 355.87 253.231 355.87L299.238 319.733C299.238 319.733 287.861 301.305 274.928 290.499H220.81V290.5Z" fill="#8380FF"/>
<path d="M207.496 260.574C207.496 260.574 178.326 249.191 179.489 244.854C180.013 242.902 200.398 208.378 208.98 204.403C222.287 198.24 231.507 198.249 231.507 198.249L217.872 243.704C217.872 243.704 211.369 260.574 207.496 260.574Z" fill="#8380FF"/>
<path d="M367.817 297.199L323.963 272.698C323.963 272.698 296.452 222.618 292.89 216.015C289.328 209.412 263.334 214.817 263.334 214.817C263.334 214.817 304.892 281.726 309.733 289.102C317.991 301.685 353.8 307.223 359.258 308.34C364.717 309.458 367.817 297.199 367.817 297.199Z" fill="#FFBFBF"/>
<path d="M279.504 248.361C279.504 248.361 284.023 258.744 287.828 264.453C288.868 266.014 294.335 265.978 294.335 265.978C293.739 254.644 307.498 253.151 312.331 252.695C312.845 252.646 315.344 257.819 316.041 258.271C317.11 258.964 319.688 249.726 318.575 247.88C313.701 239.79 292.349 210.882 288.688 206.941C283.007 200.826 266.493 199.441 266.493 199.441L274.443 240.956L279.504 248.361Z" fill="#8380FF"/>
<path d="M359.566 296.798L367.152 299.417C367.152 299.417 371.211 295.2 376.708 293.504C382.205 291.808 394.921 290.387 394.305 294.141C393.689 297.895 386.901 297.925 383.845 298.448C380.789 298.971 380.886 302.477 383.603 303.648C386.32 304.819 388.649 305.93 391.806 305.264C394.963 304.598 395.851 302.433 394.514 299.768C393.177 297.103 393.82 294.98 396.268 295.316C398.716 295.652 401.407 300.35 400.774 304.736C400.141 309.122 395.335 310.448 395.335 310.448C395.335 310.448 402.759 311.19 405.756 311.055C408.752 310.92 411.797 312.537 409.058 315.648C409.058 315.648 411.453 317.88 409.074 319.42C406.695 320.959 404.188 321.011 404.188 321.011C404.188 321.011 406.771 324.343 402.252 325.872C397.733 327.4 394.283 326.355 383.265 324.467C372.248 322.578 363.86 314.263 361.423 311.786C358.986 309.309 350.405 307.203 350.405 307.203L359.566 296.798Z" fill="#FFBFBF"/>
<path d="M398.667 297.078C398.634 297.116 398.601 297.153 398.565 297.188C398.503 297.248 398.479 297.256 398.562 297.2C398.48 297.256 398.396 297.303 398.306 297.346C398.397 297.303 398.378 297.316 398.294 297.341C398.246 297.356 398.198 297.369 398.149 297.379C398.11 297.388 398.07 297.394 398.03 297.401C398.224 297.367 398.029 297.394 397.992 297.396C397.9 297.399 397.809 297.391 397.718 297.387C397.625 297.383 397.854 297.422 397.711 297.384C397.662 297.371 397.612 297.362 397.564 297.349C397.509 297.334 397.456 297.314 397.401 297.298C397.267 297.26 397.432 297.32 397.357 297.284C397.251 297.234 397.147 297.182 397.046 297.122C396.955 297.068 396.866 297.011 396.779 296.95C396.783 296.953 396.618 296.835 396.685 296.884C396.756 296.936 396.608 296.823 396.595 296.812C396.413 296.663 396.237 296.505 396.067 296.342C395.983 296.262 395.903 296.179 395.825 296.093C395.783 296.047 395.774 296.023 395.816 296.086C395.777 296.028 395.741 295.971 395.706 295.911C395.672 295.852 395.681 295.832 395.699 295.903C395.7 295.906 395.645 295.703 395.665 295.802C395.684 295.899 395.665 295.721 395.666 295.698C395.659 295.832 395.677 295.696 395.699 295.636C395.837 295.258 395.544 294.778 395.162 294.691C394.728 294.592 394.365 294.823 394.217 295.228C393.944 295.975 394.319 296.745 394.831 297.283C395.25 297.723 395.745 298.141 396.269 298.449C397.333 299.074 398.875 299.183 399.751 298.166C400.013 297.862 400.072 297.374 399.751 297.079C399.466 296.814 398.947 296.753 398.667 297.078Z" fill="#421B36"/>
<path d="M397.145 309.343C393.814 309.606 390.456 308.534 387.942 306.319C387.203 305.667 386.112 306.75 386.855 307.406C389.662 309.88 393.405 311.176 397.145 310.88C398.124 310.803 398.133 309.265 397.145 309.343Z" fill="#421B36"/>
<path d="M409.246 315.08C401.325 313.766 392.291 315.306 385.413 310.303C384.612 309.721 383.845 311.053 384.637 311.63C391.675 316.749 400.748 315.22 408.837 316.562C409.805 316.723 410.221 315.242 409.246 315.08Z" fill="#421B36"/>
<path d="M404.565 320.853C402.99 319.71 401.139 319.919 399.312 320.084C397.355 320.261 395.386 320.253 393.432 320.033C389.39 319.58 385.495 318.228 382.003 316.154C381.151 315.648 380.377 316.976 381.227 317.481C384.552 319.456 388.232 320.808 392.059 321.389C393.94 321.675 395.842 321.8 397.744 321.725C399.725 321.647 402.056 320.921 403.789 322.179C404.59 322.762 405.358 321.429 404.565 320.853Z" fill="#421B36"/>
<path d="M386.153 307.895C383.926 310.641 381.7 313.387 379.473 316.134C379.212 316.456 379.158 316.906 379.473 317.221C379.743 317.491 380.297 317.545 380.56 317.221C382.787 314.475 385.013 311.729 387.24 308.982C387.501 308.66 387.555 308.21 387.24 307.895C386.969 307.625 386.415 307.571 386.153 307.895Z" fill="#421B36"/>
<path d="M378.552 302.795C374.893 304.862 370.258 304.735 366.703 302.506C365.863 301.979 365.091 303.308 365.927 303.833C369.942 306.35 375.207 306.449 379.328 304.122C380.189 303.635 379.415 302.307 378.552 302.795Z" fill="#421B36"/>
<path d="M392.544 292.32C392.515 292.37 392.485 292.419 392.453 292.467C392.422 292.513 392.36 292.589 392.429 292.506C392.355 292.594 392.277 292.679 392.192 292.757C392.142 292.804 392.089 292.85 392.035 292.892C392.097 292.844 392.074 292.862 392.023 292.895C391.925 292.957 391.828 293.018 391.725 293.071C391.709 293.079 391.507 293.162 391.656 293.106C391.613 293.122 391.57 293.138 391.526 293.153C391.416 293.189 391.304 293.216 391.191 293.241C390.98 293.288 391.338 293.237 391.122 293.252C391.076 293.255 391.03 293.259 390.984 293.26C390.915 293.262 390.846 293.261 390.777 293.258C390.757 293.257 390.571 293.236 390.672 293.251C390.772 293.266 390.567 293.228 390.57 293.228C390.514 293.215 390.458 293.2 390.403 293.184C390.348 293.167 390.294 293.148 390.239 293.128C390.342 293.164 390.254 293.135 390.201 293.109C390.097 293.058 389.997 293.001 389.901 292.937C389.878 292.922 389.749 292.829 389.86 292.915C389.814 292.88 389.771 292.842 389.728 292.803C389.642 292.726 389.561 292.643 389.486 292.556C389.45 292.514 389.394 292.433 389.456 292.521C389.423 292.474 389.391 292.426 389.36 292.377C389.33 292.328 389.3 292.278 389.273 292.228C389.265 292.212 389.181 292.046 389.222 292.133C389.262 292.219 389.191 292.05 389.185 292.032C389.163 291.966 389.144 291.9 389.127 291.833C389.025 291.444 388.573 291.17 388.182 291.296C387.782 291.426 387.536 291.824 387.645 292.241C387.986 293.545 389.128 294.581 390.467 294.761C391.815 294.942 393.181 294.267 393.87 293.095C394.074 292.748 393.96 292.237 393.594 292.044C393.226 291.849 392.762 291.95 392.544 292.32Z" fill="#421B36"/>
<path d="M283.1 237.248C288.28 231.759 292.954 224.493 296.333 217.756C296.773 216.88 295.596 216.217 295.034 216.997C290.647 223.09 285.31 229.957 282.84 237.096C282.789 237.245 282.996 237.358 283.1 237.248Z" fill="#8380FF"/>
<path d="M267.311 335.37C278.097 325.442 290.525 317.435 304.01 311.687C304.917 311.3 304.135 309.976 303.234 310.36C289.63 316.159 277.104 324.269 266.224 334.283C265.495 334.954 266.584 336.039 267.311 335.37Z" fill="#421B36"/>
<path d="M272.115 352.57C265.524 353.223 254.82 353.81 247.853 354.785C237.649 356.214 238.476 354.993 239.17 354.832L231.967 338.724L241.448 338.384C243.907 331.363 243.268 325.532 247.315 322.546C251.362 319.56 283.021 329.042 294.39 333.65C312.052 340.809 314.404 351.079 313.401 353.304C312.712 354.831 279.255 351.863 272.115 352.57Z" fill="#421B36"/>
<path d="M212.84 380.833C219.134 380.273 227.364 379.702 234.067 379.378C243.885 378.903 260.597 378.442 259.918 378.414L263.335 351.726L237.155 362.868C233.603 356.724 233.165 351.146 228.841 349.067C224.517 346.988 196.53 361.502 186.693 367.842C171.412 377.691 171.033 387.735 172.369 389.642C173.285 390.949 206.023 381.439 212.84 380.833Z" fill="#421B36"/>
<path d="M179.735 373.486C181.799 374.978 183.717 377.091 185.166 379.169C186.54 381.139 187.007 383.363 188.062 385.45C188.539 386.394 189.932 385.891 189.963 384.935C190.046 382.343 188.324 379.486 186.745 377.532C184.89 375.237 182.657 373.99 179.869 373.17C179.669 373.111 179.584 373.377 179.735 373.486Z" fill="#8380FF"/>
<path d="M195.051 363.749C198.799 368.588 201.321 374.905 200.945 381.062C200.877 382.181 202.576 382.157 202.674 381.062C203.31 373.94 201.169 367.665 195.387 363.315C195.112 363.108 194.878 363.526 195.051 363.749Z" fill="#8380FF"/>
<path d="M211.933 356.606C215.668 363.963 216.914 372.262 220.498 379.581C220.876 380.353 222.207 379.998 222.141 379.136C221.53 371.23 217.166 362.6 213.067 355.943C212.622 355.219 211.551 355.854 211.933 356.606Z" fill="#8380FF"/>
<path d="M350.464 315.819C321.47 324.673 285.471 339.387 256.477 348.241C254.156 348.95 251.735 349.717 250.017 351.431C247.065 354.375 247.081 359.131 247.782 363.24C248.483 367.349 249.631 375.119 252.248 379.319C252.248 379.319 250.417 381.191 257.389 382.643C264.361 384.096 342.501 360.031 352.648 355.471" fill="#8380FF"/>
<path d="M350.26 315.078C331.893 320.699 313.89 327.455 295.833 333.982C286.683 337.289 277.521 340.568 268.292 343.647C263.991 345.082 259.66 346.41 255.341 347.789C251.548 349 248.311 350.931 247.145 354.962C245.974 359.011 246.983 363.366 247.722 367.402C248.487 371.582 249.365 376.02 251.585 379.706C251.625 379.396 251.665 379.085 251.705 378.775C249.219 381.43 255.895 383.174 257.185 383.384C258.738 383.637 260.374 383.316 261.907 383.062C268.645 381.947 275.289 380.108 281.877 378.337C299.874 373.499 317.739 368.096 335.46 362.328C341.331 360.417 347.388 358.657 353.036 356.134C353.937 355.731 353.157 354.407 352.26 354.807C347.787 356.805 342.991 358.229 338.344 359.766C330.366 362.404 322.345 364.915 314.307 367.364C298.367 372.22 282.322 377.164 266.024 380.695C263.701 381.198 261.329 381.744 258.951 381.906C257.645 381.995 256.948 381.812 255.58 381.405C254.54 381.096 253.53 380.755 252.805 379.941C252.754 379.884 252.87 379.776 252.79 379.861C253.021 379.614 253.09 379.228 252.91 378.93C250.975 375.718 250.148 371.878 249.436 368.237C248.746 364.704 247.862 360.956 248.243 357.343C248.469 355.201 249.26 353.09 250.91 351.643C252.644 350.122 254.981 349.503 257.137 348.841C261.25 347.578 265.344 346.252 269.423 344.885C287.08 338.971 304.503 332.383 322.048 326.151C331.528 322.784 341.044 319.503 350.665 316.558C351.612 316.271 351.21 314.787 350.26 315.078Z" fill="#421B36"/>
<path d="M156.352 313.077C175.705 320.499 195.227 327.48 214.902 334C220.51 335.858 226.13 337.679 231.762 339.464C232.707 339.764 233.111 338.28 232.171 337.982C212.413 331.718 192.797 325.004 173.349 317.835C167.806 315.792 162.277 313.71 156.761 311.595C155.837 311.241 155.437 312.726 156.352 313.077Z" fill="#421B36"/>
<path d="M232.057 338.777C233.438 342.604 235.013 346.355 236.523 350.136C237.882 353.54 238.845 357.393 240.589 360.605C241.094 361.535 242.773 361.163 242.667 360.042C242.318 356.372 240.225 352.537 238.696 349.22C236.964 345.466 235.094 341.758 232.55 338.49C232.368 338.26 231.961 338.511 232.057 338.777Z" fill="#421B36"/>
<path d="M352.799 352.263C352.799 352.263 262.601 381.951 257.632 379.319C252.664 376.687 257.632 362.033 257.632 362.033L318.681 335.892L352.799 352.263Z" fill="#8380FF"/>
<path d="M198.638 316.604C207.399 321.426 216.89 325.371 224.895 331.444C225.683 332.042 226.449 330.708 225.671 330.117C217.666 324.044 208.175 320.1 199.414 315.277C198.546 314.8 197.77 316.126 198.638 316.604Z" fill="#421B36"/>
<path d="M142.62 291.586L135.033 294.205C135.033 294.205 130.974 289.988 125.477 288.292C119.98 286.596 107.264 285.175 107.88 288.929C108.496 292.683 115.285 292.713 118.34 293.236C121.396 293.759 121.299 297.265 118.582 298.436C115.865 299.607 113.536 300.718 110.379 300.052C107.222 299.386 106.334 297.221 107.671 294.556C109.008 291.891 108.365 289.768 105.917 290.104C103.469 290.44 100.778 295.138 101.411 299.524C102.044 303.91 106.85 305.236 106.85 305.236C106.85 305.236 99.4261 305.978 96.4291 305.843C93.4331 305.708 90.3881 307.325 93.1271 310.436C93.1271 310.436 90.7321 312.668 93.1101 314.208C95.4891 315.747 97.9961 315.799 97.9961 315.799C97.9961 315.799 95.4131 319.131 99.9321 320.66C104.451 322.188 107.901 321.143 118.919 319.255C129.936 317.366 138.324 309.051 140.76 306.574C143.196 304.097 151.778 301.991 151.778 301.991L142.62 291.586Z" fill="#FFBFBF"/>
<path d="M102.432 292.952C103.309 293.969 104.851 293.86 105.915 293.235C106.439 292.927 106.933 292.508 107.353 292.069C107.865 291.533 108.241 290.76 107.967 290.014C107.829 289.638 107.439 289.342 107.022 289.477C106.653 289.597 106.337 290.018 106.485 290.422C106.486 290.425 106.538 290.616 106.522 290.518C106.506 290.418 106.518 290.598 106.516 290.621C106.526 290.508 106.503 290.591 106.495 290.655C106.484 290.744 106.565 290.547 106.478 290.696C106.449 290.746 106.415 290.793 106.388 290.843C106.335 290.94 106.494 290.73 106.36 290.878C106.282 290.964 106.202 291.047 106.118 291.127C105.956 291.282 105.789 291.431 105.617 291.574C105.571 291.612 105.526 291.65 105.479 291.686C105.565 291.62 105.476 291.686 105.435 291.714C105.339 291.782 105.241 291.847 105.139 291.906C105.048 291.959 104.955 292.008 104.86 292.053C104.672 292.143 104.931 292.041 104.817 292.07C104.761 292.084 104.706 292.109 104.65 292.125C104.601 292.139 104.553 292.151 104.503 292.162C104.413 292.181 104.395 292.179 104.497 292.169C104.395 292.179 104.294 292.185 104.192 292.181C104.169 292.18 103.995 292.174 104.112 292.18C104.225 292.186 104.047 292.167 104.035 292.164C103.996 292.156 103.957 292.146 103.919 292.135C103.883 292.125 103.712 292.05 103.879 292.131C103.799 292.092 103.725 292.045 103.648 292.002C103.576 291.963 103.734 292.096 103.642 291.994C103.602 291.95 103.558 291.909 103.519 291.864C103.256 291.559 102.699 291.574 102.432 291.864C102.133 292.191 102.151 292.626 102.432 292.952Z" fill="#421B36"/>
<path d="M105.041 305.667C108.78 305.962 112.524 304.666 115.331 302.192C116.074 301.537 114.984 300.454 114.244 301.105C111.73 303.321 108.372 304.392 105.041 304.129C104.055 304.053 104.06 305.59 105.041 305.667Z" fill="#421B36"/>
<path d="M93.3483 311.349C101.437 310.007 110.51 311.537 117.548 306.418C118.34 305.842 117.574 304.508 116.772 305.091C109.895 310.093 100.859 308.554 92.9393 309.868C91.9673 310.029 92.3793 311.51 93.3483 311.349Z" fill="#421B36"/>
<path d="M98.397 316.967C100.128 315.71 102.462 316.435 104.442 316.513C106.344 316.587 108.246 316.462 110.127 316.177C113.954 315.596 117.634 314.244 120.959 312.269C121.808 311.764 121.036 310.435 120.183 310.942C116.691 313.016 112.796 314.368 108.754 314.821C106.801 315.04 104.831 315.049 102.874 314.871C101.047 314.706 99.195 314.497 97.621 315.64C96.828 316.216 97.594 317.55 98.397 316.967Z" fill="#421B36"/>
<path d="M114.946 303.769C117.173 306.515 119.399 309.261 121.626 312.008C121.888 312.331 122.441 312.28 122.713 312.008C123.032 311.689 122.975 311.245 122.713 310.921C120.486 308.175 118.26 305.429 116.033 302.682C115.771 302.359 115.218 302.41 114.946 302.682C114.627 303.001 114.684 303.445 114.946 303.769Z" fill="#421B36"/>
<path d="M122.858 298.909C126.979 301.236 132.244 301.137 136.258 298.62C137.094 298.096 136.324 296.766 135.482 297.293C131.927 299.522 127.292 299.649 123.633 297.582C122.771 297.095 121.996 298.422 122.858 298.909Z" fill="#421B36"/>
<path d="M108.314 287.882C109.004 289.053 110.37 289.729 111.717 289.548C113.057 289.368 114.198 288.333 114.539 287.028C114.64 286.64 114.41 286.176 114.002 286.083C113.6 285.992 113.166 286.204 113.057 286.62C113.028 286.731 112.995 286.843 112.951 286.949C113.008 286.814 112.941 286.959 112.927 286.985C112.901 287.036 112.873 287.086 112.843 287.136C112.807 287.195 112.768 287.252 112.729 287.309C112.772 287.246 112.762 287.27 112.722 287.317C112.646 287.405 112.568 287.489 112.483 287.567C112.432 287.614 112.38 287.66 112.325 287.702C112.387 287.654 112.364 287.672 112.313 287.705C112.216 287.767 112.118 287.828 112.015 287.88C111.997 287.889 111.798 287.966 111.946 287.914C111.902 287.929 111.859 287.946 111.815 287.96C111.749 287.981 111.682 287.999 111.615 288.015C111.596 288.019 111.411 288.053 111.513 288.038C111.612 288.023 111.409 288.045 111.409 288.045C111.351 288.048 111.294 288.049 111.236 288.048C111.178 288.047 111.121 288.043 111.064 288.039C110.917 288.03 111.115 288.057 111.029 288.034C110.918 288.004 110.804 287.986 110.694 287.951C110.639 287.933 110.585 287.914 110.531 287.894C110.634 287.932 110.545 287.899 110.493 287.874C110.389 287.823 110.289 287.766 110.193 287.702C110.148 287.672 110.066 287.614 110.152 287.68C110.106 287.645 110.063 287.607 110.02 287.568C109.934 287.49 109.856 287.407 109.78 287.32C109.725 287.258 109.827 287.401 109.753 287.284C109.716 287.225 109.678 287.168 109.642 287.108C109.438 286.762 108.94 286.607 108.591 286.832C108.241 287.056 108.096 287.512 108.314 287.882Z" fill="#421B36"/>
<path d="M216.588 217.34C216.588 217.34 206.584 247.88 204.843 266.414C204.359 271.568 213.136 277.046 218.312 277.129C237.793 277.441 279.316 277.736 281.769 275.529C284.892 272.718 281.551 225.46 281.551 225.46L286.524 205.14L283.309 202.134C283.309 202.134 288.671 184.73 269.448 184.501C264.888 184.447 260.569 186.581 256.827 189.187L243.79 200.323L238.608 189.339C238.608 189.339 222.627 187.205 222.418 203.053L216.588 217.34Z" fill="#8380FF"/>
<path d="M257.125 210.129C265.271 208.083 272.877 201.535 278.529 195.575C279.587 194.46 277.886 192.76 276.842 193.888C273.845 197.129 270.591 200.097 267 202.673C263.697 205.043 259.995 206.726 256.652 209.007C256.09 209.391 256.425 210.305 257.125 210.129Z" fill="#421B36"/>
<path d="M273.389 199.695C276.912 199.334 280.469 199.973 283.62 201.598C284.498 202.05 285.276 200.725 284.396 200.271C281.014 198.528 277.179 197.77 273.389 198.158C272.973 198.201 272.625 198.481 272.621 198.926C272.616 199.309 272.976 199.737 273.389 199.695Z" fill="#421B36"/>
<path d="M207.006 263.599C208.031 247.125 211.161 230.844 216.295 215.158C216.603 214.216 215.12 213.812 214.813 214.75C209.637 230.565 206.502 246.992 205.469 263.599C205.408 264.586 206.944 264.583 207.006 263.599Z" fill="#421B36"/>
<path d="M223.868 195.366C221.093 198.185 221.938 202.965 225.299 204.994C226.076 205.463 227.031 204.307 226.294 203.704C223.897 201.744 223.025 198.439 224.114 195.508C224.166 195.368 223.966 195.267 223.868 195.366Z" fill="#421B36"/>
<path d="M240.732 204.794C244.239 201.702 247.679 198.514 251.271 195.521C254.862 192.529 258.837 190.061 262.431 187.094C263.144 186.505 262.236 185.529 261.499 185.886C253.305 189.855 245.638 197.203 240.433 204.564C240.302 204.749 240.578 204.93 240.732 204.794Z" fill="#421B36"/>
<path d="M273.876 228.876C278.009 222.979 283.109 218.921 289.379 215.521C290.372 214.983 289.698 213.302 288.6 213.673C281.642 216.02 275.833 221.655 272.816 228.257C272.488 228.973 273.418 229.529 273.876 228.876Z" fill="#A0D2F4"/>
<path d="M202.187 213.268C203.073 215.178 204.18 216.97 205.176 218.824C206.266 220.855 207.069 223.029 208.173 225.043C208.618 225.855 209.901 225.302 209.658 224.417C208.523 220.286 205.881 215.792 202.852 212.755C202.495 212.396 201.992 212.848 202.187 213.268Z" fill="#A0D2F4"/>
<path d="M269.745 235.838C271.175 235.189 272.83 235.161 274.346 235.71C274.736 235.851 275.187 235.551 275.291 235.173C275.408 234.746 275.146 234.37 274.754 234.228C272.866 233.545 270.784 233.686 268.969 234.511C268.591 234.683 268.499 235.23 268.693 235.562C268.921 235.951 269.366 236.01 269.745 235.838Z" fill="#421B36"/>
<path d="M272.98 235.468C277.313 245.41 281.449 255.589 287.164 264.84C287.683 265.68 289.013 264.909 288.491 264.064C282.776 254.813 278.64 244.634 274.307 234.692C273.913 233.788 272.589 234.57 272.98 235.468Z" fill="#421B36"/>
<path d="M233.638 149.298C232.843 149.578 232.169 150.072 231.282 149.966C230.418 149.863 229.945 149.124 229.132 148.944C228.543 148.814 227.846 149.345 228.079 149.997C228.887 152.252 233.167 152.035 234.343 150.215C234.629 149.773 234.151 149.118 233.638 149.298Z" fill="#421B36"/>
<path d="M244.451 150.622C244.965 152.074 246.64 152.756 248.095 152.725C249.354 152.698 251.533 152.307 251.881 150.873C252.012 150.332 251.548 149.925 251.03 150.022C249.984 150.219 249.478 151.249 248.277 151.174C247.124 151.102 246.394 150.34 245.416 149.88C244.946 149.659 244.242 150.033 244.451 150.622Z" fill="#421B36"/>
<path d="M237.628 207.259C234.206 207.985 231.035 209.587 228.401 211.888C227.138 212.991 226.019 214.258 225.068 215.639C224.386 216.627 222.997 218.304 223.813 219.547C224.545 220.662 226.103 220.193 227.08 219.757C228.726 219.023 230.275 218.092 231.71 217.003C234.593 214.815 236.947 212.018 238.621 208.811C238.144 208.682 237.666 208.553 237.189 208.423C237.656 211.941 239.103 215.22 241.509 217.849C243.295 219.8 246.808 222.47 249.263 219.949C251.501 217.652 249.957 214.342 247.958 212.531C245.251 210.079 241.699 207.799 238.035 207.259C237.068 207.116 236.65 208.597 237.626 208.741C240.414 209.152 242.895 210.608 245.14 212.247C246.91 213.539 250.041 215.997 248.433 218.523C246.693 221.258 243.051 217.404 241.888 215.927C240.185 213.765 239.087 211.15 238.725 208.422C238.635 207.744 237.687 207.28 237.293 208.034C236.008 210.495 234.326 212.703 232.261 214.563C231.162 215.553 229.968 216.43 228.698 217.187C228.146 217.516 227.58 217.822 227.002 218.103C226.548 218.324 225.195 219.16 225.327 218.158C225.391 217.671 226.018 216.969 226.289 216.568C226.704 215.954 227.156 215.369 227.644 214.811C228.539 213.789 229.544 212.855 230.637 212.047C232.844 210.418 235.354 209.308 238.035 208.739C239.004 208.536 238.594 207.054 237.628 207.259Z" fill="white"/>
<path d="M159.613 308.41C162.134 309.777 163.711 312.7 164.601 315.335C164.734 315.728 165.13 315.986 165.546 315.872C165.929 315.767 166.216 315.322 166.083 314.927C165.511 313.235 164.733 311.595 163.676 310.149C162.789 308.935 161.722 307.807 160.388 307.084C159.519 306.612 158.742 307.938 159.613 308.41Z" fill="#421B36"/>
<path d="M240.981 339.138C243.223 340.655 245.481 342.088 247.552 343.845C249.451 345.455 251.056 347.393 252.968 348.973C253.717 349.591 255.01 348.802 254.407 347.863C251.636 343.548 246.034 340.076 241.254 338.491C240.855 338.358 240.663 338.923 240.981 339.138Z" fill="#8380FF"/>
<path d="M261.275 324.798C263.988 330.048 265.909 335.693 266.426 341.602C266.623 343.86 266.426 346.065 269.12 346.395C270.169 346.523 270.277 345.092 269.604 344.607C268.392 343.732 268.675 340.565 268.452 339.212C268.109 337.138 267.572 335.105 266.855 333.127C265.685 329.899 263.965 327.05 261.858 324.348C261.588 324.001 261.091 324.442 261.275 324.798Z" fill="#8380FF"/>
<path d="M284.331 331.322C283.13 332.652 282.929 334.729 282.844 336.455C282.762 338.118 282.572 340.373 284.112 341.385C284.489 341.633 284.968 341.439 285.2 341.1C286.081 339.809 285.355 337.914 285.256 336.455C285.146 334.837 285.408 333.017 284.895 331.47C284.819 331.243 284.511 331.123 284.331 331.322Z" fill="#8380FF"/>
<path d="M338.623 319.399C338.088 318.111 338.976 316.537 339.706 315.494C340.479 314.387 341.539 313.51 342.741 312.904C343.111 312.717 343.217 312.195 343.017 311.853C342.797 311.476 342.337 311.39 341.966 311.577C340.493 312.32 339.243 313.449 338.316 314.81C337.395 316.164 336.464 318.175 337.142 319.807C337.301 320.19 337.651 320.463 338.087 320.344C338.448 320.245 338.783 319.785 338.623 319.399Z" fill="#421B36"/>
<path d="M353.892 313.991C353.859 313.958 353.826 313.925 353.793 313.892C353.723 313.817 353.641 313.764 353.546 313.733C353.454 313.685 353.356 313.663 353.25 313.667C353.144 313.663 353.046 313.685 352.954 313.733C352.859 313.764 352.776 313.817 352.707 313.892C352.667 313.944 352.627 313.996 352.587 314.047C352.517 314.167 352.483 314.296 352.482 314.435C352.491 314.503 352.5 314.571 352.509 314.639C352.545 314.769 352.611 314.882 352.707 314.978C352.74 315.011 352.773 315.044 352.806 315.076C352.876 315.151 352.958 315.204 353.053 315.235C353.145 315.283 353.243 315.305 353.349 315.301C353.455 315.305 353.553 315.283 353.645 315.235C353.74 315.204 353.823 315.151 353.892 315.076C353.932 315.024 353.972 314.972 354.012 314.921C354.082 314.801 354.117 314.672 354.117 314.533C354.108 314.465 354.099 314.397 354.09 314.329C354.053 314.199 353.987 314.086 353.892 313.991Z" fill="#421B36"/>
<path d="M241.906 293.108C237.398 295.768 232.08 298.907 230.074 304.044C229.643 305.147 229.482 306.513 230.265 307.501C231.098 308.552 232.536 308.61 233.736 308.271C236.26 307.558 238.323 305.632 239.753 303.499C241.72 300.565 242.529 297.045 243.302 293.651C243.521 292.688 242.04 292.277 241.82 293.243C240.749 297.945 239.464 303.465 234.952 306.079C234.133 306.553 232.823 307.23 231.855 306.836C230.762 306.392 231.365 304.819 231.734 304.077C232.762 302.007 234.335 300.289 236.099 298.819C238.128 297.129 240.414 295.773 242.681 294.435C243.533 293.933 242.76 292.604 241.906 293.108Z" fill="#421B36"/>
<path d="M241.996 294.314C243.406 297.15 244.858 300.036 247.081 302.336C248.976 304.296 251.8 306.191 254.651 306.041C255.999 305.97 257.352 305.3 257.933 304.028C258.562 302.649 257.949 301.154 257.142 299.997C255.569 297.743 253.406 295.897 250.974 294.626C248.217 293.185 245.111 292.463 242 292.598C241.015 292.641 241.01 294.178 242 294.135C246.628 293.933 251.222 295.768 254.434 299.113C255.246 299.959 256.186 300.978 256.543 302.119C256.987 303.538 255.858 304.468 254.518 304.508C252.07 304.582 249.689 302.85 248.083 301.163C246.002 298.976 244.653 296.216 243.323 293.539C242.882 292.653 241.556 293.431 241.996 294.314Z" fill="#421B36"/>
<path d="M219.98 291.114C219.779 290.947 218.767 272.436 218.234 271.369C216.094 267.089 275.23 267.493 275.506 271.873C275.782 276.253 274.85 290.916 274.85 290.916L219.98 291.114Z" fill="#FFBFBF"/>
<path d="M216.077 271.045C216.077 271.045 215.648 281.938 218.234 282.53C224.202 283.896 276.978 284.102 277.692 282.53C278.406 280.958 276.841 271.37 276.841 271.37C276.841 271.37 244.061 265.743 216.077 271.045Z" fill="#A0D2F4"/>
<path d="M214.093 272.111C225.28 270.407 236.583 269.506 247.899 269.434C253.421 269.399 258.954 269.538 264.463 269.918C269.626 270.275 274.826 270.992 279.493 273.361C280.373 273.808 281.152 272.482 280.269 272.034C275.676 269.703 270.617 268.86 265.528 268.46C259.868 268.015 254.173 267.873 248.497 267.894C236.841 267.938 225.205 268.874 213.683 270.629C212.71 270.777 213.124 272.259 214.093 272.111Z" fill="#421B36"/>
<path d="M243.388 130.639C239.084 122.532 229.076 119.673 220.737 123.062C214.485 125.603 206.835 133.931 213.606 140.014C214.594 140.901 216.027 139.496 215.073 138.547C207.049 130.559 222.633 123.74 228.08 123.728C234.011 123.715 238.824 126.969 242.817 131.078C243.112 131.382 243.579 130.998 243.388 130.639Z" fill="#421B36"/>
<path d="M243.958 129.398C244.035 125.254 242.545 121.458 239.252 118.878C238.563 118.338 237.584 119.239 238.262 119.868C240.983 122.394 242.994 125.682 243.457 129.397C243.495 129.709 243.952 129.73 243.958 129.398Z" fill="#421B36"/>
<path d="M243.913 132.448C248.338 135.366 253.264 137.223 258.616 137.298C265.645 137.397 275.066 130.359 281.162 135.298C282.031 136.002 283.188 134.907 282.409 134.051C278.907 130.202 274.314 131.043 269.814 132.623C260.917 135.747 252.905 136.697 244.314 131.761C243.867 131.504 243.488 132.167 243.913 132.448Z" fill="#8380FF"/>
<path d="M255.931 140.778C261.24 144.755 267.477 146.88 274.14 146.441C275.078 146.379 275.093 145.003 274.14 144.971C267.794 144.758 261.905 143.207 256.507 139.793C255.871 139.391 255.359 140.349 255.931 140.778Z" fill="#8380FF"/>
<path d="M291.668 264.39C297.162 257.156 306.072 252.897 315.138 253.055C316.127 253.072 316.127 251.535 315.138 251.518C305.487 251.35 296.169 255.941 290.341 263.614C289.743 264.402 291.077 265.168 291.668 264.39Z" fill="#421B36"/>
<path d="M235.472 363.34C234.934 367.962 233.914 372.427 232.929 376.963C232.652 378.239 234.543 378.779 234.896 377.505C236.165 372.925 236.562 368.075 236.579 363.339C236.581 362.61 235.553 362.651 235.472 363.34Z" fill="#8380FF"/>
</svg>
